<svg width="305" height="282" viewBox="0 0 305 282" fill="none" xmlns="http://www.w3.org/2000/svg">
<path d="M289.05 143.07H71.12C67.24 141.93 64.38 138.37 64.38 134.14C64.38 129.88 67.24 126.32 71.13 125.2H110.1C118.07 125.2 124.52 118.74 124.52 110.78V15.1001C124.52 7.1301 118.06 0.680176 110.1 0.680176H14.42C6.45 0.680176 0 7.1401 0 15.1001V110.78C0 118.75 6.46 125.2 14.42 125.2H49.18C53.09 126.31 55.95 129.87 55.95 134.14C55.95 136.72 54.91 139.05 53.22 140.74C52.13 141.83 50.78 142.62 49.27 143.07H15.17C6.79 143.07 0 149.86 0 158.24V266.59C0 274.97 6.79 281.76 15.17 281.76H289.05C297.43 281.76 304.22 274.97 304.22 266.59V158.24C304.22 149.87 297.43 143.07 289.05 143.07Z" fill="#F5F5F5"/>
</svg>
