<svg width="70" height="70" viewBox="0 0 70 70" fill="none" xmlns="http://www.w3.org/2000/svg">
<path d="M53.9582 26.25C54.9429 26.25 55.8952 26.1105 56.7962 25.8503C56.8484 26.4666 56.8749 27.09 56.8749 27.7197V39.382L61.0116 48.5989C61.1717 48.9557 61.2546 49.3424 61.2546 49.7335C61.2546 51.2639 60.0141 52.5044 58.4837 52.5044H11.5271C11.1369 52.5044 10.7511 52.4221 10.395 52.2626C8.99827 51.6372 8.37288 49.9981 8.99816 48.6013L13.1249 39.3832L13.1252 27.682L13.1381 26.9531C13.5438 15.1968 23.2046 5.84473 34.9999 5.84473C39.2095 5.84473 43.1418 7.03388 46.4785 9.09459C44.7853 10.9167 43.7499 13.3582 43.7499 16.0417C43.7499 21.6796 48.3203 26.25 53.9582 26.25ZM43.6283 55.4254C42.9321 59.5615 39.3341 62.7127 34.9999 62.7127C30.6658 62.7127 27.0677 59.5615 26.3716 55.4254H43.6283ZM53.9582 23.3333C57.9853 23.3333 61.2499 20.0687 61.2499 16.0417C61.2499 12.0146 57.9853 8.74999 53.9582 8.74999C49.9312 8.74999 46.6666 12.0146 46.6666 16.0417C46.6666 20.0687 49.9312 23.3333 53.9582 23.3333Z" fill="#212121"/>
</svg>
