<svg width="75" height="75" viewBox="0 0 75 75" fill="none" xmlns="http://www.w3.org/2000/svg">
<path d="M33.2572 6.90308C34.4613 5.69897 36.4136 5.69897 37.6177 6.90308L45.3257 14.611C45.9038 15.1893 46.2288 15.9735 46.2288 16.7913C46.2288 17.609 45.9038 18.3933 45.3257 18.9715L37.6177 26.6795C36.4136 27.8836 34.4613 27.8836 33.2572 26.6795C32.0532 25.4753 32.0532 23.5231 33.2572 22.319L35.595 19.9812C24.6866 21.0626 16.1666 30.2655 16.1666 41.4583C16.1666 53.3785 25.8298 63.0417 37.7499 63.0417C48.7541 63.0417 57.8388 54.8039 59.1662 44.1603C59.3768 42.4703 60.9175 41.2712 62.6072 41.4821C64.2971 41.6927 65.4962 43.2334 65.2853 44.9231C63.5781 58.6152 51.9034 69.2083 37.7499 69.2083C22.424 69.2083 9.99994 56.7843 9.99994 41.4583C9.99994 26.7977 21.3689 14.7923 35.7714 13.7778L33.2572 11.2636C32.0532 10.0595 32.0532 8.10721 33.2572 6.90308ZM50.7218 31.5697C51.9259 32.7738 51.9259 34.7262 50.7218 35.9302L36.8468 49.8052C35.6428 51.0093 33.6904 51.0093 32.4864 49.8052L26.3197 43.6386C25.1156 42.4345 25.1156 40.4822 26.3197 39.2781C27.5238 38.0741 29.4761 38.0741 30.6802 39.2781L34.6666 43.2645L46.3614 31.5697C47.5654 30.3656 49.5178 30.3656 50.7218 31.5697Z" fill="#212121"/>
</svg>
