<svg width="51" height="51" viewBox="0 0 51 51" fill="none" xmlns="http://www.w3.org/2000/svg">
<path d="M25.48 50.0698C39.2871 50.0698 50.48 38.8769 50.48 25.0698C50.48 11.2627 39.2871 0.0698242 25.48 0.0698242C11.6729 0.0698242 0.47998 11.2627 0.47998 25.0698C0.47998 38.8769 11.6729 50.0698 25.48 50.0698Z" fill="#CEE36D"/>
<path d="M45.0148 30.2406C45.0047 29.946 44.9946 29.6514 44.9946 29.3568C44.9946 26.6343 43.359 24.5009 40.728 23.8C40.5756 23.7594 40.5654 23.7391 40.5654 23.5969V23.2413C40.5654 22.6115 40.5655 21.9614 40.4944 21.3112C40.0677 17.5323 38.5134 14.3019 35.8824 11.7013C32.7028 8.5522 28.9239 6.95728 24.6573 6.95728C24.0377 6.95728 23.3977 6.98773 22.7475 7.05884C18.1153 7.54644 14.3362 9.73053 11.4919 13.5501C10.8112 13.8447 10.1408 14.1901 9.52117 14.5761C5.37651 17.1361 3.24324 21.7175 4.07624 26.2482C4.53337 28.737 5.80316 30.9009 7.86533 32.6888C8.12945 32.9224 8.44437 33.0442 8.75928 33.0442C9.11483 33.0442 9.43992 32.8919 9.67357 32.6278C10.1409 32.0995 10.1103 31.4494 9.59222 30.8805C9.46016 30.7383 9.31803 30.6062 9.17581 30.464C9.07423 30.3624 8.97259 30.271 8.87101 30.1694C5.61014 26.7968 5.62031 21.7175 8.88118 18.3551C11.0145 16.1608 14.1026 14.9013 17.3533 14.9013C20.1875 14.9013 22.8694 15.8459 24.9011 17.5728C28.6394 20.7321 29.2692 25.6896 26.4046 29.3568C24.4033 31.9167 21.6097 33.3286 18.0949 33.5521C17.2009 33.6131 16.561 33.796 15.9718 34.1719C15.2505 34.6392 14.4887 35.0862 13.7573 35.5129C13.5846 35.6145 13.4017 35.7158 13.229 35.8276L13.2594 35.7363L13.5947 34.751C13.9198 33.8164 13.6658 33.1153 12.9344 32.8512C12.7719 32.7903 12.6195 32.7699 12.4671 32.7699C12.071 32.7699 11.5224 32.9732 11.177 33.9383C10.9027 34.7306 10.6386 35.5228 10.3744 36.3152C10.0189 37.3717 10.1916 38.1031 10.923 38.6822C11.3192 38.9971 11.6849 39.1393 12.0811 39.1393C12.457 39.1393 12.8633 39.0073 13.3408 38.7127C14.6309 37.9508 15.921 37.1787 17.2111 36.3965C17.465 36.2441 17.7393 36.1629 18.0949 36.1324C22.0262 35.8378 25.2667 34.3446 27.7454 31.6831C29.767 29.5092 30.8031 26.6749 30.6609 23.7086C30.5187 20.7626 29.2388 18.0605 27.0445 16.0999C24.3322 13.6822 20.858 12.3515 17.2518 12.3515C16.7337 12.3515 16.2257 12.3819 15.7076 12.4327C18.166 10.4213 21.2948 9.28361 24.4337 9.28361C25.4394 9.28361 26.435 9.39532 27.4001 9.62896C31.9307 10.6956 35.2018 13.4282 37.1218 17.7659C37.6399 18.9341 37.9751 20.2751 38.1376 21.8598C38.1376 21.87 38.1376 21.8902 38.1376 21.9105C37.8329 21.8597 37.5484 21.8496 37.1725 21.8496C36.9998 21.8496 36.8271 21.8496 36.6646 21.8598C36.5021 21.8598 36.3294 21.87 36.1668 21.87L36.1363 21.9919C36.1262 21.9919 36.1262 21.9919 36.116 21.9919H36.1059V21.87C34.1352 21.87 32.906 23.1092 32.906 25.1003C32.906 26.36 32.906 27.6196 32.906 28.8792V30.4945V32.2721C32.906 33.5318 32.906 34.7914 32.906 36.051C32.9162 37.8999 34.1554 39.1393 35.9941 39.1494H36.2786H36.9389C37.1725 39.1494 37.4061 39.1494 37.6398 39.1494C38.7674 39.1393 39.6511 38.6008 40.1896 37.5952C40.2911 37.4021 40.4131 37.3109 40.6366 37.2499C42.8715 36.6506 44.2733 35.2282 44.7914 33.0035C45.0657 32.0588 45.0453 31.1345 45.0148 30.2406ZM40.5857 29.2247C40.5857 28.2495 40.5857 27.2641 40.5857 26.2889C40.5857 26.2584 40.5857 26.2279 40.5857 26.2075C40.6061 26.2177 40.6366 26.2279 40.6671 26.2482C41.9166 26.8069 42.5768 27.8127 42.6276 29.2349L42.6378 29.4278C42.6683 30.3624 42.709 31.3274 42.5769 32.2721C42.4144 33.4505 41.7845 34.2632 40.6468 34.7812C40.6264 34.7914 40.6061 34.8016 40.5857 34.8117C40.5857 34.7914 40.5857 34.7611 40.5857 34.7306C40.5857 33.725 40.5857 32.7193 40.5857 31.7034V30.4945V29.2247ZM38.2189 25.0598C38.2189 26.3397 38.2189 27.6094 38.2189 28.8894V30.5351V31.9978C38.2189 33.3387 38.2189 34.6697 38.2189 36.0106C38.2189 36.6303 38.0868 36.7623 37.457 36.7725H36.7053C36.4818 36.7725 36.2481 36.7725 36.0246 36.7725C35.5472 36.7623 35.344 36.559 35.3136 36.0816C35.3034 35.9901 35.3136 35.8987 35.3136 35.7971V35.6855C35.3136 32.2113 35.3136 28.7472 35.3136 25.273C35.3136 25.0902 35.3136 24.9175 35.3441 24.7549C35.4152 24.3994 35.598 24.247 35.9637 24.2369C36.1669 24.2369 36.37 24.2267 36.5732 24.2267H36.9897H37.3554C38.0767 24.2267 38.2189 24.369 38.2189 25.0598Z" fill="#596AFD"/>
<path d="M12.4366 25.6286C13.1884 25.6286 13.8182 25.0191 13.8385 24.2674C13.8487 23.9017 13.7166 23.5664 13.4728 23.3124C13.2189 23.0483 12.8633 22.896 12.4773 22.896H12.457C11.6646 22.896 11.1058 23.4445 11.1058 24.2369C11.1058 24.6229 11.2481 24.9886 11.502 25.2425C11.7458 25.4863 12.0811 25.6286 12.4366 25.6286Z" fill="#596AFD"/>
<path d="M17.313 25.6286C17.6787 25.6286 18.0241 25.4863 18.278 25.2222C18.532 24.9581 18.6844 24.6026 18.6844 24.2369C18.6742 23.475 18.0851 22.896 17.313 22.896H17.2825C16.5308 22.9163 15.972 23.475 15.9619 24.2267C15.9517 24.6026 16.0939 24.9581 16.3581 25.2222C16.612 25.4863 16.9473 25.6286 17.313 25.6286Z" fill="#596AFD"/>
<path d="M22.1481 25.6285C22.9202 25.6285 23.5298 25.0089 23.5298 24.247C23.5298 23.4851 22.9812 22.9163 22.2295 22.8858H22.1685C21.3964 22.8858 20.8174 23.4444 20.7971 24.2063C20.7869 24.572 20.919 24.9276 21.1831 25.2018C21.4472 25.4761 21.7926 25.6184 22.1481 25.6285Z" fill="#596AFD"/>
</svg>
