<svg width="26" height="26" viewBox="0 0 26 26" fill="none" xmlns="http://www.w3.org/2000/svg">
<path d="M3.24999 18.4167H22.75C23.3483 18.4167 23.8333 18.9018 23.8333 19.5001C23.8333 20.0556 23.4152 20.5135 22.8763 20.5762L22.75 20.5834H3.24999C2.65169 20.5834 2.16666 20.0984 2.16666 19.5001C2.16666 18.9445 2.58487 18.4866 3.12365 18.424L3.24999 18.4167ZM3.24986 11.9167L22.7499 11.9144C23.3482 11.9144 23.8333 12.3993 23.8333 12.9976C23.8333 13.5531 23.4153 14.0112 22.8764 14.0738L22.7501 14.081L3.25012 14.0834C2.65182 14.0835 2.16666 13.5985 2.16666 13.0002C2.16666 12.4447 2.58476 11.9867 3.12352 11.924L3.24986 11.9167ZM3.24999 5.41675H22.75C23.3483 5.41675 23.8333 5.90178 23.8333 6.50008C23.8333 7.05566 23.4152 7.51355 22.8763 7.57612L22.75 7.58341H3.24999C2.65169 7.58341 2.16666 7.09838 2.16666 6.50008C2.16666 5.9445 2.58487 5.48661 3.12365 5.42404L3.24999 5.41675Z" fill="white"/>
</svg>
