<svg width="50" height="50" viewBox="0 0 50 50" fill="none" xmlns="http://www.w3.org/2000/svg">
<path d="M25 50C38.8071 50 50 38.8071 50 25C50 11.1929 38.8071 0 25 0C11.1929 0 0 11.1929 0 25C0 38.8071 11.1929 50 25 50Z" fill="#CEE36D"/>
<path d="M9.26441 26.2191C9.26441 23.0598 9.29487 19.8903 9.25424 16.731C9.22376 14.3539 10.9406 12.0785 13.5919 11.7433C14.1811 11.6722 14.7805 11.7026 15.3697 11.7229C15.6439 11.7331 15.7353 11.6416 15.715 11.3775C15.6947 11.0829 15.7049 10.7883 15.715 10.4835C15.7252 9.78258 16.2737 9.25439 16.9848 9.26455C17.6756 9.27471 18.2038 9.79275 18.214 10.4937C18.2241 10.8086 18.2241 11.1236 18.214 11.4486C18.214 11.6315 18.2648 11.7331 18.4679 11.7331C20.1238 11.723 21.7796 11.7331 23.4456 11.7331C23.6285 11.7331 23.6996 11.662 23.6996 11.4792C23.6894 11.1439 23.6894 10.7985 23.6996 10.4633C23.7199 9.78269 24.2684 9.26456 24.9592 9.27472C25.6297 9.27472 26.168 9.79284 26.1883 10.4633C26.1985 10.7884 26.1985 11.1134 26.1883 11.4486C26.1883 11.6315 26.229 11.7331 26.4423 11.7331C28.1185 11.723 29.7947 11.7331 31.481 11.7331C31.6638 11.7331 31.7451 11.6722 31.735 11.4792C31.7248 11.1439 31.7248 10.7985 31.735 10.4633C31.7553 9.78269 32.3038 9.26456 32.9946 9.27472C33.6651 9.27472 34.2136 9.79284 34.2237 10.4633C34.2339 10.7985 34.2339 11.1439 34.2237 11.4792C34.2237 11.662 34.2948 11.7331 34.4777 11.7331C34.9247 11.723 35.3819 11.7331 35.8289 11.7331C38.338 11.7433 40.4306 13.6124 40.7252 16.1114C40.7353 16.1825 40.7354 16.2535 40.7354 16.3246C40.7354 18.783 40.7455 21.2413 40.7354 23.6895C40.7354 24.2686 40.3289 24.7664 39.7804 24.8883C39.1912 25.0204 38.6123 24.7359 38.3481 24.1975C38.2465 23.9841 38.2364 23.7607 38.2364 23.5373C38.2364 21.3227 38.2364 19.1183 38.2364 16.9037C38.2364 15.8371 37.8401 14.9939 36.8547 14.486C36.489 14.293 36.093 14.2524 35.6968 14.2321C35.3006 14.2117 34.8942 14.232 34.498 14.2219C34.305 14.2219 34.2237 14.293 34.2237 14.486C34.2339 14.8111 34.2339 15.1361 34.2237 15.4714C34.2034 16.1621 33.665 16.6803 32.9743 16.6803C32.2835 16.6803 31.7451 16.1621 31.7248 15.4714C31.7146 15.1463 31.7146 14.8213 31.7248 14.486C31.7248 14.3133 31.6842 14.2219 31.481 14.2219C29.7947 14.2219 28.1084 14.2219 26.4119 14.2219C26.2189 14.2219 26.1681 14.3133 26.1681 14.486C26.1783 14.8111 26.1783 15.1361 26.1681 15.4714C26.1478 16.1621 25.6093 16.6803 24.9185 16.6803C24.2278 16.6803 23.6894 16.1621 23.6691 15.4714C23.6589 15.1361 23.6589 14.8009 23.6691 14.4555C23.6691 14.2828 23.598 14.2219 23.4354 14.2219C21.7694 14.2219 20.1035 14.2219 18.4274 14.2219C18.2344 14.2219 18.1836 14.3133 18.1836 14.486C18.1937 14.8111 18.1937 15.1361 18.1836 15.4714C18.1633 16.1621 17.6248 16.6803 16.934 16.6803C16.2432 16.6803 15.6947 16.1621 15.6845 15.4714C15.6744 15.1361 15.6845 14.8009 15.6845 14.4555C15.6845 14.3336 15.6643 14.2219 15.5119 14.2219C14.8618 14.2219 14.2014 14.1508 13.5614 14.3235C12.4034 14.6384 11.743 15.573 11.743 16.8936C11.743 19.5551 11.743 22.2166 11.743 24.8781C11.743 28.4336 11.743 31.9789 11.743 35.5344C11.743 36.1845 11.865 36.794 12.2916 37.3121C12.8402 38.0029 13.5919 38.2467 14.435 38.2467C17.4318 38.2467 20.4285 38.2467 23.4354 38.2467C23.6792 38.2467 23.9231 38.2569 24.1466 38.3788C24.6647 38.6531 24.9389 39.2321 24.7966 39.801C24.6646 40.3496 24.177 40.7457 23.5878 40.7457C20.3473 40.7457 17.0966 40.7558 13.8561 40.7355C11.9056 40.7253 9.96525 39.1406 9.42685 37.1902C9.29479 36.7026 9.2339 36.215 9.2339 35.7071C9.26438 32.5377 9.26441 29.3784 9.26441 26.2191Z" fill="#596AFD"/>
<path d="M40.7558 33.2893C40.7558 37.4238 37.4339 40.7456 33.2994 40.7456C29.1649 40.7456 25.8431 37.4238 25.8431 33.2893C25.8431 29.1548 29.1649 25.833 33.2994 25.833C37.4339 25.833 40.7558 29.1548 40.7558 33.2893ZM38.2365 33.2791C38.2061 30.5465 36.0117 28.3421 33.2994 28.3523C30.5363 28.3624 28.3522 30.5567 28.3624 33.2995C28.3726 36.1134 30.6278 38.2466 33.3197 38.2161C36.1336 38.1958 38.2162 35.961 38.2365 33.2791Z" fill="#596AFD"/>
<path d="M15.7149 22.1657C15.7149 21.4546 16.2635 20.9163 16.9847 20.9163C17.6856 20.9264 18.2139 21.4648 18.2139 22.1657C18.2139 22.8768 17.6653 23.4153 16.944 23.4153C16.2533 23.4153 15.7149 22.8768 15.7149 22.1657Z" fill="#596AFD"/>
<path d="M23.5575 22.1759C23.5575 22.887 23.0089 23.4255 22.2877 23.4255C21.5867 23.4153 21.0585 22.8768 21.0585 22.1759C21.0585 21.4648 21.6071 20.9264 22.3283 20.9264C23.0191 20.9264 23.5575 21.4749 23.5575 22.1759Z" fill="#596AFD"/>
<path d="M27.6513 23.4255C26.9402 23.4255 26.3916 22.8768 26.4018 22.1657C26.4018 21.4648 26.9503 20.9264 27.6513 20.9264C28.3623 20.9264 28.9109 21.4749 28.9007 22.186C28.9007 22.887 28.3522 23.4255 27.6513 23.4255Z" fill="#596AFD"/>
<path d="M34.2442 22.1759C34.2442 22.887 33.6956 23.4255 32.9744 23.4255C32.2735 23.4153 31.7453 22.8768 31.7453 22.1759C31.7453 21.4648 32.2938 20.9264 33.0151 20.9264C33.7058 20.9264 34.2442 21.4749 34.2442 22.1759Z" fill="#596AFD"/>
<path d="M16.9645 28.7687C16.2534 28.7687 15.7049 28.2202 15.715 27.5091C15.715 26.8081 16.2636 26.2698 16.9645 26.2698C17.6756 26.2698 18.2241 26.8183 18.214 27.5294C18.214 28.2304 17.6655 28.7687 16.9645 28.7687Z" fill="#596AFD"/>
<path d="M23.5575 27.5294C23.5575 28.2405 23.0089 28.7789 22.2877 28.7687C21.5867 28.7586 21.0585 28.2202 21.0585 27.5091C21.0585 26.798 21.6071 26.2596 22.3283 26.2698C23.0293 26.2698 23.5575 26.8183 23.5575 27.5294Z" fill="#596AFD"/>
<path d="M16.9644 34.1121C16.2533 34.1121 15.7149 33.5635 15.7149 32.8423C15.7251 32.1414 16.2635 31.6132 16.9745 31.6132C17.6856 31.6132 18.224 32.1617 18.224 32.883C18.2037 33.5737 17.6653 34.1121 16.9644 34.1121Z" fill="#596AFD"/>
<path d="M22.308 34.1121C21.5969 34.1121 21.0585 33.5635 21.0585 32.8423C21.0585 32.1414 21.6071 31.6132 22.308 31.6132C23.0191 31.6132 23.5575 32.1617 23.5575 32.883C23.5575 33.5737 23.0089 34.1121 22.308 34.1121Z" fill="#596AFD"/>
<path d="M32.0499 32.0094C32.0499 31.5828 32.0397 31.1459 32.0499 30.7193C32.0702 30.0386 32.6086 29.5206 33.3095 29.5206C33.9901 29.5206 34.5286 30.0386 34.5489 30.7091C34.5591 31.0646 34.5591 31.4304 34.5489 31.786C34.5489 31.9688 34.6099 32.0501 34.8029 32.0399C34.9959 32.0399 35.199 32.0297 35.3819 32.0703C36.0015 32.2024 36.3978 32.7917 36.3267 33.4621C36.2657 34.0412 35.7476 34.5287 35.1381 34.5389C34.5083 34.549 33.8683 34.549 33.2385 34.5389C32.5985 34.5287 32.0702 34.0004 32.06 33.3604C32.0397 32.9135 32.0499 32.4564 32.0499 32.0094Z" fill="#596AFD"/>
</svg>
