<svg width="50" height="50" viewBox="0 0 50 50" fill="none" xmlns="http://www.w3.org/2000/svg">
<path d="M24.61 49.22C38.2018 49.22 49.22 38.2017 49.22 24.61C49.22 11.0183 38.2018 0 24.61 0C11.0183 0 0 11.0183 0 24.61C0 38.2017 11.0183 49.22 24.61 49.22Z" fill="#596AFD"/>
<path d="M9.11011 25.81C9.11011 22.7 9.1401 19.58 9.1001 16.47C9.0701 14.13 10.7601 11.89 13.3701 11.56C13.9501 11.49 14.5401 11.5199 15.1201 11.5299C15.3901 11.5399 15.4801 11.45 15.4601 11.19C15.4401 10.9 15.4501 10.61 15.4601 10.31C15.4701 9.61996 16.0101 9.10001 16.7101 9.11001C17.3901 9.12001 17.9101 9.62997 17.9201 10.32C17.9301 10.63 17.9301 10.9399 17.9201 11.2599C17.9201 11.4399 17.9701 11.5399 18.1701 11.5399C19.8001 11.5299 21.4301 11.5399 23.0701 11.5399C23.2501 11.5399 23.3201 11.4699 23.3201 11.2899C23.3101 10.9599 23.3101 10.6199 23.3201 10.2899C23.3401 9.61994 23.8801 9.11001 24.5601 9.12001C25.2201 9.12001 25.7501 9.62994 25.7701 10.2899C25.7801 10.6099 25.7801 10.9299 25.7701 11.2599C25.7701 11.4399 25.8101 11.5399 26.0201 11.5399C27.6701 11.5299 29.3201 11.5399 30.9801 11.5399C31.1601 11.5399 31.2401 11.4799 31.2301 11.2899C31.2201 10.9599 31.2201 10.6199 31.2301 10.2899C31.2501 9.61994 31.7901 9.11001 32.4701 9.12001C33.1301 9.12001 33.6701 9.62994 33.6801 10.2899C33.6901 10.6199 33.6901 10.9599 33.6801 11.2899C33.6801 11.4699 33.7501 11.5399 33.9301 11.5399C34.3701 11.5299 34.8201 11.5399 35.2601 11.5399C37.7301 11.5499 39.7901 13.39 40.0801 15.85C40.0901 15.92 40.0901 15.99 40.0901 16.06C40.0901 18.48 40.1001 20.9 40.0901 23.31C40.0901 23.88 39.6901 24.37 39.1501 24.49C38.5701 24.62 38.0001 24.34 37.7401 23.81C37.6401 23.6 37.6301 23.3799 37.6301 23.1599C37.6301 20.9799 37.6301 18.8099 37.6301 16.6299C37.6301 15.5799 37.2401 14.75 36.2701 14.25C35.9101 14.06 35.5201 14.02 35.1301 14C34.7401 13.98 34.3401 14 33.9501 13.99C33.7601 13.99 33.6801 14.06 33.6801 14.25C33.6901 14.57 33.6901 14.89 33.6801 15.22C33.6601 15.9 33.1301 16.4099 32.4501 16.4099C31.7701 16.4099 31.2401 15.9 31.2201 15.22C31.2101 14.9 31.2101 14.58 31.2201 14.25C31.2201 14.08 31.1801 13.99 30.9801 13.99C29.3201 13.99 27.6601 13.99 25.9901 13.99C25.8001 13.99 25.7501 14.08 25.7501 14.25C25.7601 14.57 25.7601 14.89 25.7501 15.22C25.7301 15.9 25.2001 16.4099 24.5201 16.4099C23.8401 16.4099 23.3101 15.9 23.2901 15.22C23.2801 14.89 23.2801 14.55 23.2901 14.22C23.2901 14.05 23.2201 13.99 23.0601 13.99C21.4201 13.99 19.7801 13.99 18.1301 13.99C17.9401 13.99 17.8901 14.08 17.8901 14.25C17.9001 14.57 17.9001 14.89 17.8901 15.22C17.8701 15.9 17.3401 16.4099 16.6601 16.4099C15.9801 16.4099 15.4401 15.9 15.4301 15.22C15.4201 14.89 15.4301 14.56 15.4301 14.22C15.4301 14.1 15.4101 13.99 15.2601 13.99C14.6201 13.99 13.9701 13.92 13.3401 14.09C12.2001 14.4 11.5501 15.32 11.5501 16.62C11.5501 19.24 11.5501 21.86 11.5501 24.48C11.5501 27.98 11.5501 31.47 11.5501 34.97C11.5501 35.61 11.6701 36.21 12.0901 36.72C12.6301 37.4 13.3701 37.6399 14.2001 37.6399C17.1501 37.6399 20.1001 37.6399 23.0601 37.6399C23.3001 37.6399 23.5401 37.6499 23.7601 37.7699C24.2701 38.0399 24.5401 38.6099 24.4001 39.1699C24.2701 39.7099 23.7901 40.1 23.2101 40.1C20.0201 40.1 16.8201 40.11 13.6301 40.09C11.7101 40.08 9.80008 38.52 9.27008 36.6C9.14008 36.12 9.08008 35.6399 9.08008 35.1399C9.12008 32.0399 9.11011 28.93 9.11011 25.81Z" fill="#CEE36D"/>
<path d="M40.1102 32.7699C40.1102 36.8399 36.8402 40.11 32.7702 40.11C28.7002 40.11 25.4302 36.8399 25.4302 32.7699C25.4302 28.6999 28.7002 25.4299 32.7702 25.4299C36.8402 25.4399 40.1102 28.7099 40.1102 32.7699ZM37.6302 32.7599C37.6002 30.0699 35.4402 27.8999 32.7702 27.9099C30.0502 27.9199 27.9002 30.0799 27.9102 32.7799C27.9202 35.5499 30.1402 37.65 32.7902 37.62C35.5602 37.61 37.6102 35.3999 37.6302 32.7599Z" fill="#CEE36D"/>
<path d="M15.46 21.83C15.46 21.13 16 20.6 16.71 20.6C17.4 20.61 17.92 21.14 17.92 21.83C17.92 22.53 17.38 23.0599 16.67 23.0599C15.99 23.0599 15.46 22.52 15.46 21.83Z" fill="#CEE36D"/>
<path d="M23.1802 21.83C23.1802 22.53 22.6402 23.0599 21.9302 23.0599C21.2402 23.0499 20.7202 22.52 20.7202 21.83C20.7202 21.13 21.2602 20.6 21.9702 20.6C22.6602 20.61 23.1802 21.14 23.1802 21.83Z" fill="#CEE36D"/>
<path d="M27.2101 23.0599C26.5101 23.0599 25.9701 22.5199 25.9801 21.8199C25.9801 21.1299 26.5201 20.6 27.2101 20.6C27.9101 20.6 28.4501 21.14 28.4401 21.84C28.4401 22.53 27.9001 23.0599 27.2101 23.0599Z" fill="#CEE36D"/>
<path d="M33.7003 21.83C33.7003 22.53 33.1603 23.0599 32.4503 23.0599C31.7603 23.0499 31.2402 22.52 31.2402 21.83C31.2402 21.13 31.7802 20.6 32.4902 20.6C33.1802 20.61 33.7003 21.14 33.7003 21.83Z" fill="#CEE36D"/>
<path d="M16.6998 28.3199C15.9998 28.3199 15.4599 27.78 15.4699 27.08C15.4699 26.39 16.0098 25.86 16.6998 25.86C17.3998 25.86 17.9398 26.4 17.9298 27.1C17.9198 27.79 17.3898 28.3199 16.6998 28.3199Z" fill="#CEE36D"/>
<path d="M23.1802 27.1C23.1802 27.8 22.6402 28.33 21.9302 28.32C21.2402 28.31 20.7202 27.78 20.7202 27.08C20.7202 26.38 21.2602 25.85 21.9702 25.86C22.6602 25.87 23.1802 26.41 23.1802 27.1Z" fill="#CEE36D"/>
<path d="M16.6899 33.58C15.9899 33.58 15.46 33.04 15.46 32.33C15.47 31.64 16 31.12 16.7 31.12C17.4 31.12 17.9299 31.66 17.9299 32.37C17.9199 33.06 17.3799 33.58 16.6899 33.58Z" fill="#CEE36D"/>
<path d="M21.9502 33.58C21.2502 33.58 20.7202 33.04 20.7202 32.33C20.7202 31.64 21.2602 31.12 21.9502 31.12C22.6502 31.12 23.1802 31.66 23.1802 32.37C23.1802 33.05 22.6402 33.58 21.9502 33.58Z" fill="#CEE36D"/>
<path d="M31.5401 31.5099C31.5401 31.0899 31.5301 30.66 31.5401 30.24C31.5601 29.57 32.0901 29.0599 32.7801 29.0599C33.4501 29.0599 33.98 29.57 34 30.23C34.01 30.58 34.01 30.9399 34 31.2899C34 31.4699 34.06 31.5499 34.25 31.5399C34.44 31.5399 34.6401 31.5299 34.8201 31.5699C35.4301 31.6999 35.8201 32.2799 35.7501 32.9399C35.6901 33.5099 35.1801 33.99 34.5801 34C33.9601 34.01 33.3301 34.01 32.7101 34C32.0801 33.99 31.5601 33.47 31.5501 32.84C31.5301 32.4 31.5401 31.9599 31.5401 31.5099Z" fill="#CEE36D"/>
</svg>
