<svg width="50" height="50" viewBox="0 0 50 50" fill="none" xmlns="http://www.w3.org/2000/svg">
<path d="M24.61 49.22C38.2017 49.22 49.22 38.2017 49.22 24.61C49.22 11.0183 38.2017 0 24.61 0C11.0183 0 0 11.0183 0 24.61C0 38.2017 11.0183 49.22 24.61 49.22Z" fill="#596AFD"/>
<path d="M32.7199 41.8999C31.7899 41.8899 30.9299 41.55 30.0599 41.31C29.4299 41.13 28.9399 41.2 28.4999 41.72C28.0899 42.2 27.6198 42.63 27.1598 43.07C25.7198 44.48 23.6599 44.47 22.2299 43.06C21.7699 42.61 21.2999 42.16 20.8599 41.69C20.4999 41.3 20.0999 41.21 19.5899 41.34C18.7499 41.56 17.9198 41.86 17.0498 41.97C15.4098 42.18 13.9098 41.2299 13.3898 39.6499C13.1598 38.9299 12.9698 38.19 12.7798 37.45C12.6598 36.99 12.3898 36.71 11.9198 36.6C11.2198 36.43 10.5199 36.2399 9.82988 36.0399C7.92988 35.4799 6.92984 33.7199 7.41984 31.7999C7.57984 31.1499 7.75986 30.5 7.93986 29.86C8.06986 29.41 7.99981 29.03 7.63981 28.69C7.11981 28.21 6.62993 27.7 6.12993 27.19C4.71993 25.75 4.72993 23.6899 6.12993 22.2599C6.57993 21.7999 7.02992 21.3299 7.49992 20.8899C7.88992 20.5299 7.9799 20.13 7.8499 19.62C7.6299 18.78 7.32989 17.95 7.21989 17.08C7.00989 15.46 7.94981 13.95 9.50981 13.44C10.2198 13.21 10.9398 13.02 11.6698 12.85C12.1998 12.72 12.4999 12.4299 12.6199 11.8899C12.7699 11.2099 12.9598 10.54 13.1598 9.87001C13.7198 7.97001 15.4798 6.96998 17.3998 7.45998C18.0498 7.61998 18.6999 7.8 19.3399 7.98C19.7899 8.11 20.1698 8.03995 20.5098 7.67995C20.9898 7.15995 21.4998 6.66994 22.0098 6.16994C23.4498 4.75994 25.5099 4.76995 26.9399 6.17995C27.4099 6.63995 27.8799 7.09997 28.3299 7.57997C28.6699 7.93997 29.0498 8.02993 29.5298 7.90993C30.3898 7.68993 31.2299 7.38992 32.1099 7.26992C33.7299 7.05992 35.2399 7.99995 35.7499 9.55995C35.9899 10.29 36.1699 11.0399 36.3699 11.7899C36.4899 12.2599 36.7599 12.5299 37.2299 12.6399C37.9299 12.8099 38.6299 13 39.3199 13.2C41.2199 13.76 42.2199 15.52 41.7299 17.44C41.5699 18.09 41.3899 18.7399 41.2099 19.3799C41.0799 19.8299 41.1498 20.2099 41.5098 20.5499C42.0298 21.0299 42.5198 21.5399 43.0198 22.0499C44.4198 23.4899 44.4198 25.55 43.0098 26.98C42.5598 27.44 42.1098 27.91 41.6398 28.35C41.2498 28.71 41.1598 29.11 41.2898 29.62C41.5098 30.46 41.8098 31.2899 41.9198 32.1599C42.1298 33.7799 41.1898 35.2899 39.6398 35.7999C38.9098 36.0399 38.1598 36.2199 37.4098 36.4199C36.9398 36.5399 36.6699 36.8099 36.5599 37.2799C36.3699 38.0399 36.1699 38.7999 35.9399 39.5499C35.5099 40.9799 34.2299 41.8899 32.7199 41.8999ZM32.6199 39.3799C33.1499 39.3899 33.4899 39.11 33.6299 38.61C33.8299 37.89 34.0099 37.17 34.2099 36.45C34.5699 35.15 35.4199 34.35 36.7199 34C37.3799 33.82 38.0399 33.65 38.6999 33.47C39.3399 33.29 39.5798 32.87 39.4198 32.23C39.2298 31.49 39.0199 30.7699 38.8399 30.0299C38.5399 28.7899 38.8299 27.6999 39.7199 26.7799C40.2099 26.2699 40.7199 25.7799 41.2199 25.2699C41.7099 24.7699 41.7099 24.2799 41.2199 23.7799C40.6999 23.2599 40.1698 22.75 39.6698 22.22C38.7998 21.3 38.4698 20.22 38.7698 18.97C38.9398 18.28 39.1399 17.5999 39.3199 16.9199C39.5099 16.1899 39.2798 15.79 38.5498 15.59C37.8498 15.4 37.1599 15.2199 36.4599 15.0199C35.1899 14.6599 34.3698 13.8299 34.0198 12.5499C33.8298 11.8699 33.6599 11.18 33.4699 10.5C33.2999 9.91002 32.8698 9.65995 32.2798 9.80995C31.5398 9.99995 30.8099 10.2099 30.0799 10.3899C28.7999 10.7099 27.6799 10.4 26.7399 9.46999C26.2599 8.98999 25.7798 8.49992 25.2898 8.01992C24.7798 7.51992 24.3098 7.51992 23.7998 8.01992C23.2898 8.52992 22.7898 9.04994 22.2698 9.54994C21.3298 10.4499 20.2299 10.79 18.9599 10.46C18.2699 10.29 17.5898 10.0899 16.9098 9.90993C16.2098 9.72993 15.8199 9.95992 15.6299 10.6499C15.4299 11.3599 15.2498 12.0699 15.0498 12.7699C14.6798 14.0599 13.8398 14.87 12.5398 15.22C11.8798 15.4 11.2199 15.57 10.5599 15.75C9.91986 15.93 9.67989 16.35 9.83989 16.99C10.0299 17.73 10.2398 18.45 10.4198 19.19C10.7198 20.43 10.4298 21.52 9.53984 22.44C9.04984 22.95 8.53984 23.44 8.03984 23.95C7.54984 24.45 7.54984 24.94 8.03984 25.44C8.55984 25.96 9.08989 26.47 9.58989 27C10.4599 27.92 10.7899 29 10.4899 30.25C10.3199 30.96 10.0999 31.6699 9.92985 32.3799C9.76985 33.0499 10.0099 33.4499 10.6799 33.6299C11.3899 33.8199 12.0998 34 12.7998 34.21C14.0798 34.57 14.8899 35.4 15.2399 36.68C15.4299 37.36 15.5998 38.05 15.7898 38.73C15.9598 39.32 16.3899 39.5699 16.9799 39.4199C17.7199 39.2299 18.4499 39.02 19.1799 38.84C20.4699 38.52 21.5798 38.8299 22.5298 39.7599C23.0198 40.2399 23.4899 40.73 23.9799 41.21C24.4899 41.71 24.9599 41.71 25.4699 41.2C25.9899 40.68 26.5098 40.1599 27.0298 39.6399C27.5398 39.1399 28.1499 38.83 28.8499 38.69C29.5599 38.55 30.2298 38.7299 30.8998 38.9099C31.4898 39.0799 32.0999 39.2499 32.6199 39.3799Z" fill="#CEE36D"/>
<path d="M35.6297 24.61C35.5497 30.71 30.7796 35.61 24.6196 35.62C18.4796 35.63 13.5896 30.74 13.5996 24.6C13.6096 18.48 18.4796 13.61 24.6096 13.61C30.7496 13.61 35.5397 18.49 35.6297 24.61ZM24.5896 33.1C29.2696 33.1 33.0896 29.2999 33.0996 24.6399C33.0996 19.9599 29.2995 16.1299 24.6395 16.1299C19.9395 16.1299 16.1297 19.9399 16.1297 24.6299C16.1197 29.2799 19.9396 33.1 24.5896 33.1Z" fill="#CEE36D"/>
<path d="M31.33 21.3898C31.34 21.6798 31.14 21.9998 30.83 22.2698C29.74 23.2298 28.65 24.1899 27.55 25.1499C26.15 26.3799 24.7601 27.6099 23.3501 28.8299C22.6501 29.4399 21.94 29.3599 21.33 28.6599C20.32 27.4799 19.3 26.2999 18.28 25.1199C17.75 24.4999 17.76 23.7498 18.3 23.2598C18.84 22.7598 19.59 22.8199 20.14 23.4399C20.86 24.2499 21.58 25.0699 22.28 25.9099C22.49 26.1599 22.6201 26.1299 22.8501 25.9299C24.9401 24.0799 27.05 22.2398 29.15 20.3898C29.58 20.0098 30.05 19.8699 30.58 20.1199C31.07 20.3299 31.32 20.7098 31.33 21.3898Z" fill="#CEE36D"/>
</svg>
