<svg width="50" height="50" viewBox="0 0 50 50" fill="none" xmlns="http://www.w3.org/2000/svg">
<path d="M24.61 49.22C38.2018 49.22 49.22 38.2017 49.22 24.61C49.22 11.0183 38.2018 0 24.61 0C11.0183 0 0 11.0183 0 24.61C0 38.2017 11.0183 49.22 24.61 49.22Z" fill="#CEE36D"/>
<path d="M6.89004 23.54C7.19004 16.67 10.31 11.5699 16.51 8.45995C19.1 7.15995 21.89 6.72002 24.77 6.91002C32.4 7.42002 38.7201 13.1399 40.0401 20.6999C40.0901 20.9699 40.14 21.24 40.14 21.52C40.12 22.21 39.61 22.81 38.96 22.89C38.21 22.99 37.55 22.58 37.37 21.87C37.27 21.47 37.22 21.06 37.13 20.65C36.02 15.18 31.3301 10.71 25.7801 9.90001C20.93 9.20001 16.7901 10.6399 13.4201 14.1899C11.3801 16.3399 10.1901 18.94 9.86007 21.89C9.37007 26.34 10.7301 30.17 13.8501 33.35C15.9201 35.46 18.44 36.74 21.37 37.22C22.16 37.35 22.65 37.9 22.65 38.65C22.65 39.39 22.15 39.9599 21.4 40.0699C21.02 40.1199 20.64 40 20.2801 39.92C13.4901 38.5 8.36005 33.23 7.15005 26.43C6.98005 25.49 6.87004 24.53 6.89004 23.54Z" fill="#596AFD"/>
<path d="M23.7601 32.95C23.7801 28.32 27.0502 24.48 31.6502 23.71C32.9902 23.49 34.3402 23.55 35.6502 23.95C36.3602 24.17 36.7502 24.78 36.6602 25.51C36.5802 26.16 36.0402 26.67 35.3502 26.72C34.9602 26.75 34.6002 26.6 34.2302 26.53C30.6302 25.91 27.2002 28.38 26.6602 31.99C26.1302 35.56 28.6001 38.88 32.1901 39.42C35.5101 39.92 38.7402 37.7 39.4702 34.42C39.5302 34.13 39.5902 33.83 39.7802 33.58C40.1902 33.04 40.8901 32.84 41.5101 33.11C42.1401 33.38 42.4701 34.0499 42.3101 34.8099C41.8001 37.2099 40.5701 39.16 38.5701 40.58C32.9001 44.62 24.9801 41.3 23.8701 34.42C23.7801 33.94 23.7501 33.45 23.7601 32.95Z" fill="#596AFD"/>
<path d="M24.99 18.44C24.99 20.13 24.99 21.8201 24.99 23.5201C24.99 23.9501 24.85 24.3 24.55 24.61C22.87 26.31 21.19 28.02 19.5 29.72C18.69 30.53 17.38 30.2101 17.1 29.1501C16.96 28.6001 17.1 28.12 17.51 27.7C18.98 26.22 20.43 24.7301 21.9 23.2601C22.08 23.0701 22.17 22.89 22.16 22.62C22.15 19.51 22.15 16.4001 22.16 13.3001C22.16 12.2901 23.1 11.63 24.04 11.95C24.6 12.14 24.97 12.6501 24.97 13.2701C25 14.9901 24.99 16.71 24.99 18.44Z" fill="#596AFD"/>
<path d="M33.1002 36.1C32.4802 36.09 31.9202 35.9 31.4602 35.45C30.7402 34.75 30.0301 34.04 29.3301 33.33C28.7801 32.77 28.7901 31.92 29.3301 31.37C29.8801 30.81 30.7401 30.7699 31.3201 31.3199C31.8501 31.8199 32.3602 32.33 32.8602 32.86C33.0602 33.07 33.1701 33.07 33.3801 32.86C35.1401 31.09 36.9201 29.3299 38.6901 27.5699C39.0201 27.2499 39.3702 26.99 39.8602 26.99C40.4802 26.99 40.9202 27.27 41.1702 27.83C41.4202 28.39 41.3302 28.92 40.9102 29.37C40.4402 29.87 39.9401 30.35 39.4501 30.84C37.9401 32.34 36.4202 33.83 34.9102 35.33C34.4102 35.83 33.8302 36.1 33.1002 36.1Z" fill="#596AFD"/>
</svg>
