<svg width="70" height="70" viewBox="0 0 70 70" fill="none" xmlns="http://www.w3.org/2000/svg">
<path d="M35 5.83337V23.3334C35 26.555 37.6115 29.1667 40.8333 29.1667H58.3333V58.3334C58.3333 61.5551 55.7217 64.1667 52.5 64.1667H32.6386C35.9076 60.7603 37.9166 56.1357 37.9166 51.0417C37.9166 40.5712 29.4288 32.0834 18.9583 32.0834C16.3744 32.0834 13.9113 32.6002 11.6666 33.5365V11.6667C11.6666 8.44504 14.2783 5.83337 17.5 5.83337H35Z" fill="#212121"/>
<path d="M39.375 7.29163V23.3333C39.375 24.1387 40.028 24.7916 40.8333 24.7916H56.875L39.375 7.29163Z" fill="#212121"/>
<path d="M35 51.0417C35 59.9013 27.8179 67.0833 18.9583 67.0833C10.0987 67.0833 2.91663 59.9013 2.91663 51.0417C2.91663 42.182 10.0987 35 18.9583 35C27.8179 35 35 42.182 35 51.0417ZM28.7395 44.177C28.17 43.6077 27.2466 43.6077 26.6771 44.177L16.0416 54.8126L11.2395 50.0103C10.67 49.441 9.74661 49.441 9.1771 50.0103C8.60757 50.58 8.60757 51.5034 9.1771 52.073L15.0104 57.9063C15.5799 58.4757 16.5033 58.4757 17.0728 57.9063L28.7395 46.2397C29.309 45.67 29.309 44.7466 28.7395 44.177Z" fill="#212121"/>
</svg>
