<svg width="50" height="50" viewBox="0 0 50 50" fill="none" xmlns="http://www.w3.org/2000/svg">
<path d="M25 50.0001C38.8071 50.0001 50 38.8071 50 25C50 11.1929 38.8071 0 25 0C11.1929 0 0 11.1929 0 25C0 38.8071 11.1929 50.0001 25 50.0001Z" fill="#CEE36D"/>
<path d="M26.595 19.9918C26.595 20.9467 26.6153 21.9118 26.5848 22.8667C26.5746 23.3035 26.7067 23.466 27.1537 23.4355C28.9517 23.3136 30.5568 23.8419 31.9485 24.9898C33.8786 26.5847 34.7522 29.4392 34.031 31.8467C33.2488 34.4676 31.0647 36.3469 28.4844 36.6313C28.0374 36.6821 27.5905 36.733 27.1435 36.7025C26.6864 36.6619 26.5746 36.8651 26.5848 37.2918C26.6153 38.1248 26.595 38.9577 26.595 39.7806C26.5848 40.7761 25.9549 41.477 25.0508 41.5075C24.1467 41.5379 23.456 40.8674 23.4052 39.8718C23.3645 39.0896 23.395 38.3076 23.395 37.5254C23.395 36.7127 23.395 36.7228 22.5925 36.7025C20.1138 36.6416 18.1532 35.6358 16.8022 33.533C16.1419 32.4968 15.8168 31.349 15.8067 30.13C15.7965 29.2056 16.4161 28.525 17.3101 28.4538C18.1024 28.3827 18.8237 28.9923 18.9659 29.8659C19.0167 30.1605 18.9964 30.4753 19.0675 30.7699C19.4637 32.5679 21.211 33.7564 23.07 33.5025C23.4052 33.4618 23.3849 33.2487 23.3849 33.0252C23.3849 32.1312 23.3849 31.2373 23.3849 30.3433C23.3849 29.2564 23.3747 28.1694 23.395 27.0825C23.4052 26.6863 23.263 26.5339 22.8668 26.5644C21.1602 26.6761 19.6059 26.2292 18.2548 25.1625C16.152 23.5168 15.2378 20.7029 15.9692 18.1633C16.731 15.5221 18.9253 13.653 21.597 13.3584C22.0237 13.3076 22.4604 13.2669 22.8871 13.2974C23.2528 13.3177 23.4052 13.1856 23.395 12.7996C23.3747 11.9666 23.3848 11.1337 23.395 10.3108C23.4052 9.77242 23.5068 9.25431 23.9538 8.88861C24.4617 8.47211 25.0407 8.36037 25.6502 8.63465C26.2394 8.90892 26.5645 9.38638 26.5746 10.0365C26.5949 10.8695 26.5848 11.7025 26.5848 12.5253C26.5848 13.2872 26.5848 13.2872 27.3365 13.2872C28.9517 13.2973 30.4349 13.7341 31.6945 14.7703C33.2996 16.0909 34.1732 17.7874 34.1732 19.8902C34.1732 20.8349 33.5027 21.546 32.6189 21.546C31.7859 21.5562 31.1053 20.8857 31.0342 20.0019C30.8717 17.6959 29.2463 16.3043 26.9505 16.4871C26.6356 16.5176 26.5848 16.6599 26.5848 16.924C26.5949 17.95 26.595 18.9759 26.595 19.9918ZM26.595 30.0385C26.595 30.4245 26.595 30.8004 26.595 31.1864C26.595 31.5724 26.5848 31.9483 26.595 32.3343C26.6254 33.6753 26.3105 33.5535 27.8343 33.4925C30.0082 33.4214 31.5726 31.1967 30.9428 29.1142C30.3638 27.2044 28.7485 26.4628 26.8895 26.5746C26.5746 26.5949 26.6051 26.8183 26.6051 27.0215C26.595 28.0272 26.595 29.0328 26.595 30.0385ZM23.3849 19.9918C23.3849 19.2096 23.3951 18.4274 23.3849 17.6452C23.3646 16.3348 23.6287 16.4567 22.1659 16.5075C20.0935 16.5684 18.5393 18.6305 19.0066 20.6521C19.4129 22.4603 20.8656 23.4761 22.9278 23.4355C23.2935 23.4253 23.395 23.3035 23.395 22.9581C23.3747 21.9727 23.3849 20.9873 23.3849 19.9918Z" fill="#596AFD"/>
</svg>
