<svg width="50" height="50" viewBox="0 0 50 50" fill="none" xmlns="http://www.w3.org/2000/svg">
<path d="M24.61 49.22C38.2018 49.22 49.22 38.2017 49.22 24.61C49.22 11.0183 38.2018 0 24.61 0C11.0183 0 0 11.0183 0 24.61C0 38.2017 11.0183 49.22 24.61 49.22Z" fill="#CEE36D"/>
<path d="M3.3001 24.57C3.3001 23.53 3.2901 22.49 3.3001 21.45C3.3101 20.3 3.99007 19.61 5.15007 19.58C6.00007 19.56 6.84005 19.55 7.69005 19.58C8.17005 19.59 8.44009 19.44 8.60009 18.96C8.80009 18.34 9.06009 17.7401 9.35009 17.1601C9.53009 16.7901 9.48005 16.5501 9.19005 16.2701C8.58005 15.6901 7.98006 15.08 7.39006 14.48C6.46006 13.53 6.4501 12.62 7.3601 11.69C8.7801 10.24 10.2201 8.81006 11.6701 7.38006C12.6201 6.45006 13.5101 6.45005 14.4501 7.37005C15.0701 7.98005 15.6901 8.59002 16.2901 9.22002C16.5501 9.49002 16.78 9.53004 17.12 9.36004C17.64 9.10004 18.1701 8.84011 18.7201 8.68011C19.3601 8.50011 19.6301 8.19005 19.5801 7.50005C19.5201 6.76005 19.5501 6.00005 19.5701 5.25005C19.6101 3.95005 20.27 3.3001 21.56 3.3001C23.61 3.2901 25.6701 3.2901 27.7201 3.3001C28.9201 3.3101 29.5901 3.97 29.6301 5.19C29.6501 6.01 29.6601 6.84009 29.6301 7.66009C29.6101 8.19009 29.8001 8.47004 30.3001 8.61004C30.6501 8.71004 30.9801 8.85005 31.3201 9.00005C32.5901 9.55005 32.5901 9.55003 33.5401 8.60003C33.9901 8.16003 34.4201 7.70007 34.8801 7.27007C35.7001 6.51007 36.6001 6.48006 37.4001 7.26006C38.9401 8.76006 40.4601 10.28 41.9601 11.82C42.7301 12.61 42.7101 13.53 41.9501 14.34C41.3401 14.99 40.7 15.62 40.06 16.24C39.76 16.53 39.6701 16.7801 39.8801 17.1801C40.1801 17.7801 40.4301 18.4201 40.6601 19.0501C40.8001 19.4301 41.0101 19.58 41.4101 19.58C42.2601 19.57 43.1001 19.57 43.9501 19.58C45.2601 19.6 45.9201 20.2501 45.9201 21.5501C45.9301 23.6001 45.9301 25.66 45.9201 27.71C45.9101 28.92 45.2601 29.5901 44.0501 29.6401C43.1801 29.6701 42.3101 29.6601 41.4401 29.6501C41.0101 29.6401 40.7801 29.81 40.6501 30.22C40.4901 30.73 40.3401 31.26 40.0501 31.69C39.6101 32.37 39.7901 32.8101 40.3501 33.2801C40.9201 33.7701 41.4301 34.32 41.9401 34.87C42.7301 35.72 42.7501 36.61 41.9401 37.44C40.4601 38.96 38.95 40.47 37.43 41.95C36.62 42.74 35.6801 42.7101 34.8501 41.9301C34.2001 41.3201 33.5701 40.6801 32.9501 40.0301C32.6701 39.7401 32.43 39.7001 32.06 39.8801C31.48 40.1701 30.8701 40.4301 30.2601 40.6301C29.7701 40.7901 29.6301 41.0601 29.6501 41.5401C29.6701 42.3601 29.6701 43.1801 29.6501 44.0101C29.6101 45.2701 28.9401 45.9201 27.6901 45.9301C25.6401 45.9401 23.5801 45.9401 21.5301 45.9301C20.3201 45.9301 19.6401 45.28 19.5901 44.07C19.5601 43.2 19.5701 42.33 19.5801 41.46C19.5901 41.04 19.4301 40.8001 19.0201 40.6601C18.3801 40.4401 17.7501 40.1801 17.1501 39.8801C16.7701 39.6901 16.5301 39.78 16.2701 40.06C15.6701 40.69 15.05 41.3101 14.43 41.9101C13.54 42.7601 12.62 42.7701 11.75 41.9101C10.27 40.4501 8.80008 38.9801 7.34008 37.5001C6.48008 36.6301 6.5001 35.71 7.3601 34.82C7.9501 34.21 8.54008 33.6101 9.16008 33.0301C9.49008 32.7201 9.56008 32.4501 9.34008 32.0201C9.05008 31.4701 8.81005 30.8801 8.62005 30.2801C8.47005 29.8001 8.20008 29.6401 7.72008 29.6601C6.92008 29.6901 6.12007 29.6801 5.33007 29.6601C3.99007 29.6301 3.34007 28.9601 3.33007 27.6401C3.29007 26.6001 3.3001 25.58 3.3001 24.57ZM37.1301 32.56C37.1901 32.37 37.2301 32.07 37.3601 31.82C37.9301 30.75 38.36 29.63 38.74 28.48C39.02 27.65 39.6701 27.2801 40.5301 27.2601C41.3501 27.2401 42.17 27.2401 43 27.2601C43.4701 27.2701 43.6401 27.08 43.6301 26.62C43.6101 25.27 43.6101 23.91 43.6301 22.56C43.6301 22.12 43.4601 21.95 43.0301 21.96C42.2101 21.97 41.39 21.98 40.56 21.96C39.57 21.94 38.99 21.5 38.68 20.56C38.33 19.5 37.9201 18.47 37.4101 17.48C36.9701 16.63 37.0601 15.9901 37.7201 15.2901C38.3001 14.6701 38.9001 14.08 39.5101 13.49C39.8101 13.2 39.8701 12.9801 39.5401 12.6601C38.5301 11.6801 37.5401 10.69 36.5701 9.69C36.2701 9.38 36.05 9.35011 35.74 9.68011C35.18 10.2801 34.59 10.8601 34 11.4301C33.25 12.1501 32.5901 12.2701 31.7001 11.7901C30.7401 11.2701 29.7301 10.8801 28.6901 10.5401C27.7101 10.2101 27.2801 9.64003 27.2601 8.60003C27.2401 7.80003 27.2501 7.00001 27.2601 6.21001C27.2701 5.80001 27.14 5.58002 26.68 5.59002C25.3 5.61002 23.9201 5.61002 22.5501 5.59002C22.1101 5.58002 21.9501 5.77 21.9601 6.2C21.9701 6.97 21.9701 7.75007 21.9601 8.52007C21.9501 9.65007 21.5401 10.22 20.4801 10.57C19.4701 10.9 18.4901 11.3001 17.5401 11.8001C16.6401 12.2801 15.9701 12.17 15.2301 11.46C14.6201 10.87 14.0201 10.2701 13.4401 9.6701C13.1901 9.4101 12.9901 9.38008 12.7201 9.65008C11.7001 10.6801 10.6801 11.71 9.64006 12.73C9.37006 12.99 9.37006 13.19 9.64006 13.45C10.2501 14.04 10.8501 14.64 11.4401 15.24C12.1601 15.98 12.2701 16.6401 11.7901 17.5401C11.2801 18.5101 10.8801 19.5101 10.5401 20.5501C10.2201 21.5301 9.64009 21.95 8.60009 21.97C7.80009 21.99 7.00007 21.98 6.21007 21.97C5.80007 21.96 5.58008 22.0901 5.59008 22.5501C5.61008 23.9301 5.61008 25.3101 5.59008 26.6801C5.58008 27.1301 5.78006 27.2801 6.20006 27.2701C7.02006 27.2601 7.84009 27.2501 8.67009 27.2701C9.60009 27.2901 10.2301 27.7001 10.5001 28.5401C10.8601 29.6501 11.3001 30.7101 11.8301 31.7501C12.2901 32.6501 12.1601 33.27 11.4601 33.99C10.8701 34.6 10.2701 35.2001 9.67009 35.7801C9.41009 36.0301 9.37007 36.2301 9.65007 36.5001C10.6801 37.5201 11.7101 38.54 12.7301 39.58C13.0401 39.9 13.25 39.8001 13.5 39.5301C14.07 38.9401 14.65 38.3601 15.24 37.7901C15.98 37.0701 16.6301 36.9501 17.5401 37.4301C18.5101 37.9401 19.5101 38.3401 20.5501 38.6801C21.5401 39.0101 21.9601 39.58 21.9801 40.62C22.0001 41.42 22.0001 42.2201 21.9801 43.0101C21.9701 43.4801 22.1601 43.6501 22.6301 43.6401C23.9801 43.6201 25.3401 43.6201 26.6901 43.6401C27.1301 43.6401 27.3001 43.4701 27.2901 43.0401C27.2801 42.2201 27.2701 41.4 27.2901 40.57C27.3101 39.63 27.7201 39.01 28.5501 38.74C29.6801 38.37 30.7701 37.9401 31.8201 37.3801C32.5901 36.9701 33.3201 37.1 33.9401 37.72C34.5301 38.3 35.13 38.86 35.68 39.47C36.06 39.89 36.3101 39.83 36.6701 39.45C37.5901 38.49 38.53 37.5501 39.49 36.6301C39.84 36.2901 39.9001 36.05 39.5101 35.69C38.9201 35.15 38.38 34.5701 37.81 34.0001C37.41 33.6301 37.1801 33.19 37.1301 32.56ZM25.7701 21.4101C25.7701 22.1001 25.7801 22.79 25.7601 23.48C25.7501 23.79 25.8401 23.9101 26.1701 23.8901C27.4701 23.8101 28.62 24.1801 29.62 25.0101C31.01 26.1601 31.64 28.21 31.12 29.95C30.56 31.84 28.9801 33.1901 27.1301 33.3901C26.8101 33.4301 26.4901 33.47 26.1701 33.44C25.8401 33.41 25.7601 33.56 25.7701 33.86C25.7901 34.46 25.7801 35.0601 25.7701 35.6501C25.7601 36.3701 25.3101 36.8701 24.6601 36.9001C24.0101 36.9201 23.5101 36.44 23.4701 35.72C23.4401 35.16 23.4601 34.5901 23.4601 34.0301C23.4601 33.4501 23.4601 33.45 22.8801 33.44C21.1001 33.4 19.6901 32.6701 18.7101 31.1601C18.2301 30.4201 18 29.59 17.99 28.71C17.98 28.04 18.4301 27.5601 19.0701 27.5001C19.6401 27.4501 20.1601 27.8901 20.2701 28.5201C20.3101 28.7301 20.3001 28.9601 20.3401 29.1701C20.6201 30.4701 21.8801 31.3201 23.2201 31.1401C23.4601 31.1101 23.4501 30.9601 23.4501 30.7901C23.4501 30.1501 23.4501 29.5 23.4501 28.86C23.4501 28.08 23.4401 27.3001 23.4501 26.5101C23.4501 26.2301 23.3601 26.1201 23.0701 26.1401C21.8401 26.2201 20.73 25.9001 19.75 25.1301C18.24 23.9501 17.5801 21.92 18.1001 20.09C18.6501 18.19 20.2301 16.8401 22.1501 16.6301C22.4601 16.6001 22.7701 16.57 23.0801 16.58C23.3501 16.59 23.4501 16.5 23.4501 16.22C23.4401 15.62 23.4401 15.0201 23.4501 14.4301C23.4501 14.0401 23.5301 13.6701 23.8501 13.4101C24.2201 13.1101 24.6301 13.03 25.0701 13.23C25.4901 13.42 25.73 13.77 25.74 14.24C25.76 14.84 25.75 15.4401 25.75 16.0301C25.75 16.5801 25.7501 16.58 26.2901 16.58C27.4501 16.58 28.52 16.9001 29.43 17.6501C30.59 18.6001 31.2101 19.82 31.2101 21.34C31.2101 22.02 30.7301 22.5301 30.0901 22.5301C29.4901 22.5401 29.0001 22.0501 28.9501 21.4201C28.8301 19.7601 27.6601 18.7501 26.0101 18.8901C25.7901 18.9101 25.75 19.02 25.75 19.2C25.7701 19.94 25.7701 20.6701 25.7701 21.4101ZM25.7701 28.6401C25.7701 28.9201 25.7701 29.19 25.7701 29.47C25.7701 29.75 25.7601 30.0201 25.7701 30.3001C25.7901 31.2701 25.5701 31.1701 26.6601 31.1401C28.2301 31.0901 29.3501 29.49 28.9001 27.99C28.4801 26.61 27.3201 26.0801 25.9801 26.1601C25.7501 26.1701 25.7801 26.33 25.7701 26.48C25.7701 27.19 25.7701 27.9101 25.7701 28.6401ZM23.4601 21.4101C23.4601 20.8501 23.4701 20.29 23.4601 19.72C23.4401 18.78 23.6401 18.8701 22.5801 18.9001C21.0901 18.9501 19.9701 20.4301 20.3001 21.8801C20.6001 23.1801 21.64 23.9101 23.12 23.8801C23.38 23.8701 23.4601 23.7801 23.4601 23.5301C23.4501 22.8301 23.4601 22.1201 23.4601 21.4101Z" fill="#596AFD"/>
</svg>
