<svg width="50" height="50" viewBox="0 0 50 50" fill="none" xmlns="http://www.w3.org/2000/svg">
<path d="M24.61 49.22C38.2017 49.22 49.22 38.2017 49.22 24.61C49.22 11.0183 38.2017 0 24.61 0C11.0183 0 0 11.0183 0 24.61C0 38.2017 11.0183 49.22 24.61 49.22Z" fill="#596AFD"/>
<path d="M7.16997 31.75C7.16997 30.5 7.15997 29.26 7.16997 28.01C7.18997 25.65 9.25004 23.5799 11.61 23.5599C12.47 23.5599 13.33 23.47 14.19 23.62C15.62 23.86 16.69 24.64 17.42 25.88C17.57 26.14 17.65 26.1201 17.85 25.9301C19.47 24.3701 21.4 23.5399 23.67 23.5599C24.67 23.5699 25.66 23.49 26.66 23.62C28.47 23.87 30.03 24.63 31.33 25.91C31.53 26.11 31.61 26.14 31.78 25.86C32.69 24.37 34.02 23.5499 35.79 23.5599C36.7 23.5599 37.62 23.4601 38.53 23.6801C40.57 24.1901 42.0199 26.02 42.0199 28.12C42.0199 30.57 42.0199 33.01 42.0199 35.46C42.0199 36.74 41.14 37.61 39.86 37.61C37.98 37.61 36.1 37.62 34.22 37.61C33.94 37.61 33.8 37.67 33.73 37.97C33.43 39.12 32.54 39.79 31.34 39.79C26.84 39.79 22.34 39.79 17.85 39.79C16.66 39.79 15.77 39.12 15.46 37.96C15.39 37.69 15.2701 37.61 15.0001 37.61C13.0901 37.62 11.1699 37.62 9.25994 37.62C8.01994 37.62 7.17997 36.77 7.16997 35.53C7.16997 35.51 7.16997 35.48 7.16997 35.46C7.16997 34.22 7.16997 32.99 7.16997 31.75ZM24.59 37.71C26.78 37.71 28.96 37.71 31.15 37.71C31.57 37.71 31.72 37.61 31.72 37.26C31.7 35.29 31.79 33.32 31.68 31.35C31.53 28.72 29.52 26.41 26.98 25.85C25.55 25.54 24.08 25.53 22.66 25.78C19.56 26.32 17.5199 28.83 17.5099 31.99C17.4999 33.69 17.5099 35.39 17.5099 37.09C17.5099 37.63 17.6 37.71 18.15 37.71C20.28 37.71 22.43 37.71 24.59 37.71ZM9.25994 31.71C9.25994 32.87 9.26994 34.0201 9.25994 35.1801C9.25994 35.4401 9.33003 35.54 9.60003 35.54C11.41 35.53 13.23 35.53 15.04 35.54C15.33 35.54 15.41 35.4401 15.4 35.1701C15.34 33.9601 15.34 32.75 15.4 31.54C15.44 30.73 15.57 29.9501 15.82 29.1801C16.26 27.8201 15.6 26.1701 14.1 25.8001C13.12 25.5601 12.1099 25.5601 11.1399 25.8001C9.96994 26.0801 9.27995 27.07 9.26995 28.36C9.25995 29.47 9.26994 30.59 9.25994 31.71ZM39.95 31.72C39.95 30.62 39.95 29.5201 39.95 28.4201C39.95 28.4001 39.95 28.37 39.95 28.35C39.93 26.86 39.09 25.9 37.62 25.69C37.02 25.61 36.42 25.64 35.82 25.66C33.8 25.74 32.87 27.6 33.42 29.25C33.67 30 33.78 30.7601 33.81 31.5501C33.86 32.7601 33.86 33.9701 33.8 35.1801C33.79 35.4501 33.88 35.53 34.15 35.53C35.95 35.52 37.75 35.52 39.55 35.53C39.88 35.53 39.95 35.41 39.95 35.11C39.94 33.98 39.95 32.85 39.95 31.72Z" fill="#CEE36D"/>
<path d="M24.6 21.3C21.3 21.3 18.6899 18.6599 18.6599 15.3599C18.6299 12.0999 21.39 9.36998 24.63 9.40998C27.92 9.44998 30.5499 12.0599 30.5499 15.3699C30.5399 18.6799 27.91 21.3 24.6 21.3ZM28.4499 15.3599C28.3699 13.2199 26.79 11.54 24.61 11.54C22.47 11.53 20.7899 13.1999 20.7799 15.3599C20.7699 17.5199 22.45 19.2199 24.62 19.1999C26.81 19.1799 28.3799 17.4899 28.4499 15.3599Z" fill="#CEE36D"/>
<path d="M16.4 17.56C16.4 19.66 14.7301 21.31 12.6101 21.31C10.5101 21.31 8.87012 19.6401 8.87012 17.5101C8.88012 15.4101 10.5501 13.7701 12.6801 13.7801C14.7601 13.7801 16.41 15.45 16.4 17.56ZM14.3 17.5501C14.32 16.6601 13.54 15.87 12.64 15.87C11.75 15.87 11.0001 16.6201 10.9801 17.5201C10.9601 18.4201 11.74 19.2 12.64 19.2C13.53 19.2 14.28 18.4601 14.3 17.5501Z" fill="#CEE36D"/>
<path d="M36.5898 13.77C38.6898 13.77 40.3398 15.4399 40.3298 17.5599C40.3298 19.6599 38.6498 21.3 36.5298 21.29C34.4298 21.28 32.7998 19.61 32.7998 17.48C32.8198 15.41 34.4898 13.77 36.5898 13.77ZM38.2299 17.55C38.2499 16.66 37.4698 15.87 36.5698 15.87C35.6798 15.87 34.9298 16.62 34.9098 17.52C34.8898 18.41 35.6598 19.2 36.5698 19.2C37.4698 19.2 38.2199 18.46 38.2299 17.55Z" fill="#CEE36D"/>
</svg>
