<svg width="62" height="50" viewBox="0 0 62 50" fill="none" xmlns="http://www.w3.org/2000/svg">
<path d="M54.7292 0C58.5605 0 61.6667 3.10603 61.6667 6.9375V42.41C61.6667 46.2414 58.5605 49.3475 54.7292 49.3475H6.9375C3.10603 49.3475 0 46.2414 0 42.41V6.9375C0 3.10603 3.10603 0 6.9375 0H54.7292ZM23.8958 26.2083H13.1042C11.9334 26.2083 10.9659 27.0785 10.8128 28.207L10.7917 28.5208V30.0372L10.8159 30.3711C11.3173 33.8047 14.1899 35.4611 18.4998 35.4611C22.6043 35.4611 25.4051 33.9601 26.0964 30.8531L26.184 30.3748L26.2083 30.04V28.5208C26.2083 27.3501 25.3382 26.3825 24.2096 26.2293L23.8958 26.2083ZM48.5625 27.738H34.6946L34.3807 27.7593C33.2519 27.9122 32.3821 28.8797 32.3821 30.0505C32.3821 31.2212 33.2519 32.1888 34.3807 32.342L34.6946 32.363H48.5625L48.8764 32.342C50.0049 32.1888 50.875 31.2212 50.875 30.0505C50.875 28.8797 50.0049 27.9122 48.8764 27.7593L48.5625 27.738ZM18.5 13.8817C15.9457 13.8817 13.8751 15.9524 13.8751 18.5068C13.8751 21.061 15.9457 23.1315 18.5 23.1315C21.0543 23.1315 23.1249 21.061 23.1249 18.5068C23.1249 15.9524 21.0543 13.8817 18.5 13.8817ZM48.5625 16.9583H34.6946L34.3807 16.9795C33.2519 17.1326 32.3821 18.1001 32.3821 19.2708C32.3821 20.4416 33.2519 21.4091 34.3807 21.5624L34.6946 21.5833H48.5625L48.8764 21.5624C50.0049 21.4091 50.875 20.4416 50.875 19.2708C50.875 18.1001 50.0049 17.1326 48.8764 16.9795L48.5625 16.9583Z" fill="#212121"/>
</svg>
