<svg width="51" height="50" viewBox="0 0 51 50" fill="none" xmlns="http://www.w3.org/2000/svg">
<path d="M25.8099 50C39.6171 50 50.8099 38.8071 50.8099 25C50.8099 11.1929 39.6171 0 25.8099 0C12.0028 0 0.809937 11.1929 0.809937 25C0.809937 38.8071 12.0028 50 25.8099 50Z" fill="#CEE36D"/>
<path d="M42.2565 12.4136C41.9924 12.119 41.6165 11.926 41.1899 11.926H33.5507C32.7583 11.926 32.1184 12.566 32.1184 13.3584C32.1184 14.1508 32.7583 14.7908 33.5507 14.7908H38.0204L27.7401 25.0712L24.8449 22.1759C24.5909 21.9219 24.276 21.79 23.9408 21.7595C23.5141 21.7087 23.0773 21.8407 22.7522 22.1657L9.3024 35.6157C8.74368 36.1744 8.74368 37.0785 9.3024 37.6474C9.58684 37.9318 9.95254 38.0638 10.3182 38.0638C10.684 38.0638 11.0497 37.9216 11.3341 37.6474L23.7986 25.1829L26.7344 28.1187C27.0188 28.4031 27.3845 28.5351 27.7502 28.5351C28.1159 28.5351 28.4816 28.393 28.7661 28.1187C28.7762 28.1085 28.7864 28.0984 28.7965 28.0882C28.8067 28.078 28.8169 28.0679 28.827 28.0679L39.8896 17.0053V21.1398C39.8896 21.9322 40.5296 22.5721 41.3219 22.5721C42.1143 22.5721 42.7543 21.9322 42.7543 21.1398V13.5006C42.7441 13.0638 42.5511 12.6777 42.2565 12.4136Z" fill="#596AFD"/>
</svg>
