<svg width="70" height="70" viewBox="0 0 70 70" fill="none" xmlns="http://www.w3.org/2000/svg">
<path d="M63.3138 9.60426C62.1748 8.46525 60.328 8.46525 59.189 9.60426L55.418 13.3752L54.5638 12.5209C53.4248 11.3819 51.578 11.3819 50.439 12.5209C49.3 13.66 49.3 15.5067 50.439 16.6457L53.3557 19.5624C54.4946 20.7014 56.3415 20.7014 57.4804 19.5624L63.3138 13.7291C64.4527 12.59 64.4527 10.7433 63.3138 9.60426ZM8.74992 49.5638H40.8446C42.4555 49.5638 43.7613 50.8696 43.7613 52.4805C43.7613 53.9761 42.6355 55.209 41.1847 55.3776L40.8446 55.3971H8.74992C7.1391 55.3971 5.83325 54.0913 5.83325 52.4805C5.83325 50.9848 6.9592 49.7519 8.40978 49.5833L8.74992 49.5638ZM8.74992 32.0833H40.8446C42.4555 32.0833 43.7613 33.3891 43.7613 35C43.7613 36.4957 42.6355 37.7285 41.1847 37.8971L40.8446 37.9167H8.74992C7.1391 37.9167 5.83325 36.6109 5.83325 35C5.83325 33.5043 6.9592 32.2715 8.40978 32.1029L8.74992 32.0833ZM8.74992 14.5834H40.8446C42.4555 14.5834 43.7613 15.8893 43.7613 17.5001C43.7613 18.9959 42.6355 20.2287 41.1847 20.3972L40.8446 20.4168H8.74992C7.1391 20.4168 5.83325 19.1109 5.83325 17.5001C5.83325 16.0043 6.9592 14.7715 8.40978 14.6031L8.74992 14.5834ZM59.189 47.521C60.328 46.382 62.1748 46.382 63.3138 47.521C64.4527 48.6599 64.4527 50.5067 63.3138 51.6457L57.4804 57.479C56.3415 58.618 54.4946 58.618 53.3557 57.479L50.439 54.5624C49.3 53.4234 49.3 51.5766 50.439 50.4376C51.578 49.2987 53.4248 49.2987 54.5638 50.4376L55.418 51.2919L59.189 47.521Z" fill="#212121"/>
</svg>
