<svg width="70" height="70" viewBox="0 0 70 70" fill="none" xmlns="http://www.w3.org/2000/svg">
<path d="M40.6585 14.583L55.4197 29.3443L26.4334 58.3304C25.6259 59.1377 24.6215 59.7208 23.5197 60.0212L8.59898 64.0905C6.966 64.5359 5.46762 63.0373 5.913 61.4046L9.98227 46.4838C10.2828 45.3819 10.8656 44.3777 11.6732 43.57L40.6585 14.583ZM19.0338 32.083L14.6588 36.458L8.02341 36.4592C6.81527 36.4592 5.83591 35.4798 5.83591 34.2717C5.83591 33.0636 6.81527 32.0842 8.02341 32.0842L19.0338 32.083ZM60.8949 8.24131L61.3412 8.66241L61.762 9.10858C65.4117 13.2072 65.2714 19.4923 61.3412 23.4227L58.5114 26.2496L43.7502 11.4913L46.5808 8.66241C50.5113 4.73206 56.7964 4.59168 60.8949 8.24131ZM30.7004 20.4163L26.3255 24.7913L8.02341 24.7925C6.81527 24.7925 5.83591 23.8132 5.83591 22.605C5.83591 21.3969 6.81527 20.4175 8.02341 20.4175L30.7004 20.4163ZM42.3671 8.74965L37.9921 13.1246L8.02341 13.1259C6.81527 13.1259 5.83591 12.1465 5.83591 10.9384C5.83591 9.73026 6.81527 8.75088 8.02341 8.75088L42.3671 8.74965Z" fill="#212121"/>
</svg>
