<svg width="50" height="50" viewBox="0 0 50 50" fill="none" xmlns="http://www.w3.org/2000/svg">
<path d="M25.2799 49.2898C38.8716 49.2898 49.8899 38.2715 49.8899 24.6798C49.8899 11.0881 38.8716 0.0698242 25.2799 0.0698242C11.6882 0.0698242 0.669922 11.0881 0.669922 24.6798C0.669922 38.2715 11.6882 49.2898 25.2799 49.2898Z" fill="#CEE36D"/>
<path d="M37.7699 13.3899C37.7699 12.4399 37.7699 11.5098 37.7699 10.5898C37.7699 10.1898 37.7499 9.77985 37.8099 9.37985C37.9299 8.58985 38.5199 8.08983 39.3199 8.10983C40.0599 8.12983 40.6599 8.71985 40.6899 9.49985C40.7099 9.99985 40.6999 10.4898 40.6999 10.9898C40.6999 13.0698 40.6999 15.1498 40.6999 17.2298C40.6999 18.3798 40.1299 18.9598 38.9699 18.9598C36.4899 18.9698 33.9999 18.9598 31.5199 18.9598C30.5499 18.9598 29.8899 18.3998 29.8499 17.5698C29.8099 16.7198 30.4699 16.0399 31.3699 16.0299C32.7899 16.0199 34.2099 16.0299 35.6299 16.0299C35.7499 16.0299 35.8699 16.0299 36.0599 16.0299C35.3899 15.1899 34.6599 14.5199 33.8699 13.9199C31.7799 12.3099 29.4099 11.3298 26.7799 11.0998C21.5799 10.6498 17.3199 12.4998 14.0699 16.5898C12.4399 18.6498 11.4799 21.0199 11.2399 23.6299C10.7999 28.4699 12.4199 32.5297 16.0499 35.7697C18.2499 37.7297 20.8599 38.8899 23.7999 39.1499C29.0099 39.6099 33.2599 37.7399 36.4999 33.6399C38.1199 31.5899 39.0199 29.2199 39.3199 26.6299C39.3799 26.1499 39.3899 25.6598 39.3999 25.1798C39.4299 24.3298 40.0399 23.6699 40.8399 23.6599C41.6599 23.6499 42.2999 24.3198 42.2899 25.1898C42.2299 30.3298 40.2399 34.5997 36.3899 37.9997C33.9299 40.1697 31.0399 41.5099 27.7899 41.9599C22.7099 42.6599 18.1599 41.3898 14.2399 38.0598C11.2699 35.5498 9.38994 32.3598 8.60994 28.5498C7.86994 24.9598 8.24992 21.4699 9.76992 18.1299C11.4399 14.4599 14.0899 11.7199 17.6799 9.89987C19.5799 8.92987 21.6099 8.35978 23.7399 8.17978C28.2099 7.80978 32.2199 8.97981 35.7799 11.7098C36.3599 12.1498 36.8999 12.6399 37.4099 13.1599C37.4999 13.2399 37.5699 13.3599 37.7699 13.3899Z" fill="#596AFD"/>
</svg>
