<svg width="50" height="50" viewBox="0 0 50 50" fill="none" xmlns="http://www.w3.org/2000/svg">
<path d="M25 50.0001C38.8071 50.0001 50 38.8073 50 25.0001C50 11.193 38.8071 0 25 0C11.1929 0 0 11.193 0 25.0001C0 38.8073 11.1929 50.0001 25 50.0001Z" fill="#CEE36D"/>
<path d="M19.037 39.5267C20.4389 38.6835 21.8611 37.881 23.2426 36.9871C24.167 36.3877 25.1423 36.1744 26.2394 36.1033C30.9732 35.7782 34.9757 33.9293 37.9115 30.0996C41.9139 24.8781 40.959 17.8587 35.7071 13.4398C29.2768 8.02532 18.976 8.53323 13.1349 14.5674C8.5128 19.3419 8.49251 26.4832 13.0943 31.278C13.4092 31.6132 13.7546 31.918 14.0695 32.2532C14.7095 32.9338 14.7501 33.6552 14.2015 34.2545C13.6835 34.8234 12.8606 34.8538 12.1902 34.2849C10.189 32.5579 8.67537 30.4857 7.77126 27.9968C5.31291 21.2922 7.98455 13.9781 14.3336 9.96554C21.8814 5.20122 31.6233 6.02403 38.2771 11.9769C44.3925 17.4625 44.7989 26.9302 39.1813 32.9644C35.6461 36.7636 31.2069 38.6023 26.1073 38.9681C25.5994 39.0087 25.1625 39.1305 24.7359 39.3946C22.9886 40.4613 21.2312 41.4974 19.484 42.5437C18.2141 43.2955 17.4015 43.2956 16.4669 42.5337C15.5933 41.8328 15.4104 40.9794 15.8472 39.6486C16.2332 38.5007 16.6091 37.3528 17.0155 36.215C17.371 35.2093 18.1024 34.8132 18.9354 35.1281C19.7075 35.4126 19.9817 36.1744 19.6566 37.1496C19.4027 37.9014 19.1386 38.6531 18.8846 39.415C18.9151 39.4556 18.976 39.4962 19.037 39.5267Z" fill="#596AFD"/>
<path d="M22.8362 16.1317C22.8159 15.4104 22.9988 14.7603 23.5067 14.2422C24.1162 13.6226 24.8476 13.4195 25.6806 13.7039C26.4932 13.9782 26.9402 14.5673 27.1028 15.4105C27.2044 15.9692 27.1129 16.5178 27.0824 17.0663C26.9504 19.4942 26.7878 21.9119 26.6355 24.3398C26.6151 24.6649 26.6355 25.0001 26.6152 25.3353C26.5847 26.2699 25.9142 26.9505 25.0101 26.9505C24.106 26.9607 23.4457 26.2902 23.3949 25.3455C23.2425 22.5621 23.08 19.7787 22.9073 17.0054C22.9073 16.7108 22.8667 16.4263 22.8362 16.1317Z" fill="#596AFD"/>
<path d="M25.0204 28.3118C26.1988 28.3118 27.1029 29.226 27.1131 30.4349C27.1232 31.6031 26.1582 32.5783 25.0102 32.5681C23.8725 32.558 22.8668 31.5421 22.8871 30.4247C22.9074 29.2565 23.8522 28.3118 25.0204 28.3118Z" fill="#596AFD"/>
</svg>
