<svg width="350" height="43" viewBox="0 0 350 43" fill="none" xmlns="http://www.w3.org/2000/svg">
<path d="M349.83 38.5537C349.56 38.5337 349.29 38.5137 349.02 38.5137C339.84 38.5137 330.67 38.5037 321.49 38.5237C320.84 38.5237 320.72 38.3337 320.72 37.7337C320.74 28.7037 320.74 19.6737 320.72 10.6437C320.72 10.0237 320.88 9.86371 321.5 9.86371C330.61 9.88371 339.72 9.88371 348.82 9.86371C349.44 9.86371 349.58 10.0337 349.56 10.6237C349.51 11.9637 349.51 13.3037 349.56 14.6437C349.58 15.2437 349.44 15.4337 348.79 15.4337C342.1 15.4037 335.4 15.4237 328.71 15.4037C328.01 15.4037 327.79 15.5637 327.82 16.2837C327.88 17.5737 327.87 18.8737 327.83 20.1637C327.81 20.7037 327.97 20.8437 328.51 20.8437C332.54 20.8237 336.57 20.8437 340.6 20.8137C341.22 20.8137 341.36 20.9837 341.34 21.5737C341.29 22.9137 341.3 24.2537 341.34 25.5937C341.36 26.1737 341.23 26.3537 340.61 26.3537C336.6 26.3237 332.59 26.3437 328.59 26.3237C328.02 26.3237 327.8 26.4037 327.83 27.0437C327.88 28.6937 327.88 30.3537 327.83 32.0137C327.81 32.6537 328.02 32.7437 328.59 32.7337C335.67 32.7137 342.75 32.7237 349.84 32.7237C349.83 34.6437 349.83 36.6037 349.83 38.5537Z" fill="#C8E357"/>
<path d="M36.7496 42.6337C36.5996 39.6937 36.4496 36.7437 36.2896 33.8037C36.0896 30.1137 35.8696 26.4237 35.6596 22.7337C35.6096 21.9437 35.5696 21.1437 35.5196 20.3537C35.4996 20.0537 35.5496 19.9137 35.9196 19.9437C41.1996 20.3937 46.3896 21.2437 51.3496 23.1737C53.8196 24.1337 56.1797 25.3037 58.0797 27.2037C60.6897 29.8137 60.6996 32.8737 58.0996 35.4737C55.9296 37.6537 53.1996 38.8937 50.3596 39.9137C46.5496 41.2837 42.6096 42.0237 38.5996 42.5037C38.4296 42.5237 38.2296 42.4337 38.1096 42.6437C37.6696 42.6337 37.2096 42.6337 36.7496 42.6337Z" fill="#C8E357"/>
<path d="M34.5797 3.26369C33.7797 5.71369 33.0297 7.9937 32.2797 10.2737C31.3997 12.9837 30.4997 15.6937 29.6497 18.4137C29.4697 18.9837 29.2496 19.1737 28.6196 19.1037C23.5196 18.5637 18.4797 17.7237 13.6897 15.8137C12.0797 15.1737 10.5396 14.3937 9.2096 13.2537C8.9196 13.0037 8.62965 12.7337 8.37965 12.4437C6.81965 10.6537 6.83971 8.7737 8.43971 7.0237C9.81971 5.5137 11.5996 4.5937 13.4596 3.8237C17.2396 2.2437 21.2096 1.4037 25.2496 0.833696C31.0596 0.00369561 36.8997 -0.186308 42.7597 0.173692C48.6797 0.543692 54.5196 1.3537 60.1297 3.4137C62.0396 4.1137 63.8597 4.96369 65.4497 6.26369C65.8697 6.61369 66.2596 6.9937 66.5896 7.4337C67.7496 8.9637 67.7497 10.5337 66.5797 12.0537C65.6697 13.2337 64.4697 14.0337 63.1697 14.7237C60.0497 16.3737 56.6796 17.2937 53.2396 17.9837C47.5896 19.1237 41.8796 19.4737 36.1296 19.4737C35.6296 19.4737 35.5497 19.2837 35.5297 18.8437C35.2597 13.7437 34.9697 8.6537 34.6797 3.5537C34.6597 3.5237 34.6397 3.49369 34.5797 3.26369Z" fill="#C8E357"/>
<path d="M109.08 23.7237C111.8 24.5237 113.04 26.1537 113.03 28.8137C113.02 30.3737 113.1 31.9437 112.9 33.5037C112.64 35.4937 111.55 36.8237 109.73 37.5937C108.29 38.2037 106.75 38.4037 105.19 38.4137C97.5897 38.4337 89.9796 38.4237 82.3796 38.4437C81.8796 38.4437 81.7897 38.2737 81.7897 37.8237C81.7997 28.6837 81.7997 19.5337 81.7897 10.3937C81.7897 9.89372 81.9497 9.81372 82.4097 9.81372C90.3997 9.82372 98.3896 9.82373 106.38 9.82373C107.32 9.82373 108.24 9.94372 109.13 10.2337C111.36 10.9537 112.61 12.5137 112.7 14.8537C112.77 16.5537 112.76 18.2537 112.72 19.9537C112.67 21.6537 111.39 23.1337 109.7 23.5637C109.56 23.6037 109.41 23.6437 109.08 23.7237ZM97.0996 32.7337C99.5996 32.7337 102.1 32.7437 104.61 32.7337C105.76 32.7237 106.32 32.1537 106.33 31.0037C106.34 30.0537 106.34 29.1037 106.33 28.1437C106.31 27.0537 105.69 26.3837 104.6 26.3837C99.5496 26.3637 94.4997 26.3837 89.4497 26.3637C89.0497 26.3637 88.9596 26.5037 88.9596 26.8737C88.9796 28.6437 88.9796 30.4137 88.9596 32.1737C88.9496 32.6237 89.0897 32.7437 89.5397 32.7337C92.0497 32.7237 94.5796 32.7337 97.0996 32.7337ZM96.8097 21.0937C99.1297 21.0937 101.46 21.0937 103.78 21.0937C104.29 21.0937 104.78 21.0237 105.25 20.8237C105.9 20.5537 106.27 20.1237 106.23 19.3637C106.19 18.5237 106.22 17.6837 106.22 16.8437C106.21 15.8837 105.94 15.5137 105 15.2137C104.61 15.0837 104.2 15.0337 103.79 15.0337C99.0297 15.0337 94.2696 15.0337 89.5096 15.0237C89.0396 15.0237 88.9497 15.1837 88.9497 15.6137C88.9697 17.2437 88.9797 18.8837 88.9497 20.5137C88.9397 21.0137 89.1097 21.1137 89.5697 21.1037C91.9897 21.0837 94.3997 21.0937 96.8097 21.0937Z" fill="#C8E357"/>
<path d="M219.87 38.5037C216.3 38.5037 212.72 38.5137 209.15 38.5037C207.94 38.5037 206.75 38.4037 205.58 38.0137C203.66 37.3837 202.65 36.0337 202.39 34.0837C202.31 33.4537 202.25 32.8137 202.25 32.1837C202.24 26.8537 202.24 21.5237 202.24 16.1837C202.24 15.3837 202.33 14.6037 202.47 13.8237C202.83 11.8637 204.04 10.7237 205.93 10.2237C206.93 9.96371 207.94 9.86371 208.97 9.86371C216.21 9.86371 223.45 9.86371 230.69 9.86371C231.74 9.86371 232.78 9.94371 233.8 10.2137C235.74 10.7337 236.87 11.9737 237.2 13.9437C237.29 14.4837 237.37 15.0237 237.37 15.5637C237.38 21.3937 237.38 27.2237 237.36 33.0537C237.36 33.5737 237.28 34.0937 237.18 34.6037C236.74 36.7837 235.22 37.8137 233.17 38.2537C232.28 38.4437 231.37 38.4837 230.45 38.4937C226.93 38.5137 223.4 38.5037 219.87 38.5037ZM219.83 15.6437C216.55 15.6437 213.27 15.6537 209.99 15.6337C209.47 15.6337 209.35 15.7737 209.35 16.2837C209.37 21.5737 209.37 26.8637 209.35 32.1437C209.35 32.6137 209.47 32.7537 209.95 32.7537C216.53 32.7337 223.11 32.7337 229.7 32.7537C230.19 32.7537 230.3 32.6137 230.3 32.1437C230.28 26.8537 230.28 21.5637 230.3 16.2837C230.3 15.7837 230.19 15.6337 229.66 15.6337C226.39 15.6537 223.11 15.6437 219.83 15.6437Z" fill="#C8E357"/>
<path d="M267.39 27.9337C271.73 31.4937 275.92 34.9337 280.13 38.3837C279.91 38.5937 279.7 38.5137 279.51 38.5137C276.62 38.5237 273.73 38.5137 270.84 38.5237C270.4 38.5237 270.08 38.4137 269.75 38.1137C266.19 34.8637 262.61 31.6337 259.05 28.3937C258.69 28.0637 258.33 27.9237 257.84 27.9337C256.38 27.9637 254.93 27.9637 253.47 27.9337C252.99 27.9237 252.87 28.0637 252.87 28.5437C252.89 31.6337 252.86 34.7137 252.9 37.8037C252.91 38.4237 252.73 38.5537 252.14 38.5437C250.21 38.5037 248.27 38.5137 246.33 38.5337C245.88 38.5337 245.75 38.4137 245.75 37.9637C245.76 28.7737 245.76 19.5837 245.75 10.3937C245.75 9.95372 245.87 9.82373 246.32 9.82373C254.65 9.83373 262.99 9.82372 271.32 9.84372C274.51 9.85372 276.86 12.2337 276.89 15.4137C276.91 17.7237 276.91 20.0437 276.89 22.3537C276.86 25.5737 274.48 27.9237 271.26 27.9437C270.02 27.9337 268.8 27.9337 267.39 27.9337ZM260.86 15.3437C258.4 15.3437 255.94 15.3637 253.49 15.3337C252.97 15.3237 252.84 15.4837 252.85 15.9837C252.88 17.9337 252.88 19.8837 252.85 21.8337C252.84 22.3237 252.94 22.4937 253.48 22.4837C258.39 22.4637 263.31 22.4737 268.23 22.4737C269.36 22.4737 269.84 21.9937 269.85 20.8537C269.86 19.6037 269.86 18.3637 269.85 17.1137C269.85 15.7737 269.43 15.3537 268.11 15.3537C265.69 15.3437 263.28 15.3437 260.86 15.3437Z" fill="#C8E357"/>
<path d="M166.81 19.6937C166.94 22.4937 167.01 25.1237 166.99 27.7537C166.97 31.1137 166.98 34.4737 166.99 37.8337C166.99 38.3337 166.91 38.5437 166.33 38.5237C164.55 38.4837 162.78 38.4937 161 38.5137C160.56 38.5237 160.42 38.4037 160.42 37.9437C160.43 28.7737 160.43 19.6037 160.42 10.4337C160.42 9.99369 160.53 9.84369 160.99 9.85369C162.29 9.88369 163.59 9.87369 164.88 9.85369C165.26 9.84369 165.52 10.0137 165.79 10.2337C171.33 14.8837 176.87 19.5237 182.41 24.1637C184.15 25.6237 185.89 27.0837 187.7 28.5937C187.81 27.8637 187.74 27.2037 187.71 26.5437C187.49 21.1437 187.67 15.7437 187.6 10.3437C187.59 9.94368 187.73 9.84369 188.11 9.85369C189.95 9.87369 191.8 9.87369 193.64 9.85369C194.08 9.84369 194.16 10.0237 194.16 10.4137C194.15 19.5837 194.15 28.7537 194.16 37.9237C194.16 38.4237 193.99 38.5237 193.53 38.5137C192.3 38.4837 191.07 38.4837 189.84 38.5137C189.35 38.5237 188.99 38.3837 188.61 38.0737C181.72 32.2537 174.81 26.4437 167.91 20.6237C167.6 20.3537 167.27 20.0837 166.81 19.6937Z" fill="#C8E357"/>
<path d="M151.98 38.5037C150.86 38.5037 149.75 38.4837 148.63 38.5137C148.17 38.5237 147.9 38.4037 147.68 37.9637C146.78 36.2137 145.82 34.4837 144.91 32.7337C144.73 32.3837 144.52 32.2737 144.13 32.2737C138.73 32.2837 133.34 32.2837 127.94 32.2737C127.5 32.2737 127.3 32.4337 127.11 32.7837C126.2 34.5037 125.25 36.2137 124.33 37.9337C124.12 38.3337 123.89 38.5237 123.39 38.5137C121.41 38.4837 119.43 38.5037 117.45 38.5037C116.73 38.5037 116.72 38.4937 117.07 37.8737C121.07 30.8137 125.07 23.7437 129.07 16.6837C130.27 14.5737 131.47 12.4637 132.65 10.3437C132.86 9.97367 133.09 9.84368 133.5 9.85368C135.37 9.87368 137.23 9.87368 139.1 9.85368C139.5 9.85368 139.71 9.98368 139.9 10.3237C145.19 19.5237 150.49 28.7237 155.8 37.9037C156.1 38.4137 156.04 38.5237 155.45 38.5137C154.3 38.4837 153.14 38.5037 151.98 38.5037ZM141.6 26.6837C139.76 23.2437 137.94 19.8637 136.08 16.3837C134.17 19.8737 132.32 23.2537 130.44 26.6837C134.21 26.6837 137.86 26.6837 141.6 26.6837Z" fill="#C8E357"/>
<path d="M26.6696 19.7537C27.3096 19.7537 27.9497 19.7837 28.5797 19.7437C29.0897 19.7137 29.1896 19.8337 29.0196 20.3437C28.1496 22.9437 27.3296 25.5537 26.4796 28.1537C24.9896 32.7637 23.4796 37.3637 21.9996 41.9737C21.8696 42.3837 21.7196 42.5537 21.2496 42.4937C16.6796 41.9037 12.1996 41.0137 7.92964 39.2237C6.09964 38.4637 4.34966 37.5537 2.81966 36.2737C-1.01034 33.0837 -0.930401 29.3337 3.0096 26.2737C5.6696 24.2037 8.75955 23.0037 11.9596 22.0837C16.2396 20.8437 20.4496 20.1437 26.6696 19.7537Z" fill="#C8E357"/>
<path d="M298.54 9.86369C303.75 9.86369 308.97 9.87369 314.18 9.84369C314.86 9.84369 315.01 10.0337 314.98 10.6737C314.93 12.1037 314.94 13.5337 314.98 14.9637C314.99 15.4537 314.83 15.5637 314.37 15.5637C310.52 15.5437 306.67 15.5637 302.83 15.5437C302.25 15.5437 302.13 15.6937 302.13 16.2537C302.15 23.4237 302.14 30.5937 302.16 37.7637C302.16 38.3437 302.06 38.5337 301.43 38.5237C299.52 38.4737 297.61 38.4837 295.69 38.5237C295.14 38.5337 295.02 38.3537 295.02 37.8337C295.04 30.6637 295.02 23.4937 295.05 16.3237C295.05 15.7137 294.91 15.5337 294.28 15.5437C290.48 15.5737 286.68 15.5437 282.87 15.5737C282.33 15.5737 282.12 15.4737 282.14 14.8837C282.19 13.4337 282.18 11.9837 282.14 10.5237C282.12 9.9537 282.33 9.85369 282.84 9.86369C288.07 9.87369 293.3 9.86369 298.54 9.86369Z" fill="#C8E357"/>
</svg>
