<svg width="163" height="43" viewBox="0 0 163 43" fill="none" xmlns="http://www.w3.org/2000/svg">
<path d="M72.6745 19.6544C72.7145 19.8044 72.8545 19.8145 72.9645 19.8645C76.7045 21.5445 78.6745 24.4744 79.0845 28.4944C79.2945 30.5944 79.0945 32.6645 78.4345 34.6744C77.4645 37.6544 75.4745 39.7244 72.6545 41.0144C70.8245 41.8544 68.8745 42.2644 66.8845 42.4644C65.4045 42.6144 63.9245 42.6344 62.4445 42.6344C56.4645 42.6244 50.4845 42.6344 44.4945 42.6344C44.2545 42.6344 44.0145 42.6445 43.7745 42.6145C43.2845 42.5545 43.0445 42.2844 43.0045 41.7944C42.9945 41.6244 42.9945 41.4444 42.9945 41.2644C42.9945 27.9544 42.9945 14.6445 42.9945 1.33445C42.9945 1.28445 42.9945 1.23445 42.9945 1.19445C43.0045 0.264455 43.2445 0.00444444 44.1945 0.00444444C48.6945 0.00444444 53.1945 0.00444444 57.6845 0.00444444C59.9645 0.00444444 62.2445 -0.00555556 64.5245 0.00444444C66.8245 0.0144444 69.0745 0.354446 71.1645 1.40445C74.8745 3.28445 76.9145 6.28445 77.1845 10.4544C77.3045 12.3544 77.0145 14.1744 76.1645 15.8844C75.4545 17.3344 74.4245 18.5044 73.0345 19.3544C72.9245 19.4244 72.8145 19.4944 72.7145 19.5644C72.6945 19.5844 72.6945 19.6244 72.6745 19.6544ZM58.0145 36.4544C60.0245 36.4544 62.0345 36.4644 64.0445 36.4544C65.5845 36.4445 67.1045 36.2944 68.5645 35.7845C70.5345 35.0844 71.6845 33.7045 72.0045 31.6445C72.1545 30.7045 72.1545 29.7645 72.0645 28.8345C71.9445 27.6245 71.5845 26.4944 70.7245 25.5744C69.9945 24.7944 69.0745 24.3344 68.0645 24.0444C66.6245 23.6244 65.1445 23.5244 63.6645 23.5244C59.5445 23.5244 55.4345 23.5444 51.3145 23.5144C50.2045 23.5044 49.9745 23.9145 49.9845 24.8345C49.9945 28.2745 49.9945 31.7244 49.9945 35.1644C49.9945 35.3444 49.9945 35.5145 50.0145 35.6945C50.0745 36.1645 50.3645 36.4345 50.8445 36.4745C51.0045 36.4845 51.1645 36.4844 51.3245 36.4844C53.5545 36.4544 55.7845 36.4544 58.0145 36.4544ZM57.7545 17.3444C57.7545 17.3344 57.7545 17.3244 57.7545 17.3244C59.8245 17.3244 61.9045 17.3444 63.9745 17.3144C65.3145 17.3044 66.6045 17.0345 67.7845 16.3645C68.9145 15.7245 69.6345 14.7744 69.9745 13.5244C70.2045 12.6844 70.2445 11.8244 70.1545 10.9644C69.9445 9.03444 68.9945 7.62444 67.1745 6.85444C66.0545 6.37444 64.8845 6.19445 63.6745 6.19445C59.5245 6.19445 55.3845 6.19445 51.2345 6.19445C51.0945 6.19445 50.9445 6.19445 50.8045 6.20445C50.3945 6.23445 50.1145 6.46445 50.0545 6.87445C50.0145 7.10445 50.0145 7.35445 50.0145 7.58445C50.0145 10.4245 50.0145 13.2544 50.0145 16.0944C50.0145 17.0944 50.2545 17.3444 51.2545 17.3444C53.4145 17.3444 55.5845 17.3444 57.7545 17.3444Z" fill="#C8E357"/>
<path d="M29.6344 19.6544C29.6744 19.7844 29.8045 19.7945 29.8945 19.8345C33.3145 21.3245 35.3344 23.9244 35.9444 27.5744C36.3744 30.1644 36.1645 32.7244 35.2345 35.2044C34.2245 37.8745 32.3444 39.7544 29.7844 40.9544C27.8944 41.8344 25.8945 42.2745 23.8345 42.4745C22.4545 42.6045 21.0645 42.6445 19.6745 42.6445C13.6145 42.6445 7.55446 42.6445 1.48446 42.6445C1.24446 42.6445 1.00445 42.6544 0.764454 42.6244C0.274454 42.5644 0.0344444 42.2844 0.00444444 41.7944C-0.00555556 41.6244 0.00444444 41.4444 0.00444444 41.2644C0.00444444 27.9544 0.00444444 14.6445 0.00444444 1.33445C0.00444444 1.15445 -0.00554579 0.984447 0.0144542 0.804447C0.0444542 0.374447 0.244458 0.134445 0.674458 0.0444454C0.824458 0.0144454 0.994438 0.00444444 1.15444 0.00444444C8.01444 0.00444444 14.8745 -0.00555556 21.7345 0.00444444C23.9245 0.0144444 26.0645 0.364448 28.0445 1.34445C32.0245 3.32445 34.0844 6.53444 34.1944 10.9944C34.2344 12.7444 33.8945 14.4144 33.1045 15.9844C32.3745 17.4244 31.3245 18.5744 29.9245 19.4044C29.8245 19.4944 29.6944 19.5244 29.6344 19.6544ZM14.9744 36.4544C16.4744 36.4544 17.9744 36.4544 19.4744 36.4544C20.5744 36.4544 21.6745 36.4744 22.7745 36.3544C24.0045 36.2244 25.2045 36.0045 26.3245 35.4445C27.6345 34.7945 28.4744 33.7645 28.8444 32.3645C29.2444 30.8545 29.2445 29.3344 28.8945 27.8244C28.6045 26.5644 27.9444 25.5344 26.8444 24.8244C26.2644 24.4444 25.6345 24.1845 24.9645 24.0045C23.5645 23.6245 22.1445 23.5144 20.7045 23.5144C17.2945 23.5144 13.8745 23.5144 10.4645 23.5144C9.73447 23.5144 8.99445 23.5345 8.26445 23.5045C7.29445 23.4645 7.00444 23.8444 7.00444 24.7344C7.02444 28.2444 7.01445 31.7445 7.01445 35.2545C7.01445 35.4145 7.01444 35.5744 7.03444 35.7344C7.09444 36.1244 7.36445 36.3945 7.76445 36.4445C7.93445 36.4645 8.11445 36.4544 8.29445 36.4544C10.5145 36.4544 12.7444 36.4544 14.9744 36.4544ZM14.7045 6.19445C12.4745 6.19445 10.2344 6.19445 8.00444 6.19445C7.30444 6.19445 7.01445 6.48445 7.01445 7.18444C7.00445 10.2244 7.00445 13.2744 7.01445 16.3144C7.01445 17.0444 7.29444 17.3045 8.03444 17.3345C8.09444 17.3345 8.16444 17.3345 8.22445 17.3345C12.4644 17.3245 16.7145 17.3244 20.9545 17.3144C21.8545 17.3144 22.7345 17.1644 23.5845 16.8844C25.4445 16.2844 26.6644 15.0845 27.0644 13.1145C27.1944 12.4645 27.2145 11.8144 27.1745 11.1644C27.0345 8.97444 25.8245 7.39445 23.7445 6.67445C22.7745 6.33445 21.7645 6.18444 20.7345 6.18444C18.7245 6.19445 16.7145 6.19445 14.7045 6.19445Z" fill="#C8E357"/>
<path d="M83.5745 0.0444533C84.5845 0.0444533 85.5845 0.0544588 86.5945 0.0344588C87.1745 0.0244588 87.5345 0.244455 87.8045 0.764455C90.1445 5.26445 92.5145 9.74446 94.8645 14.2345C97.0645 18.4245 99.2745 22.6145 101.474 26.8145C101.534 26.9245 101.584 27.0445 101.654 27.1545C102.014 27.7045 102.714 27.7145 103.084 27.1745C103.154 27.0745 103.214 26.9545 103.274 26.8445C105.954 21.7345 108.635 16.6245 111.325 11.5145C113.185 7.97445 115.044 4.42446 116.894 0.884457C116.944 0.784457 117.004 0.684454 117.054 0.584454C117.234 0.244454 117.524 0.0744555 117.904 0.0544555C118.014 0.0444555 118.124 0.0444533 118.234 0.0444533C120.214 0.0444533 122.194 0.0444533 124.174 0.0444533C124.314 0.0444533 124.464 0.0444576 124.604 0.0644576C125.104 0.154458 125.294 0.524456 125.084 0.984456C124.904 1.35446 124.704 1.72446 124.514 2.08446C121.684 7.38446 118.854 12.6944 116.024 17.9944C113.234 23.2244 110.444 28.4645 107.644 33.6945C106.184 36.4345 104.714 39.1745 103.244 41.9245C103.174 42.0545 103.114 42.1845 103.034 42.2945C102.684 42.7745 102.044 42.7744 101.714 42.2744C101.544 42.0244 101.414 41.7545 101.274 41.4845C99.2845 37.7545 97.3045 34.0245 95.3145 30.2945C92.6845 25.3745 90.0545 20.4544 87.4245 15.5244C85.5045 11.9244 83.5845 8.32446 81.6645 4.72446C81.0445 3.57446 80.4545 2.40445 79.8045 1.27445C79.3245 0.444449 79.7545 0.00445883 80.5645 0.0344588C81.5645 0.0644588 82.5745 0.0444533 83.5745 0.0444533Z" fill="#C8E357"/>
<path d="M158.555 42.6344C157.545 42.6344 156.544 42.6145 155.534 42.6445C154.974 42.6545 154.624 42.4445 154.354 41.9345C152.894 39.1145 151.415 36.3145 149.935 33.5045C147.485 28.8345 145.025 24.1644 142.565 19.4944C141.895 18.2244 141.225 16.9545 140.565 15.6845C140.455 15.4645 140.315 15.2845 140.075 15.1945C139.655 15.0345 139.264 15.1645 139.014 15.5945C138.734 16.0745 138.484 16.5745 138.224 17.0745C135.904 21.5045 133.575 25.9445 131.255 30.3745C129.245 34.2145 127.214 38.0545 125.214 41.8945C124.934 42.4245 124.574 42.6545 123.964 42.6545C121.934 42.6345 119.915 42.6445 117.885 42.6445C116.995 42.6445 116.754 42.2444 117.174 41.4645C119.464 37.1744 121.754 32.8845 124.044 28.5945C128.014 21.1545 131.984 13.7144 135.954 6.27445C136.944 4.41445 137.934 2.56446 138.924 0.704457C139.094 0.384457 139.274 0.104454 139.704 0.0844543C140.094 0.0644543 140.344 0.244458 140.514 0.564458C140.874 1.22446 141.225 1.88445 141.575 2.54445C144.395 7.83445 147.214 13.1244 150.044 18.4144C153.954 25.7444 157.864 33.0745 161.774 40.4045C161.994 40.8145 162.224 41.2145 162.424 41.6245C162.714 42.2245 162.474 42.6345 161.794 42.6445C160.724 42.6445 159.635 42.6344 158.555 42.6344Z" fill="#C8E357"/>
</svg>
