<svg width="110" height="44" viewBox="0 0 110 44" fill="none" xmlns="http://www.w3.org/2000/svg">
<path d="M54.77 35.98C36.81 35.98 18.85 35.98 0.890015 35.98C1.46627e-05 35.98 0 35.98 0 35.1C0 23.71 0 12.31 0 0.920006C0 0.0300058 -4.88758e-06 0.0200043 0.869995 0.0200043C36.79 0.0200043 72.72 0.02 108.64 0C109.37 0 109.49 0.230007 109.49 0.890007C109.47 12.28 109.48 23.68 109.48 35.07C109.48 35.97 109.48 35.97 108.59 35.97C90.64 35.98 72.71 35.98 54.77 35.98ZM87.2999 18.48C87.3599 18.5 87.41 18.51 87.47 18.53C87.6 18.35 87.74 18.17 87.87 17.99C89.04 16.36 90.21 14.73 91.37 13.09C91.6 12.76 91.84 12.6 92.26 12.61C93.45 12.64 94.6399 12.61 95.8199 12.63C96.0099 12.63 96.28 12.51 96.38 12.74C96.47 12.95 96.23 13.1 96.11 13.26C94.8 15.04 93.5 16.83 92.16 18.6C91.89 18.96 91.89 19.18 92.17 19.54C93.96 21.76 95.72 24 97.5 26.24C98 26.87 98.01 26.87 98.47 26.17C100.43 23.13 100.96 19.81 100.12 16.33C98.34 9.01001 90.9899 5.72001 84.4299 7.83001C76.1999 10.48 74.06 20.25 78.42 26.44C80.36 29.2 83.06 30.78 86.41 31.31C89.44 31.78 92.23 31.2 94.91 29.67C92.41 26.45 89.95 23.27 87.46 20.06C87.23 20.34 87.3099 20.57 87.3099 20.79C87.2999 22.34 87.2999 23.89 87.3099 25.45C87.3099 25.84 87.22 26.04 86.78 26.03C85.71 26.01 84.6299 26.01 83.5599 26.03C83.1599 26.04 83.0499 25.88 83.0599 25.5C83.0699 21.39 83.0699 17.28 83.0599 13.17C83.0599 12.74 83.22 12.63 83.62 12.64C84.53 12.66 85.45 12.64 86.36 12.65C87.39 12.66 87.2999 12.5 87.2999 13.6C87.3099 15.21 87.2999 16.85 87.2999 18.48ZM31.49 20.73C31.87 20.9 31.9399 21.13 32.0599 21.32C32.9499 22.7 33.84 24.08 34.71 25.47C34.94 25.84 35.19 26.02 35.64 26.01C36.55 25.98 37.47 26.01 38.38 26C38.57 26 38.8299 26.1 38.9299 25.87C38.9999 25.69 38.81 25.54 38.71 25.4C37.81 24.05 36.91 22.71 36.02 21.36C35.89 21.17 35.64 21 36.08 20.74C37.8 19.73 38.53 17.97 38.11 16.07C37.7 14.23 36.31 13.11 34.29 12.8C32.38 12.51 30.4599 12.72 28.5499 12.62C28.1499 12.6 28.0499 12.77 28.0499 13.14C28.0599 17.25 28.0599 21.36 28.0499 25.46C28.0499 25.89 28.22 26.01 28.62 26C29.26 25.98 29.9 26 30.54 25.99C31.51 25.99 31.51 25.99 31.51 25.03C31.49 23.63 31.49 22.23 31.49 20.73ZM62.02 19.25C62.02 21.28 62.03 23.31 62.02 25.35C62.02 25.73 62.0399 26.01 62.5499 26.01C65.1499 25.99 67.76 26 70.36 26.01C70.75 26.01 70.88 25.85 70.87 25.47C70.85 24.83 70.84 24.19 70.87 23.55C70.9 23.05 70.67 22.93 70.22 22.94C69.15 22.96 68.07 22.95 67 22.95C65.45 22.95 65.46 22.95 65.47 21.38C65.47 20.88 65.62 20.69 66.13 20.7C67.43 20.73 68.73 20.7 70.04 20.72C70.45 20.73 70.62 20.59 70.6 20.17C70.57 19.65 70.56 19.12 70.6 18.6C70.64 18.1 70.49 17.91 69.96 17.93C69 17.97 68.04 17.94 67.08 17.94C65.45 17.94 65.47 17.94 65.47 16.32C65.47 15.8 65.64 15.65 66.14 15.66C67.49 15.69 68.8399 15.64 70.1799 15.68C70.7399 15.7 70.89 15.5 70.86 14.98C70.82 14.41 70.82 13.84 70.86 13.27C70.9 12.75 70.6999 12.61 70.1899 12.62C67.6999 12.64 65.21 12.65 62.72 12.62C62.12 12.61 62.01 12.83 62.01 13.37C62.04 15.32 62.02 17.28 62.02 19.25ZM16.02 12.43C15.68 12.43 15.33 12.41 14.99 12.44C14.77 12.46 14.55 12.55 14.33 12.6C11.58 13.25 9.80994 14.96 9.18994 17.69C8.55994 20.44 9.28001 22.88 11.51 24.7C13.11 26.01 14.9899 26.47 17.0699 26.16C19.0099 25.87 20.5199 24.96 21.6899 23.42C21.9299 23.1 21.9699 22.9 21.5699 22.67C20.9999 22.34 20.44 21.98 19.91 21.58C19.53 21.3 19.29 21.27 18.96 21.69C18.32 22.51 17.44 23 16.39 23.07C13.17 23.27 11.69 20.02 12.84 17.6C13.99 15.19 17.19 14.83 18.91 16.95C19.26 17.38 19.48 17.4 19.89 17.1C20.4 16.72 20.94 16.36 21.49 16.05C21.99 15.77 21.97 15.5 21.64 15.09C20.22 13.26 18.32 12.41 16.02 12.43ZM45.64 12.4C45.22 12.34 44.4899 12.47 43.7999 12.68C39.2299 14.04 37.3499 19.59 40.1899 23.42C41.8399 25.65 44.13 26.51 46.9 26.16C48.87 25.91 50.4 24.98 51.58 23.42C51.8 23.13 51.92 22.91 51.49 22.67C50.94 22.36 50.4 22.01 49.89 21.62C49.44 21.28 49.18 21.29 48.79 21.76C47.69 23.08 45.97 23.43 44.47 22.74C43.03 22.08 42.26 20.68 42.38 18.93C42.47 17.47 43.47 16.17 44.86 15.71C46.28 15.24 47.86 15.71 48.84 16.96C49.16 17.37 49.38 17.39 49.77 17.1C50.3 16.71 50.8599 16.35 51.4299 16.01C51.8699 15.75 51.9 15.52 51.58 15.11C50.14 13.28 48.25 12.43 45.64 12.4ZM52.7999 19.27C52.7999 21.3 52.81 23.33 52.79 25.37C52.79 25.76 52.83 26.01 53.33 26.01C55.68 25.99 58.04 26 60.39 26.01C60.77 26.01 60.93 25.88 60.91 25.49C60.89 24.85 60.88 24.21 60.91 23.57C60.93 23.1 60.78 22.92 60.29 22.93C59.24 22.96 58.19 22.9 57.14 22.95C56.48 22.98 56.24 22.84 56.26 22.1C56.31 19.16 56.27 16.21 56.29 13.26C56.29 12.77 56.19 12.56 55.65 12.6C54.92 12.65 54.19 12.65 53.46 12.6C52.87 12.56 52.78 12.8 52.79 13.31C52.82 15.3 52.7999 17.28 52.7999 19.27ZM26.4399 19.3C26.4399 17.27 26.43 15.24 26.45 13.2C26.45 12.77 26.35 12.58 25.88 12.61C25.1 12.65 24.3299 12.64 23.5499 12.61C23.1399 12.6 22.99 12.71 22.99 13.14C23 17.25 23 21.36 22.99 25.47C22.99 25.91 23.1499 26.02 23.5499 26C24.2599 25.98 24.97 25.96 25.67 26.01C26.26 26.05 26.46 25.89 26.45 25.26C26.41 23.27 26.4399 21.28 26.4399 19.3Z" fill="#C8E357"/>
<path d="M54.7 37.77C72.64 37.77 90.5801 37.77 108.52 37.77C109.54 37.77 109.42 37.67 109.42 38.7C109.43 39.96 109.4 41.21 109.43 42.47C109.44 42.96 109.26 43.14 108.79 43.08C108.65 43.06 108.52 43.08 108.38 43.08C72.64 43.08 36.9001 43.08 1.15007 43.08C0.970073 43.08 0.780024 43.07 0.600024 43.08C0.170024 43.12 5.85997e-05 42.98 0.0100586 42.5C0.0400586 41.11 0.0400586 39.71 0.0100586 38.32C5.85997e-05 37.84 0.180024 37.75 0.600024 37.76C2.29002 37.78 3.98009 37.77 5.67009 37.77C22.0201 37.77 38.36 37.77 54.7 37.77Z" fill="#C8E357"/>
<path d="M31.49 17.43C31.49 16.98 31.52 16.52 31.48 16.07C31.44 15.57 31.65 15.42 32.11 15.47C32.56 15.52 33 15.44 33.45 15.61C34.46 16 34.93 16.78 34.75 17.85C34.59 18.79 33.82 19.43 32.84 19.46C31.49 19.5 31.49 19.5 31.49 18.18C31.49 17.93 31.49 17.68 31.49 17.43Z" fill="#C8E357"/>
</svg>
