<svg width="44" height="43" viewBox="0 0 44 43" fill="none" xmlns="http://www.w3.org/2000/svg">
<path d="M0 42.11C0 28.08 0 14.04 0 0.0100021C0.09 0.0100021 0.18002 0 0.27002 0C14.56 0 28.85 0 43.15 0C43.45 0 43.45 9.23872e-07 43.45 0.290001C43.45 14.13 43.45 27.97 43.45 41.81C43.45 42.1 43.45 42.1 43.15 42.1C28.87 42.1 14.58 42.1 0.299988 42.1C0.189988 42.1 0.09 42.11 0 42.11ZM21.47 2.39001C16.23 2.39001 11 2.39001 5.76001 2.39001C5.66001 2.39001 5.57003 2.39001 5.47003 2.39001C5.04003 2.40001 4.66999 2.56001 4.35999 2.86001C3.89999 3.31001 3.76002 3.87001 3.83002 4.50001C3.91002 5.15001 3.96003 5.80001 4.03003 6.44001C4.10003 7.18001 4.18 7.93001 4.25 8.67001C4.33 9.45001 4.40998 10.23 4.47998 11C4.53998 11.61 4.60003 12.23 4.66003 12.84C4.74003 13.61 4.81001 14.38 4.89001 15.15C4.96001 15.9 5.03999 16.65 5.10999 17.4C5.18999 18.18 5.27003 18.96 5.34003 19.73C5.41003 20.48 5.49 21.23 5.56 21.98C5.64 22.75 5.70998 23.52 5.78998 24.29C5.85998 25.04 5.94001 25.79 6.01001 26.54C6.09001 27.33 6.17 28.12 6.25 28.91C6.32 29.65 6.39003 30.38 6.47003 31.12C6.55003 31.9 6.63001 32.69 6.70001 33.47C6.76001 34.09 6.83001 34.71 6.89001 35.33C6.97001 36.11 7.03999 36.9 7.10999 37.68C7.14999 38.12 7.29003 38.52 7.59003 38.86C7.85003 39.14 8.15999 39.3 8.54999 39.29C9.05999 39.28 9.58003 39.29 10.09 39.29C12.1 39.29 14.11 39.29 16.12 39.29C16.4 39.29 16.36 39.25 16.37 39.53C16.37 39.93 16.37 40.33 16.37 40.72C16.37 41.02 16.32 40.98 16.63 40.98C19.92 40.98 23.22 40.98 26.51 40.98C26.54 40.98 26.58 40.98 26.61 40.98C26.78 40.98 26.78 40.98 26.78 40.81C26.78 40.39 26.78 39.97 26.78 39.55C26.78 39.25 26.74 39.28 27.04 39.28C29.48 39.28 31.91 39.28 34.35 39.28C34.77 39.28 35.11 39.11 35.37 38.8C35.62 38.5 35.75 38.15 35.8 37.77C35.85 37.35 35.88 36.92 35.92 36.5C36.01 35.59 36.09 34.67 36.18 33.76C36.28 32.71 36.39 31.66 36.49 30.61C36.58 29.7 36.66 28.78 36.75 27.87C36.85 26.82 36.96 25.77 37.06 24.72C37.15 23.81 37.23 22.89 37.32 21.98C37.42 20.93 37.53 19.88 37.63 18.83C37.72 17.92 37.8 17 37.89 16.09C37.99 15.04 38.1 13.99 38.2 12.94C38.29 12.03 38.37 11.11 38.46 10.2C38.56 9.15 38.67 8.10001 38.77 7.05001C38.86 6.14001 38.93 5.22001 39.04 4.31001C39.12 3.55001 38.63 2.62 37.69 2.41C37.52 2.37 37.35 2.38 37.18 2.38C31.96 2.39 26.72 2.39001 21.47 2.39001Z" fill="#C8E357"/>
<path d="M33.84 6.84C33.84 6.94 33.84 6.99999 33.84 7.06999C33.84 9.86999 33.84 12.67 33.84 15.47C33.84 15.51 33.84 15.55 33.84 15.59C33.85 15.67 33.81 15.71 33.73 15.74C31.93 16.4 30.53 17.6 29.31 19.03C28.69 19.76 28.17 20.56 27.79 21.44C27.64 21.8 27.52 22.17 27.47 22.56C27.45 22.73 27.44 22.73 27.27 22.73C25.95 22.73 24.64 22.73 23.32 22.72C21.91 22.72 20.51 22.72 19.1 22.71C18.82 22.71 18.8 22.76 18.87 22.44C19.37 19.96 20.45 17.75 21.96 15.74C23.3 13.94 24.89 12.41 26.67 11.05C28.84 9.38 31.21 8.02999 33.7 6.90999C33.74 6.88999 33.77 6.87 33.84 6.84Z" fill="#C8E357"/>
<path d="M30.82 7.26001C30.8 7.28001 30.8 7.30002 30.79 7.30002C29.69 7.78002 28.68 8.41001 27.69 9.07001C26.1 10.12 24.59 11.26 23.18 12.55C22.6 13.08 22.04 13.64 21.55 14.26C21.32 14.54 21.1 14.83 20.93 15.15C20.87 15.25 20.81 15.29 20.7 15.28C20.68 15.28 20.66 15.28 20.64 15.28C17.06 15.28 13.48 15.28 9.90003 15.28C9.63003 15.28 9.66004 15.31 9.66004 15.04C9.65004 12.53 9.65003 10.02 9.65003 7.51001C9.65003 7.50001 9.65003 7.50001 9.65003 7.49001C9.65003 7.23001 9.64 7.27 9.87 7.27C16.81 7.27 23.74 7.27 30.68 7.27C30.7 7.26 30.76 7.26001 30.82 7.26001Z" fill="#C8E357"/>
<path d="M21.66 40.39C20.2 40.39 18.74 40.39 17.28 40.39C17.02 40.39 17.05 40.41 17.05 40.16C17.05 38.65 17.08 37.14 17.14 35.64C17.19 34.28 17.27 32.92 17.39 31.56C17.42 31.17 17.46 30.78 17.5 30.39C17.51 30.25 17.52 30.25 17.66 30.24C17.69 30.24 17.73 30.24 17.76 30.24C20.63 30.24 23.49 30.24 26.36 30.24C26.63 30.24 26.62 30.2 26.59 30.5C26.49 31.45 26.44 32.4 26.4 33.35C26.3 35.6 26.31 37.85 26.3 40.09C26.3 40.14 26.3 40.2 26.3 40.25C26.31 40.35 26.27 40.39 26.17 40.38C26.12 40.38 26.07 40.38 26.03 40.38C24.57 40.39 23.11 40.39 21.66 40.39Z" fill="#C8E357"/>
<path d="M31.45 23.93C31.54 23.88 31.6 23.84 31.66 23.8C32.12 23.52 32.62 23.37 33.17 23.42C33.35 23.44 33.52 23.48 33.68 23.56C34.07 23.75 34.29 24.05 34.31 24.5C34.31 24.56 34.31 24.62 34.31 24.69C34.31 26.24 34.31 27.79 34.31 29.34C34.31 29.36 34.31 29.38 34.31 29.4C34.31 29.6 34.31 29.6 34.11 29.6C33.63 29.6 33.15 29.6 32.67 29.6C32.48 29.6 32.48 29.6 32.48 29.41C32.48 28.09 32.48 26.78 32.48 25.46C32.48 25.41 32.48 25.35 32.48 25.3C32.48 25.2 32.44 25.13 32.37 25.07C32.19 24.91 31.83 24.9 31.64 25.05C31.51 25.15 31.45 25.28 31.45 25.44C31.45 25.74 31.45 26.04 31.45 26.34C31.45 27.35 31.45 28.36 31.45 29.36C31.45 29.41 31.45 29.47 31.45 29.52C31.45 29.57 31.42 29.59 31.37 29.6C31.32 29.6 31.27 29.6 31.23 29.6C30.77 29.6 30.31 29.6 29.85 29.6C29.62 29.6 29.63 29.64 29.63 29.38C29.63 27.99 29.63 26.6 29.63 25.21C29.63 24.73 29.63 24.25 29.63 23.77C29.63 23.6 29.63 23.6 29.79 23.6C30.28 23.6 30.78 23.6 31.27 23.6C31.47 23.6 31.45 23.61 31.45 23.78C31.45 23.81 31.45 23.86 31.45 23.93Z" fill="#C8E357"/>
<path d="M22.91 27.52C22.97 27.21 23.03 26.9 23.08 26.58C23.25 25.64 23.42 24.71 23.59 23.77C23.62 23.59 23.62 23.59 23.79 23.59C24.19 23.59 24.6 23.59 25.01 23.59C25.02 23.77 24.96 23.93 24.94 24.08C24.6 25.86 24.26 27.65 23.92 29.43C23.89 29.59 23.89 29.59 23.73 29.59C23.02 29.59 22.32 29.59 21.61 29.59C21.49 29.59 21.45 29.61 21.43 29.44C21.32 28.69 21.19 27.94 21.08 27.19C20.91 26.09 20.73 24.98 20.56 23.88C20.55 23.79 20.54 23.7 20.53 23.62C20.58 23.58 20.63 23.59 20.67 23.59C21.12 23.59 21.56 23.59 22.01 23.59C22.17 23.59 22.18 23.59 22.2 23.75C22.39 24.81 22.58 25.87 22.77 26.93C22.8 27.11 22.83 27.28 22.86 27.46C22.86 27.48 22.86 27.5 22.91 27.52Z" fill="#C8E357"/>
<path d="M27.13 23.59C27.64 23.59 28.15 23.59 28.65 23.59C28.81 23.59 28.81 23.59 28.81 23.74C28.81 24.09 28.81 24.44 28.81 24.79C28.81 24.89 28.78 24.92 28.68 24.92C28.29 24.92 27.9 24.92 27.51 24.92C27.33 24.92 27.33 24.92 27.33 25.1C27.33 25.37 27.33 25.63 27.33 25.9C27.33 26.04 27.33 26.05 27.48 26.05C27.85 26.05 28.22 26.05 28.59 26.05C28.84 26.05 28.8 26.03 28.81 26.27C28.81 26.52 28.81 26.78 28.81 27.03C28.81 27.14 28.78 27.17 28.67 27.17C28.28 27.16 27.89 27.17 27.5 27.17C27.33 27.17 27.33 27.17 27.33 27.34C27.33 27.61 27.33 27.89 27.33 28.16C27.33 28.26 27.37 28.29 27.46 28.29C27.85 28.29 28.24 28.29 28.63 28.29C28.81 28.29 28.81 28.29 28.81 28.47C28.81 28.79 28.81 29.1 28.81 29.42C28.81 29.58 28.81 29.59 28.66 29.59C27.64 29.59 26.62 29.59 25.59 29.59C25.43 29.59 25.43 29.59 25.43 29.39C25.43 27.81 25.43 26.24 25.43 24.66C25.43 24.35 25.43 24.04 25.43 23.73C25.43 23.59 25.43 23.58 25.58 23.58C26.11 23.59 26.62 23.59 27.13 23.59Z" fill="#C8E357"/>
<path d="M16.79 26.59C16.79 25.67 16.79 24.75 16.79 23.83C16.79 23.78 16.79 23.72 16.79 23.67C16.79 23.62 16.82 23.6 16.87 23.6C16.91 23.6 16.95 23.6 16.99 23.6C17.98 23.6 18.97 23.6 19.95 23.6C19.99 23.6 20.03 23.6 20.07 23.6C20.13 23.6 20.15 23.63 20.15 23.69C20.15 24.07 20.15 24.46 20.15 24.84C20.15 24.9 20.12 24.93 20.06 24.93C20.01 24.93 19.96 24.93 19.92 24.93C19.57 24.93 19.22 24.93 18.87 24.93C18.68 24.93 18.68 24.93 18.67 25.12C18.67 25.37 18.67 25.63 18.67 25.88C18.67 26.06 18.67 26.06 18.85 26.06C19.21 26.06 19.56 26.06 19.92 26.06C19.97 26.06 20.02 26.06 20.06 26.06C20.12 26.06 20.14 26.09 20.14 26.15C20.14 26.46 20.14 26.77 20.14 27.08C20.14 27.18 20.08 27.18 20.01 27.18C19.65 27.18 19.28 27.18 18.92 27.18C18.87 27.18 18.82 27.18 18.78 27.18C18.7 27.18 18.67 27.21 18.67 27.29C18.67 27.59 18.67 27.89 18.67 28.2C18.67 28.3 18.72 28.31 18.8 28.31C18.96 28.31 19.13 28.31 19.29 28.31C19.52 28.31 19.74 28.31 19.97 28.31C20.14 28.31 20.14 28.31 20.15 28.48C20.15 28.8 20.15 29.12 20.15 29.45C20.15 29.61 20.15 29.61 19.97 29.61C18.96 29.61 17.95 29.61 16.94 29.61C16.77 29.61 16.77 29.61 16.77 29.44C16.77 29.01 16.77 28.59 16.77 28.16C16.79 27.63 16.79 27.11 16.79 26.59Z" fill="#C8E357"/>
<path d="M8.92999 26.59C8.92999 25.67 8.92999 24.75 8.92999 23.83C8.92999 23.78 8.92999 23.72 8.92999 23.67C8.92999 23.62 8.96001 23.6 9.01001 23.6C9.06001 23.6 9.11002 23.6 9.15002 23.6C10.13 23.6 11.11 23.6 12.09 23.6C12.11 23.6 12.13 23.6 12.15 23.6C12.3 23.6 12.3 23.6 12.3 23.74C12.3 24.09 12.3 24.44 12.3 24.79C12.3 24.9 12.26 24.93 12.16 24.93C11.8 24.93 11.43 24.93 11.07 24.93C10.78 24.93 10.82 24.9 10.82 25.18C10.82 25.42 10.82 25.66 10.82 25.9C10.82 26.05 10.82 26.06 10.98 26.06C11.36 26.06 11.73 26.06 12.11 26.06C12.29 26.06 12.29 26.06 12.29 26.23C12.29 26.5 12.29 26.76 12.29 27.03C12.29 27.17 12.29 27.17 12.14 27.18C11.76 27.18 11.37 27.18 10.99 27.18C10.82 27.18 10.81 27.18 10.81 27.36C10.81 27.63 10.81 27.89 10.81 28.16C10.81 28.27 10.85 28.3 10.95 28.3C11.33 28.3 11.7 28.3 12.08 28.3C12.31 28.3 12.29 28.29 12.29 28.52C12.29 28.83 12.29 29.14 12.29 29.45C12.29 29.6 12.29 29.6 12.15 29.6C11.12 29.6 10.09 29.6 9.06 29.6C8.91 29.6 8.91003 29.6 8.91003 29.43C8.93003 28.48 8.92999 27.53 8.92999 26.59Z" fill="#C8E357"/>
<path d="M12.94 26.6C12.94 25.69 12.94 24.78 12.94 23.86C12.94 23.82 12.94 23.78 12.94 23.74C12.94 23.59 12.94 23.59 13.09 23.59C13.54 23.59 13.98 23.59 14.43 23.59C14.56 23.59 14.73 23.53 14.82 23.63C14.9 23.72 14.84 23.88 14.84 24.01C14.84 25.34 14.84 26.67 14.84 28C14.84 28.05 14.84 28.1 14.84 28.14C14.84 28.29 14.84 28.3 15 28.3C15.38 28.3 15.77 28.3 16.15 28.3C16.31 28.3 16.31 28.3 16.31 28.46C16.31 28.78 16.31 29.1 16.31 29.43C16.31 29.6 16.31 29.6 16.14 29.6C15.43 29.6 14.71 29.6 14 29.6C13.71 29.6 13.42 29.6 13.14 29.6C12.93 29.6 12.93 29.6 12.93 29.38C12.93 28.71 12.93 28.04 12.93 27.36C12.94 27.11 12.94 26.85 12.94 26.6Z" fill="#C8E357"/>
</svg>
