<svg width="36" height="36" viewBox="0 0 36 36" fill="none" xmlns="http://www.w3.org/2000/svg">
<path d="M15.41 29.02C15.41 30.96 15.4 32.91 15.42 34.85C15.42 35.16 15.35 35.2699 15.02 35.2099C9.24998 34.0999 4.98997 30.98 2.27997 25.77C1.30997 23.9 0.769967 21.89 0.569967 19.79C-3.26335e-05 13.86 1.91997 8.86003 6.28997 4.83003C8.91997 2.41003 12.05 0.969981 15.62 0.529981C20.73 -0.100019 25.3 1.19999 29.23 4.53999C32.54 7.34999 34.55 10.9299 35.18 15.2299C35.83 19.6199 35.02 23.7299 32.6 27.4599C29.99 31.4699 26.32 34.0599 21.65 35.2099C21.35 35.2799 21.26 35.2001 21.26 34.9001C21.27 30.9601 21.27 27.03 21.26 23.09C21.26 22.75 21.38 22.6701 21.69 22.6801C22.55 22.7001 23.4 22.6799 24.26 22.6899C24.55 22.6899 24.7 22.63 24.74 22.3C24.94 20.92 25.16 19.5501 25.39 18.1801C25.45 17.8501 25.26 17.8601 25.05 17.8601C23.64 17.8601 22.23 17.8601 20.83 17.8601C20.28 17.8601 20.28 17.86 20.28 17.32C20.28 16.39 20.28 15.47 20.28 14.54C20.28 12.9 21.23 11.9101 22.88 11.8701C23.84 11.8401 24.8 11.8501 25.77 11.8701C26.12 11.8801 26.21 11.7601 26.2 11.4301C26.18 10.3201 26.19 9.20004 26.19 8.09004C26.19 7.61004 26.18 7.61 25.68 7.55C24.64 7.43 23.61 7.34001 22.56 7.31001C21.51 7.28001 20.47 7.35992 19.48 7.71992C17.16 8.53992 15.9 10.2301 15.54 12.6201C15.31 14.1901 15.43 15.7801 15.4 17.35C15.39 17.8601 15.4 17.8601 14.89 17.8601C13.88 17.8601 12.87 17.8701 11.86 17.85C11.53 17.84 11.44 17.96 11.44 18.28C11.46 19.61 11.45 20.95 11.44 22.29C11.44 22.59 11.52 22.6999 11.84 22.6899C12.87 22.6699 13.9 22.7001 14.94 22.6801C15.29 22.6701 15.41 22.7701 15.4 23.1301C15.4 25.0901 15.41 27.06 15.41 29.02Z" fill="white"/>
</svg>
