<svg width="36" height="36" viewBox="0 0 36 36" fill="none" xmlns="http://www.w3.org/2000/svg">
<path d="M18.16 0.640222C8.49998 0.610222 0.599984 8.5302 0.569984 18.1202C0.549984 27.7502 8.43998 35.7503 18.1 35.6803C27.69 35.7503 35.57 27.8501 35.63 18.2901C35.71 8.57012 27.74 0.670222 18.16 0.640222ZM12.71 27.7601C12.71 27.9801 12.64 28.0601 12.42 28.0601C11.24 28.0501 10.07 28.0501 8.88998 28.0601C8.64998 28.0601 8.59999 27.9701 8.60999 27.7601C8.61999 25.7801 8.60999 23.8002 8.60999 21.8202C8.60999 19.8702 8.60998 17.91 8.59998 15.96C8.59998 15.69 8.66998 15.6002 8.94998 15.6102C10.1 15.6302 11.25 15.6202 12.39 15.6102C12.62 15.6102 12.71 15.6702 12.71 15.9102C12.7 19.8602 12.7 23.8101 12.71 27.7601ZM10.67 13.1803C9.29998 13.1803 8.20998 12.09 8.20998 10.71C8.20998 9.32005 9.27998 8.25009 10.67 8.26009C12.05 8.26009 13.14 9.36006 13.13 10.7201C13.12 12.0701 12.01 13.1903 10.67 13.1803ZM28 27.7C28 28.06 28 28.0601 27.64 28.0601C26.51 28.0601 25.38 28.0502 24.25 28.0702C23.98 28.0702 23.89 28.0001 23.9 27.7201C23.91 25.4901 23.9 23.2501 23.91 21.0201C23.91 20.2201 23.68 19.5401 23.02 19.0501C22.4 18.5901 21.71 18.4801 21 18.7901C20.27 19.1101 19.82 19.6701 19.7 20.4701C19.66 20.7401 19.66 21.0101 19.66 21.2801C19.66 23.4101 19.66 25.5503 19.66 27.6803C19.66 28.0603 19.66 28.0601 19.27 28.0601C18.14 28.0601 17.01 28.0502 15.88 28.0702C15.62 28.0702 15.56 27.9901 15.56 27.7401C15.57 25.7701 15.56 23.8002 15.56 21.8202C15.56 19.8702 15.57 17.91 15.55 15.96C15.55 15.69 15.62 15.6002 15.9 15.6102C17.05 15.6302 18.2 15.6202 19.35 15.6102C19.58 15.6102 19.68 15.6703 19.66 15.9203C19.64 16.2803 19.65 16.6401 19.66 17.0101C19.66 17.0801 19.63 17.18 19.7 17.21C19.8 17.25 19.83 17.1302 19.87 17.0802C20.59 16.1602 21.53 15.6002 22.67 15.4102C23.88 15.2202 24.99 15.5601 25.96 16.2801C27.3 17.2701 27.99 18.6101 28 20.2801C28.01 22.7401 28 25.22 28 27.7Z" fill="white"/>
</svg>
