<svg width="145" height="64" viewBox="0 0 145 64" fill="none" xmlns="http://www.w3.org/2000/svg">
<path d="M65.6945 56.8471C65.1745 56.859 64.6625 56.7177 64.2226 56.441C63.7932 56.1577 63.453 55.7591 63.2412 55.2912C62.9881 54.7425 62.8639 54.1435 62.8781 53.5397C62.865 52.9344 62.9892 52.334 63.2412 51.7832C63.4557 51.317 63.7953 50.9191 64.2226 50.6335C64.6625 50.3567 65.1745 50.2155 65.6945 50.2274C66.0189 50.2244 66.3413 50.2791 66.6464 50.3888C66.9273 50.4912 67.1881 50.6419 67.4168 50.8341C67.6363 51.0258 67.8206 51.2543 67.9614 51.5092C68.1072 51.7674 68.2068 52.0488 68.2558 52.341H67.6425C67.5974 52.1251 67.5162 51.9183 67.402 51.7294C67.2898 51.5425 67.1452 51.3769 66.9752 51.2401C66.8013 51.1015 66.6057 50.9924 66.3962 50.9172C66.1701 50.8415 65.933 50.8035 65.6945 50.8047C65.3023 50.7999 64.9171 50.9086 64.5856 51.1178C64.2352 51.3448 63.9575 51.6675 63.7859 52.0474C63.3892 53.0046 63.3892 54.0796 63.7859 55.0368C63.9608 55.4148 64.2399 55.7355 64.5906 55.9615C64.9219 56.1663 65.3047 56.2732 65.6945 56.2697C65.933 56.2709 66.1701 56.2329 66.3962 56.1572C66.6057 56.082 66.8013 55.9729 66.9752 55.8343C67.1452 55.6975 67.2898 55.5319 67.402 55.345C67.5151 55.1556 67.5963 54.949 67.6425 54.7335H68.2558C68.2084 55.0238 68.1105 55.3037 67.9663 55.5603C67.6737 56.0774 67.2083 56.4757 66.6513 56.6856C66.3445 56.7954 66.0205 56.8501 65.6945 56.8471Z" fill="#1E1349"/>
<path d="M69.6443 56.7541V50.3154H71.7542C72.1517 50.3022 72.5463 50.388 72.9023 50.5649C73.2 50.7176 73.4445 50.9564 73.604 51.2499C73.7662 51.5608 73.8472 51.9074 73.8395 52.2578C73.8435 52.5984 73.7626 52.9346 73.604 53.2363C73.444 53.5269 73.1993 53.7624 72.9023 53.9115C72.547 54.085 72.1545 54.169 71.7591 54.1561H69.9878V53.5983H71.7297C72.017 53.6095 72.3029 53.5525 72.5638 53.432C72.7756 53.3254 72.9476 53.154 73.0544 52.9427C73.1698 52.7225 73.2272 52.4768 73.2213 52.2284C73.2288 51.9737 73.1714 51.7212 73.0544 51.4945C72.9479 51.2831 72.7758 51.1115 72.5638 51.0053C72.3026 50.8795 72.0146 50.819 71.7247 50.8291H70.2528V56.7541H69.6443ZM73.3979 56.7541L71.8278 53.8185H72.5196L74.1094 56.7541H73.3979Z" fill="#1E1349"/>
<path d="M75.2771 56.7541V50.3154H79.0552V50.8829H75.8954V53.2607H78.8393V53.8185H75.8954V56.2354H79.1141V56.7541H75.2771ZM76.9356 49.6549L77.5587 48.4366H78.2309L77.4262 49.6843L76.9356 49.6549Z" fill="#1E1349"/>
<path d="M81.1847 50.3154V56.7541H80.5665V50.3154H81.1847ZM82.4751 56.7541H80.905V56.2061H82.431C82.9128 56.2237 83.3906 56.1122 83.8146 55.8832C84.181 55.6688 84.471 55.3455 84.6439 54.9585C85.01 54.0377 85.01 53.0123 84.6439 52.0915C84.4768 51.7122 84.1956 51.3942 83.8392 51.1814C83.4413 50.9538 82.9875 50.8419 82.5291 50.8585H80.8658V50.3106H82.5684C83.1221 50.2933 83.67 50.427 84.1532 50.6971C84.5945 50.9531 84.947 51.3371 85.164 51.7979C85.4102 52.3363 85.5294 52.9237 85.5123 53.5152C85.5288 54.115 85.408 54.7107 85.1591 55.257C84.9326 55.7249 84.5679 56.1125 84.1139 56.3676C83.6108 56.6365 83.0458 56.7698 82.4751 56.7541Z" fill="#1E1349"/>
<path d="M87.5731 50.3154V56.7541H86.9549V50.3154H87.5731Z" fill="#1E1349"/>
<path d="M88.9028 50.8829V50.335H93.6131V50.8829H91.5671V56.754H90.9537V50.8829H88.9028Z" fill="#1E1349"/>
<path d="M97.19 56.847C96.67 56.8589 96.158 56.7177 95.7181 56.4409C95.2912 56.1549 94.9516 55.7571 94.7367 55.2912C94.4876 54.7413 94.3652 54.1428 94.3786 53.5396C94.3662 52.9349 94.4886 52.335 94.7367 51.7832C94.9516 51.3172 95.2912 50.9194 95.7181 50.6334C96.1549 50.3681 96.6565 50.2277 97.168 50.2277C97.6794 50.2277 98.1811 50.3681 98.6179 50.6334C99.0463 50.9177 99.3863 51.316 99.5992 51.7832C99.8496 52.3343 99.972 52.9347 99.9574 53.5396C99.9731 54.143 99.8506 54.7421 99.5992 55.2912C99.389 55.7601 99.0485 56.1591 98.6179 56.4409C98.191 56.7105 97.6953 56.8515 97.19 56.847ZM97.19 56.2697C97.5899 56.2754 97.9826 56.1631 98.3186 55.9468C98.6615 55.7132 98.9331 55.3899 99.1036 55.0123C99.4805 54.0698 99.4805 53.0192 99.1036 52.0767C98.9345 51.6969 98.6627 51.3717 98.3186 51.1373C97.9792 50.9266 97.5874 50.8149 97.1876 50.8149C96.7878 50.8149 96.396 50.9266 96.0566 51.1373C95.7112 51.3703 95.439 51.696 95.2716 52.0767C94.887 53.0177 94.887 54.0713 95.2716 55.0123C95.4417 55.3914 95.7133 55.7164 96.0566 55.9517C96.3954 56.1647 96.7896 56.2736 97.19 56.2648V56.2697Z" fill="#1E1349"/>
<path d="M103.912 56.7541V50.3154H106.017C106.418 50.3025 106.815 50.3935 107.17 50.5796C107.468 50.7436 107.711 50.9922 107.867 51.2939C108.029 51.6068 108.112 51.9546 108.107 52.3067C108.112 52.662 108.029 53.0129 107.867 53.3293C107.711 53.6323 107.468 53.8825 107.17 54.0485C106.817 54.235 106.421 54.3261 106.022 54.3127H104.378V53.7647H105.983C106.273 53.7752 106.56 53.7094 106.817 53.5739C107.029 53.4544 107.2 53.2736 107.307 53.0553C107.423 52.8231 107.481 52.5661 107.474 52.3067C107.479 52.0491 107.422 51.7941 107.307 51.563C107.195 51.3561 107.024 51.1861 106.817 51.0738C106.559 50.9418 106.272 50.8762 105.983 50.883H104.511V56.7541H103.912Z" fill="#1E1349"/>
<path d="M108.225 56.7541L110.595 50.3105H111.326L113.715 56.7541H113.063L111.527 52.5416C111.439 52.3067 111.346 52.0523 111.243 51.7245C111.14 51.3967 111.022 51.0347 110.889 50.5894H111.022C110.889 51.0347 110.767 51.4163 110.664 51.7343C110.561 52.0523 110.467 52.3214 110.389 52.5416L108.882 56.7541H108.225ZM109.329 54.8411V54.3078H112.612V54.8558L109.329 54.8411Z" fill="#1E1349"/>
<path d="M114.815 56.7541V50.3154H116.924C117.322 50.3022 117.717 50.388 118.073 50.5649C118.37 50.7176 118.615 50.9564 118.774 51.2499C118.936 51.5608 119.017 51.9074 119.01 52.2578C119.014 52.5984 118.933 52.9346 118.774 53.2363C118.615 53.5257 118.372 53.7608 118.077 53.9115C117.72 54.0845 117.326 54.1684 116.929 54.1561H115.158V53.5983H116.9C117.187 53.6095 117.473 53.5525 117.734 53.432C117.946 53.3254 118.118 53.154 118.225 52.9427C118.342 52.723 118.401 52.4772 118.396 52.2284C118.402 51.9732 118.343 51.7207 118.225 51.4945C118.118 51.2831 117.946 51.1115 117.734 51.0053C117.475 50.8795 117.188 50.819 116.9 50.8291H115.428V56.7541H114.815ZM118.568 56.7541L116.998 53.8185H117.69L119.28 56.7541H118.568Z" fill="#1E1349"/>
<path d="M119.844 56.7541L122.214 50.3105H122.94L125.329 56.7541H124.682L123.156 52.5465C123.067 52.3116 122.974 52.0572 122.871 51.7294C122.768 51.4016 122.65 51.0395 122.518 50.5943H122.646C122.511 51.0379 122.394 51.4195 122.292 51.7392C122.189 52.0572 122.096 52.3263 122.017 52.5465L120.496 56.7541H119.844ZM120.943 54.8411V54.3078H124.23V54.8558L120.943 54.8411Z" fill="#1E1349"/>
<path d="M128.553 50.8829V50.335H133.268V50.8829H131.222V56.754H130.609V50.8829H128.553Z" fill="#1E1349"/>
<path d="M135.197 50.3154V56.7541H134.578V50.3154H135.197Z" fill="#1E1349"/>
<path d="M73.5991 11.4585V19.2866H80.0856V25.9307H73.5991V33.1669C73.5891 33.755 73.7002 34.339 73.9255 34.8826C74.1508 35.4263 74.4856 35.918 74.9092 36.3275C75.3253 36.7575 75.8248 37.0985 76.3773 37.3298C76.9298 37.5611 77.5238 37.6779 78.123 37.673H80.0856V44.3465H78.123C75.1519 44.3387 72.3047 43.1584 70.2038 41.0635C68.1029 38.9686 66.9192 36.1295 66.9114 33.1669V25.9307H62.888V19.2768H66.9114V11.4487L73.5991 11.4585Z" fill="#596AFD"/>
<path d="M90.1441 34.6738C90.3112 35.3075 90.5655 35.915 90.8998 36.4791C91.2475 37.0633 91.6883 37.5872 92.2049 38.0301C93.2645 38.942 94.6281 39.4255 96.0272 39.3853C97.1337 39.4133 98.2374 39.2612 99.295 38.9352C100.216 38.6061 101.094 38.1675 101.91 37.6289L105.492 41.8414C104.168 42.8825 102.674 43.6885 101.076 44.2241C99.4476 44.7248 97.7508 44.9691 96.0468 44.9482C94.2873 44.987 92.5386 44.6653 90.9089 44.003C89.2792 43.3407 87.8032 42.3518 86.5721 41.0978C85.3093 39.9027 84.3085 38.4598 83.6329 36.8598C82.9573 35.2598 82.6216 33.5376 82.6469 31.8018C82.618 30.0847 82.9309 28.379 83.5676 26.7833C84.2044 25.1877 85.1522 23.7338 86.3562 22.5059C87.5315 21.2705 88.9524 20.2933 90.5282 19.637C92.1039 18.9807 93.7997 18.6597 95.5071 18.6946C97.1585 18.6516 98.7992 18.9706 100.313 19.6292C101.828 20.2877 103.178 21.2698 104.27 22.5059C106.586 25.05 107.743 28.2253 107.739 32.0318V34.6933L90.1441 34.6738ZM92.0037 26.146C90.9717 27.0634 90.2802 28.301 90.0411 29.6589H101.002C100.77 28.3011 100.108 27.0531 99.1134 26.0971C98.1691 25.2657 96.9371 24.834 95.6788 24.8935C94.3444 24.8684 93.0436 25.3118 92.0037 26.146Z" fill="#596AFD"/>
<path d="M118.352 19.2768V32.5651C118.284 34.0744 118.812 35.5503 119.824 36.6749C120.518 37.4312 121.431 37.9535 122.436 38.1692C123.441 38.3848 124.488 38.2832 125.432 37.8784C126.695 37.2797 127.67 36.2092 128.146 34.8988C128.408 34.149 128.536 33.359 128.524 32.5651V19.2768H135.211V32.3156C135.211 35.9589 134.066 38.9678 131.777 41.3424C130.707 42.4793 129.415 43.3855 127.98 44.005C126.546 44.6244 124.999 44.944 123.435 44.944C121.872 44.944 120.325 44.6244 118.891 44.005C117.456 43.3855 116.164 42.4793 115.094 41.3424C112.804 38.9711 111.66 35.9622 111.66 32.3156V19.2768H118.352Z" fill="#596AFD"/>
<path d="M32.9724 52.0083C32.1677 52.0083 31.3679 52.0083 30.5632 52.0083C29.1429 51.9723 27.7873 51.4084 26.7625 50.4272C25.7376 49.446 25.1174 48.1183 25.0237 46.7047C24.9419 44.8814 24.9419 43.0565 25.0237 41.2299C25.1414 38.8178 27.2856 36.5134 29.7438 36.1367C30.0947 36.0855 30.449 36.061 30.8037 36.0633H35.1607C36.4856 36.0835 37.7754 35.6389 38.8049 34.8072C39.8345 33.9756 40.5383 32.8097 40.7935 31.5132C40.8666 31.1673 40.9027 30.8148 40.9015 30.4613C40.9015 28.9446 40.9015 27.423 40.9015 25.9063C40.9016 24.4841 40.3573 23.1155 39.3798 22.0799C38.4023 21.0442 37.0652 20.4196 35.6416 20.3336C34.0371 20.2309 32.4277 20.2651 30.8233 20.2994C29.4409 20.3142 28.0992 19.8333 27.0428 18.9442C25.9863 18.0551 25.2854 16.817 25.0678 15.4557C25.0124 15.0701 24.9861 14.6808 24.9893 14.2913C24.9893 12.7501 24.9403 11.209 25.0237 9.66778C25.1085 8.38549 25.6236 7.16898 26.4861 6.21405C27.3485 5.25912 28.5081 4.62134 29.7782 4.40335C30.0567 4.35284 30.3391 4.32665 30.6221 4.32507C32.2069 4.32507 33.7869 4.32507 35.3717 4.32507C36.8598 4.344 38.2818 4.94087 39.3355 5.9888C40.3891 7.03674 40.9914 8.45311 41.0143 9.93688C41.0143 11.4047 41.0143 12.9067 41.0143 14.3891C40.9696 15.7705 41.4391 17.1196 42.3323 18.1765C43.2255 19.2333 44.4793 19.9233 45.8522 20.1135C46.1318 20.1518 46.414 20.1681 46.6961 20.1624H51.0581C52.4425 20.1413 53.7886 20.6159 54.8519 21.5002C55.9152 22.3845 56.6252 23.6198 56.8528 24.9816C56.8897 25.1785 56.9094 25.3782 56.9117 25.5785C56.9117 27.5649 57.1178 29.566 56.7989 31.5377C56.5794 32.7204 55.9836 33.8012 55.0998 34.6199C54.2161 35.4386 53.0913 35.9516 51.8922 36.0829C50.1602 36.259 48.4233 36.122 46.6863 36.1465C46.131 36.1502 45.5784 36.2259 45.0426 36.3716C43.8927 36.7189 42.8832 37.4218 42.16 38.3786C41.4368 39.3354 41.0373 40.4967 41.0192 41.6947C41.0192 43.2505 41.0192 44.8015 41.0192 46.3573C41.0079 47.6528 40.5555 48.9059 39.7362 49.9113C38.9169 50.9167 37.7794 51.6147 36.51 51.8909C36.1768 51.9666 35.8362 52.006 35.4944 52.0083H32.9724Z" fill="#596AFD"/>
<path d="M9.08705 27.9416C9.1312 27.1392 9.01835 26.1362 9.15083 25.143C9.31711 23.8748 9.90993 22.7003 10.8324 21.8116C11.7548 20.9229 12.9523 20.3725 14.2292 20.2504C16.1708 20.0987 18.1214 20.0987 20.0631 20.2504C21.3524 20.3928 22.5532 20.9735 23.4638 21.8948C24.3743 22.816 24.939 24.0218 25.063 25.3094C25.2003 27.2477 25.2003 29.1932 25.063 31.1315C24.9162 32.381 24.3577 33.5464 23.475 34.4452C22.5923 35.344 21.4354 35.9251 20.1858 36.0975C18.4243 36.2785 16.6481 36.1416 14.8768 36.1709C14.1317 36.1738 13.3932 36.0308 12.7032 35.7501C11.6509 35.3272 10.7473 34.6039 10.1057 33.6708C9.46413 32.7377 9.11317 31.6365 9.09686 30.5053C9.08214 29.7176 9.08705 28.925 9.08705 27.9416Z" fill="#C8E357"/>
</svg>
