<svg width="149" height="66" viewBox="0 0 149 66" fill="none" xmlns="http://www.w3.org/2000/svg">
<path d="M67.5068 58.6234C66.9724 58.6357 66.4463 58.49 65.9942 58.2046C65.553 57.9125 65.2034 57.5015 64.9858 57.0189C64.7257 56.4531 64.5981 55.8353 64.6127 55.2127C64.5992 54.5885 64.7268 53.9693 64.9858 53.4013C65.2062 52.9205 65.5552 52.5102 65.9942 52.2156C66.4463 51.9302 66.9724 51.7846 67.5068 51.7969C67.8401 51.7938 68.1713 51.8502 68.4849 51.9634C68.7736 52.0689 69.0415 52.2243 69.2765 52.4225C69.5021 52.6202 69.6915 52.8559 69.8362 53.1188C69.986 53.385 70.0883 53.6752 70.1387 53.9765H69.5084C69.4622 53.7539 69.3787 53.5406 69.2614 53.3458C69.146 53.1531 68.9975 52.9823 68.8227 52.8413C68.6441 52.6983 68.443 52.5858 68.2278 52.5083C67.9955 52.4302 67.7519 52.391 67.5068 52.3922C67.1037 52.3872 66.7079 52.4994 66.3673 52.7151C66.0071 52.9492 65.7219 53.282 65.5455 53.6738C65.1379 54.6609 65.1379 55.7694 65.5455 56.7566C65.7252 57.1464 66.012 57.4771 66.3723 57.7102C66.7128 57.9214 67.1062 58.0316 67.5068 58.028C67.7519 58.0293 67.9955 57.9901 68.2278 57.912C68.443 57.8344 68.6441 57.7219 68.8227 57.579C68.9975 57.438 69.146 57.2672 69.2614 57.0744C69.3776 56.8791 69.461 56.6661 69.5084 56.4438H70.1387C70.09 56.7432 69.9894 57.0318 69.8412 57.2964C69.5405 57.8297 69.0623 58.2404 68.49 58.4569C68.1747 58.5701 67.8418 58.6265 67.5068 58.6234Z" fill="#1E1349"/>
<path d="M71.5656 58.5277V51.8878H73.7336C74.1421 51.8742 74.5476 51.9627 74.9134 52.1452C75.2193 52.3026 75.4706 52.5488 75.6344 52.8515C75.8011 53.1721 75.8844 53.5296 75.8764 53.8909C75.8806 54.2421 75.7974 54.5889 75.6344 54.9C75.47 55.1997 75.2186 55.4425 74.9134 55.5963C74.5483 55.7752 74.145 55.8619 73.7386 55.8486H71.9185V55.2734H73.7084C74.0036 55.2849 74.2974 55.2261 74.5655 55.1018C74.7832 54.9919 74.9599 54.8151 75.0697 54.5973C75.1882 54.3702 75.2472 54.1167 75.2411 53.8606C75.2489 53.5979 75.1899 53.3375 75.0697 53.1038C74.9602 52.8858 74.7834 52.7088 74.5655 52.5993C74.2971 52.4696 74.0012 52.4072 73.7033 52.4176H72.1907V58.5277H71.5656ZM75.4226 58.5277L73.8092 55.5004H74.5201L76.1537 58.5277H75.4226Z" fill="#1E1349"/>
<path d="M77.3538 58.5275V51.8877H81.2361V52.4729H77.989V54.925H81.0142V55.5002H77.989V57.9927H81.2966V58.5275H77.3538ZM79.0579 51.2065L79.6983 49.9502H80.389L79.5621 51.2368L79.0579 51.2065Z" fill="#1E1349"/>
<path d="M83.4242 51.8877V58.5275H82.7889V51.8877H83.4242ZM84.7503 58.5275H83.1368V57.9624H84.7049C85.2 57.9805 85.691 57.8656 86.1267 57.6294C86.5032 57.4083 86.8011 57.0749 86.9788 56.6758C87.355 55.7262 87.355 54.6688 86.9788 53.7192C86.8072 53.3281 86.5182 53.0001 86.1519 52.7807C85.7431 52.546 85.2767 52.4306 84.8057 52.4477H83.0965V51.8826H84.8461C85.415 51.8649 85.9781 52.0027 86.4746 52.2812C86.9281 52.5452 87.2904 52.9412 87.5133 53.4165C87.7663 53.9716 87.8888 54.5775 87.8712 55.1874C87.8882 55.806 87.764 56.4203 87.5082 56.9836C87.2755 57.4662 86.9007 57.8659 86.4343 58.1289C85.9172 58.4063 85.3367 58.5437 84.7503 58.5275Z" fill="#1E1349"/>
<path d="M89.9889 51.8877V58.5276H89.3536V51.8877H89.9889Z" fill="#1E1349"/>
<path d="M91.3552 52.4731V51.908H96.1955V52.4731H94.093V58.5276H93.4628V52.4731H91.3552Z" fill="#1E1349"/>
<path d="M99.8711 58.6235C99.3368 58.6358 98.8106 58.4901 98.3586 58.2047C97.9199 57.9098 97.571 57.4995 97.3502 57.019C97.0941 56.452 96.9683 55.8348 96.9821 55.2127C96.9695 54.5892 97.0952 53.9705 97.3502 53.4014C97.571 52.9209 97.9199 52.5107 98.3586 52.2157C98.8074 51.9421 99.3229 51.7974 99.8485 51.7974C100.374 51.7974 100.889 51.9421 101.338 52.2157C101.779 52.5089 102.128 52.9196 102.347 53.4014C102.604 53.9698 102.73 54.589 102.715 55.2127C102.731 55.835 102.605 56.4528 102.347 57.019C102.131 57.5026 101.781 57.9141 101.338 58.2047C100.9 58.4827 100.39 58.6281 99.8711 58.6235ZM99.8711 58.0281C100.282 58.0341 100.686 57.9182 101.031 57.6951C101.383 57.4543 101.662 57.1208 101.838 56.7314C102.225 55.7595 102.225 54.676 101.838 53.7041C101.664 53.3125 101.384 52.977 101.031 52.7354C100.682 52.5181 100.279 52.4029 99.8686 52.4029C99.4578 52.4029 99.0552 52.5181 98.7064 52.7354C98.3515 52.9756 98.0718 53.3115 97.8997 53.7041C97.5046 54.6745 97.5046 55.7611 97.8997 56.7314C98.0746 57.1224 98.3537 57.4576 98.7064 57.7002C99.0546 57.9198 99.4597 58.0321 99.8711 58.0231V58.0281Z" fill="#1E1349"/>
<path d="M106.779 58.5276V51.8877H108.942C109.354 51.8744 109.762 51.9682 110.127 52.1602C110.433 52.3293 110.682 52.5857 110.843 52.8968C111.009 53.2194 111.094 53.5781 111.09 53.9412C111.094 54.3076 111.009 54.6695 110.843 54.9957C110.682 55.3082 110.433 55.5663 110.127 55.7374C109.764 55.9298 109.357 56.0238 108.947 56.0099H107.258V55.4448H108.906C109.204 55.4556 109.5 55.3877 109.764 55.248C109.982 55.1248 110.157 54.9383 110.268 54.7132C110.387 54.4737 110.446 54.2087 110.439 53.9412C110.444 53.6756 110.385 53.4126 110.268 53.1743C110.152 52.9609 109.977 52.7857 109.764 52.6698C109.499 52.5337 109.204 52.466 108.906 52.473H107.394V58.5276H106.779Z" fill="#1E1349"/>
<path d="M111.211 58.5277L113.646 51.8828H114.397L116.853 58.5277H116.182L114.604 54.1836C114.513 53.9414 114.417 53.679 114.311 53.341C114.205 53.0029 114.084 52.6295 113.948 52.1704H114.084C113.948 52.6295 113.822 53.0231 113.716 53.351C113.611 53.679 113.515 53.9565 113.434 54.1836L111.886 58.5277H111.211ZM112.345 56.5549V56.005H115.718V56.5701L112.345 56.5549Z" fill="#1E1349"/>
<path d="M117.982 58.5277V51.8878H120.15C120.558 51.8742 120.964 51.9627 121.33 52.1452C121.636 52.3026 121.887 52.5488 122.051 52.8515C122.217 53.1721 122.301 53.5296 122.293 53.8909C122.297 54.2421 122.214 54.5889 122.051 54.9C121.887 55.1984 121.638 55.4409 121.335 55.5963C120.968 55.7747 120.563 55.8613 120.155 55.8486H118.335V55.2734H120.125C120.42 55.2849 120.714 55.2261 120.982 55.1018C121.2 54.9919 121.376 54.8151 121.486 54.5973C121.606 54.3707 121.667 54.1172 121.663 53.8606C121.669 53.5975 121.608 53.3371 121.486 53.1038C121.377 52.8858 121.2 52.7088 120.982 52.5993C120.715 52.4696 120.421 52.4072 120.125 52.4176H118.612V58.5277H117.982ZM121.839 58.5277L120.226 55.5004H120.936L122.57 58.5277H121.839Z" fill="#1E1349"/>
<path d="M123.15 58.5277L125.585 51.8828H126.331L128.787 58.5277H128.121L126.553 54.1886C126.462 53.9464 126.367 53.6841 126.261 53.346C126.155 53.008 126.034 52.6346 125.898 52.1755H126.029C125.891 52.6329 125.77 53.0265 125.666 53.3561C125.56 53.6841 125.464 53.9616 125.383 54.1886L123.82 58.5277H123.15ZM124.279 56.5549V56.005H127.657V56.5701L124.279 56.5549Z" fill="#1E1349"/>
<path d="M132.099 52.4731V51.908H136.945V52.4731H134.842V58.5276H134.212V52.4731H132.099Z" fill="#1E1349"/>
<path d="M138.926 51.8877V58.5276H138.291V51.8877H138.926Z" fill="#1E1349"/>
<path d="M75.6294 11.8165V19.8893H82.2949V26.741H75.6294V34.2033C75.6191 34.8098 75.7333 35.412 75.9648 35.9727C76.1964 36.5333 76.5404 37.0404 76.9756 37.4627C77.4032 37.9061 77.9165 38.2578 78.4843 38.4963C79.052 38.7348 79.6623 38.8553 80.2781 38.8502H82.2949V45.7322H80.2781C77.225 45.7243 74.2993 44.507 72.1404 42.3467C69.9816 40.1863 68.7652 37.2585 68.7572 34.2033V26.741H64.6228V19.8792H68.7572V11.8064L75.6294 11.8165Z" fill="#1E1349"/>
<path d="M92.6309 35.7574C92.8026 36.4109 93.0639 37.0375 93.4074 37.6192C93.7647 38.2217 94.2177 38.7619 94.7485 39.2186C95.8374 40.159 97.2385 40.6576 98.6762 40.6162C99.8133 40.645 100.947 40.4882 102.034 40.152C102.981 39.8126 103.883 39.3603 104.722 38.8049L108.402 43.1491C107.042 44.2226 105.507 45.0538 103.864 45.6062C102.191 46.1226 100.447 46.3745 98.6964 46.3529C96.8884 46.3929 95.0915 46.0611 93.4168 45.3781C91.7421 44.6951 90.2254 43.6754 88.9604 42.3821C87.6627 41.1498 86.6343 39.6617 85.9401 38.0117C85.2459 36.3618 84.9008 34.5858 84.9268 32.7957C84.8971 31.025 85.2187 29.2659 85.873 27.6204C86.5273 25.9749 87.5013 24.4756 88.7385 23.2093C89.9462 21.9352 91.4063 20.9276 93.0255 20.2508C94.6448 19.5739 96.3874 19.2429 98.1418 19.2789C99.8387 19.2345 101.525 19.5635 103.081 20.2427C104.637 20.9218 106.025 21.9345 107.147 23.2093C109.527 25.8329 110.715 29.1075 110.711 33.0329V35.7776L92.6309 35.7574ZM94.5418 26.9631C93.4813 27.9092 92.7708 29.1855 92.525 30.5858H103.789C103.55 29.1856 102.87 27.8986 101.848 26.9127C100.877 26.0553 99.6113 25.6101 98.3183 25.6715C96.947 25.6456 95.6104 26.1028 94.5418 26.9631Z" fill="#1E1349"/>
<path d="M121.617 19.8792V33.5827C121.547 35.1392 122.09 36.6612 123.13 37.8209C123.843 38.6009 124.781 39.1395 125.813 39.3619C126.846 39.5843 127.922 39.4795 128.893 39.0621C130.19 38.4447 131.191 37.3407 131.681 35.9894C131.95 35.2161 132.081 34.4015 132.069 33.5827V19.8792H138.941V33.3254C138.941 37.0826 137.765 40.1855 135.412 42.6343C134.313 43.8067 132.985 44.7413 131.511 45.3801C130.037 46.0189 128.447 46.3485 126.841 46.3485C125.234 46.3485 123.645 46.0189 122.17 45.3801C120.696 44.7413 119.368 43.8067 118.269 42.6343C115.916 40.1889 114.74 37.0859 114.74 33.3254V19.8792H121.617Z" fill="#1E1349"/>
<path d="M33.882 53.6335C33.0551 53.6335 32.2333 53.6335 31.4064 53.6335C29.9469 53.5964 28.5539 53.0149 27.5008 52.003C26.4476 50.9912 25.8104 49.622 25.714 48.1642C25.63 46.2839 25.63 44.402 25.714 42.5183C25.835 40.0309 28.0384 37.6545 30.5644 37.266C30.925 37.2131 31.289 37.1878 31.6535 37.1903H36.1307C37.4921 37.211 38.8175 36.7526 39.8755 35.8949C40.9334 35.0373 41.6567 33.835 41.9189 32.498C41.994 32.1413 42.0311 31.7777 42.0298 31.4132C42.0298 29.8491 42.0298 28.2799 42.0298 26.7158C42.0299 25.2492 41.4707 23.8378 40.4662 22.7698C39.4617 21.7018 38.0878 21.0577 36.6248 20.969C34.9761 20.8631 33.3223 20.8984 31.6736 20.9337C30.2531 20.949 28.8744 20.453 27.7888 19.5361C26.7032 18.6193 25.983 17.3425 25.7594 15.9387C25.7024 15.541 25.6755 15.1396 25.6787 14.7379C25.6787 13.1485 25.6283 11.5592 25.714 9.96988C25.8012 8.64751 26.3305 7.39298 27.2168 6.40821C28.103 5.42344 29.2946 4.76573 30.5997 4.54093C30.8859 4.48884 31.176 4.46183 31.4669 4.46021C33.0955 4.46021 34.719 4.46021 36.3475 4.46021C37.8766 4.47973 39.3379 5.09524 40.4206 6.17593C41.5034 7.25661 42.1223 8.71724 42.1458 10.2474C42.1458 11.761 42.1458 13.31 42.1458 14.8388C42.0999 16.2633 42.5823 17.6545 43.5001 18.7445C44.418 19.8344 45.7064 20.5459 47.1171 20.742C47.4045 20.7815 47.6944 20.7983 47.9844 20.7924H52.4667C53.8893 20.7706 55.2725 21.2602 56.3651 22.1721C57.4577 23.084 58.1873 24.3579 58.4212 25.7622C58.4591 25.9653 58.4793 26.1713 58.4817 26.3778C58.4817 28.4263 58.6935 30.4899 58.3658 32.5232C58.1402 33.7429 57.528 34.8575 56.6199 35.7017C55.7117 36.546 54.556 37.075 53.3238 37.2105C51.544 37.3921 49.7591 37.2508 47.9743 37.276C47.4036 37.2799 46.8358 37.3579 46.2852 37.5081C45.1035 37.8664 44.0662 38.5912 43.3231 39.5779C42.5799 40.5646 42.1694 41.7622 42.1508 42.9976C42.1508 44.6021 42.1508 46.2015 42.1508 47.806C42.1392 49.1419 41.6743 50.4342 40.8324 51.471C39.9906 52.5079 38.8216 53.2277 37.5173 53.5124C37.1748 53.5906 36.8248 53.6312 36.4736 53.6335H33.882Z" fill="#596AFD"/>
<path d="M9.33774 28.8147C9.38312 27.9872 9.26716 26.9529 9.40329 25.9287C9.57415 24.6208 10.1833 23.4096 11.1312 22.4932C12.0791 21.5767 13.3097 21.0091 14.6217 20.8832C16.617 20.7268 18.6214 20.7268 20.6166 20.8832C21.9415 21.0301 23.1754 21.6288 24.1111 22.5789C25.0467 23.529 25.627 24.7724 25.7544 26.1002C25.8955 28.0991 25.8955 30.1055 25.7544 32.1043C25.6036 33.3928 25.0297 34.5947 24.1226 35.5216C23.2156 36.4484 22.0268 37.0477 20.7427 37.2255C18.9326 37.4122 17.1074 37.2709 15.2873 37.3012C14.5215 37.3041 13.7627 37.1567 13.0537 36.8673C11.9723 36.4311 11.0438 35.6852 10.3845 34.7229C9.72523 33.7607 9.36459 32.6251 9.34783 31.4585C9.3327 30.6462 9.33774 29.8288 9.33774 28.8147Z" fill="#1E1349"/>
</svg>
