<svg width="84" height="43" viewBox="0 0 84 43" fill="none" xmlns="http://www.w3.org/2000/svg">
<path d="M79.5 0C79.74 0.04 79.98 0.0800049 80.22 0.130005C82.11 0.570005 83.56 2.25001 83.73 4.19001C83.74 4.36001 83.75 4.53 83.76 4.7C83.77 4.8 83.73 4.83 83.64 4.82C83.61 4.82 83.57 4.82 83.54 4.82C55.77 4.82 28 4.82 0.229992 4.82C-0.0100082 4.82 0.00999061 4.87001 0.00999061 4.61001C0.0199906 2.39001 1.66 0.380003 4.02 0.0500031C4.06 0.0400031 4.11 0.0600021 4.14 0.0100021C29.26 2.13645e-06 54.38 0 79.5 0Z" fill="#C8E357"/>
<path d="M57.4 7.04002C56.97 7.36002 56.61 7.68002 56.26 8.02002C55.35 8.90002 54.59 9.90002 53.82 10.9C52.12 13.1 50.41 15.29 48.71 17.49C48.62 17.61 48.58 17.58 48.51 17.48C47.73 16.49 46.96 15.5 46.18 14.51C46.14 14.46 46.1 14.41 46.05 14.34C45.85 14.61 45.65 14.87 45.46 15.13C44.74 16.1 44.02 17.07 43.29 18.04C43.22 18.13 43.21 18.19 43.29 18.29C44.06 19.27 44.83 20.26 45.6 21.24C45.68 21.34 45.68 21.4 45.6 21.5C43.65 24 41.7 26.51 39.76 29.01C39.38 29.5 39.14 30.04 39.19 30.67C39.28 31.63 39.97 32.47 40.9 32.76C41.81 33.04 42.69 32.77 43.3 31.99C44.34 30.67 45.36 29.35 46.39 28.03C47.11 27.11 47.82 26.19 48.54 25.27C48.63 25.16 48.66 25.17 48.74 25.27C50.48 27.5 52.22 29.73 53.96 31.97C54.33 32.45 54.78 32.82 55.39 32.92C56.29 33.07 57.02 32.74 57.6 32.07C58.35 31.21 58.36 30.11 57.65 29.18C56.75 28.01 55.83 26.85 54.93 25.68C53.84 24.28 52.75 22.89 51.66 21.49C51.6 21.41 51.57 21.35 51.65 21.26C54.06 18.17 56.47 15.06 58.89 11.97C59.75 10.88 60.68 9.85002 61.78 8.99002C63.13 7.94002 64.64 7.28002 66.34 7.04002C66.39 7.03002 66.45 7.03003 66.5 7.03003C72.21 7.03003 77.91 7.03003 83.62 7.03003C83.77 7.03003 83.8 7.08003 83.8 7.22003C83.8 16.56 83.8 25.9 83.8 35.25C83.8 35.4 83.75 35.43 83.61 35.43C64.51 35.43 45.42 35.43 26.32 35.43C26.27 35.43 26.21 35.43 26.15 35.43C26.17 35.4 26.17 35.38 26.18 35.38C27.31 34.56 28.23 33.53 29.09 32.43C31.03 29.94 32.97 27.45 34.9 24.95C35.05 24.76 35.05 24.76 35.19 24.94C35.96 25.93 36.74 26.91 37.51 27.9C37.59 28 37.63 28.01 37.71 27.9C38.6 26.7 39.49 25.51 40.38 24.32C40.45 24.23 40.45 24.17 40.38 24.07C39.61 23.09 38.84 22.1 38.07 21.12C37.99 21.02 37.99 20.96 38.07 20.86C40.03 18.35 41.98 15.83 43.93 13.32C44.28 12.86 44.52 12.36 44.48 11.77C44.42 10.76 43.87 10.07 42.97 9.68002C42.02 9.26002 41.06 9.52002 40.39 10.35C39.7 11.2 39.04 12.08 38.37 12.94C37.3 14.32 36.23 15.7 35.16 17.07C35.12 17.12 35.09 17.16 35.04 17.22C34.68 16.76 34.33 16.31 33.98 15.86C32.55 14.03 31.13 12.2 29.7 10.37C29.34 9.91003 28.9 9.56003 28.31 9.45003C27.41 9.29003 26.68 9.61003 26.09 10.28C25.34 11.13 25.3 12.24 26.01 13.16C26.94 14.38 27.89 15.58 28.83 16.79C29.89 18.15 30.96 19.52 32.02 20.88C32.1 20.98 32.1 21.04 32.02 21.14C29.6 24.24 27.19 27.35 24.76 30.45C23.88 31.57 22.93 32.61 21.79 33.48C20.43 34.51 18.9 35.14 17.2 35.35C16.7 35.41 16.2 35.44 15.7 35.44C10.55 35.44 5.4 35.44 0.25 35.44C0.09 35.44 0.0499878 35.4 0.0499878 35.24C0.0499878 25.9 0.0499878 16.57 0.0499878 7.23003C0.0499878 7.07003 0.09 7.04002 0.25 7.04002C19.24 7.04002 38.23 7.04002 57.23 7.04002C57.24 7.04002 57.29 7.04002 57.4 7.04002ZM13.81 9.37003C13.5 9.38003 13.12 9.39002 12.73 9.43002C12.5 9.45002 12.28 9.48002 12.05 9.52002C9.01999 10.03 6.54999 11.49 4.67999 13.91C2.59999 16.6 1.84 19.67 2.34 23.03C2.69 25.38 3.67999 27.45 5.29999 29.17C7.98999 32.03 11.31 33.27 15.22 32.88C16.73 32.73 18.15 32.27 19.47 31.53C24.26 28.87 26.59 23.39 25.19 18.09C23.84 12.97 19.18 9.37003 13.81 9.37003ZM57.95 21.15C57.98 22.03 58.06 22.89 58.25 23.74C59.31 28.63 63.39 32.33 68.36 32.89C70.09 33.09 71.79 32.91 73.44 32.34C79.07 30.39 82.36 24.55 81.12 18.7C80.03 13.56 75.74 9.79002 70.53 9.40002C68.52 9.25002 66.58 9.57002 64.78 10.46C60.36 12.66 58.19 16.29 57.95 21.15Z" fill="#C8E357"/>
<path d="M41.89 37.66C55.77 37.66 69.66 37.66 83.54 37.66C83.76 37.66 83.76 37.66 83.76 37.87C83.73 40.15 82.01 42.09 79.74 42.39C79.51 42.42 79.28 42.43 79.05 42.43C54.27 42.43 29.49 42.43 4.70999 42.43C2.33999 42.43 0.409988 40.78 0.0499878 38.45C0.0199878 38.22 0 37.99 0 37.77C0 37.68 0.0299951 37.64 0.119995 37.65C0.169995 37.66 0.219989 37.65 0.269989 37.65C14.15 37.66 28.02 37.66 41.89 37.66Z" fill="#C8E357"/>
<path d="M20.9 21.18C20.9 25.07 17.75 28.24 13.89 28.24C10.02 28.24 6.87998 25.06 6.88998 21.16C6.89998 17.26 10.04 14.1 13.9 14.11C17.76 14.11 20.9 17.28 20.9 21.18Z" fill="#C8E357"/>
<path d="M76.67 21.18C76.66 25.08 73.53 28.24 69.67 28.24C65.8 28.24 62.65 25.06 62.67 21.16C62.69 17.25 65.82 14.1 69.68 14.11C73.54 14.11 76.68 17.28 76.67 21.18Z" fill="#C8E357"/>
</svg>
