<svg width="214" height="43" viewBox="0 0 214 43" fill="none" xmlns="http://www.w3.org/2000/svg">
<path d="M23.4278 35.61C25.4178 33.83 25.3677 31.78 24.9177 29.7C24.4777 27.66 23.3278 25.95 22.0878 24.31C20.7578 22.55 19.2478 20.91 18.1178 19.01C16.6078 16.47 16.1078 13.78 17.1178 10.94C17.4778 9.93001 17.9778 8.97 19.0678 8.52C19.1478 8.62 19.2377 8.68 19.2277 8.73C18.9077 11.72 20.2277 14.1 22.0377 16.3C23.2877 17.82 24.5577 19.33 25.7877 20.86C27.3377 22.79 28.7277 24.8 28.5377 27.58C29.4977 27.27 29.7677 26.53 30.0377 25.88C30.9077 23.74 30.6177 21.63 29.6577 19.59C28.6177 17.39 26.9778 15.6 25.5278 13.68C24.5078 12.33 23.5577 10.94 22.8577 9.39001C21.8977 7.26001 21.7078 5.07001 22.3278 2.81001C22.6778 1.53001 23.3078 0.69 24.3978 0C24.4478 0.05 24.5577 0.100007 24.5477 0.140007C24.3077 3.10001 25.5577 5.49 27.2977 7.76C28.8177 9.73 30.3977 11.66 31.7277 13.77C32.8377 15.53 33.6978 17.37 33.4478 19.53C33.3778 20.16 33.7677 20.24 34.2277 20.35C36.7377 20.96 39.1577 21.81 41.4677 22.99C43.0977 23.82 44.5277 24.91 45.7177 26.3C48.2377 29.24 48.1978 32.67 45.5878 35.53C43.1478 38.2 39.9877 39.73 36.6077 40.72C27.1377 43.48 17.7177 43.44 8.41774 39.9C6.06774 39 3.91773 37.75 2.15773 35.91C-0.802267 32.81 -0.702245 29.09 2.36776 26.13C5.51776 23.1 9.48778 21.7 13.5178 20.39C13.8278 20.29 14.1478 20.18 14.3278 20.61C15.8578 24.31 18.8078 27.05 20.9578 30.33C21.5478 31.24 22.1177 32.16 22.7177 33.07C23.2077 33.76 23.4178 34.52 23.4278 35.61Z" fill="#C8E357"/>
<path d="M180.478 24.3C180.478 28.19 180.468 32.09 180.478 35.98C180.478 37.81 180.908 38.15 182.648 37.76C182.888 37.71 183.218 37.43 183.318 37.9C183.388 38.21 183.398 38.6 183.048 38.76C181.588 39.44 180.138 40.15 178.638 40.7C178.008 40.93 177.928 40.14 177.858 39.74C177.658 38.64 177.258 38.67 176.408 39.22C172.518 41.71 167.758 40.87 165.728 37.25C163.968 34.09 164.118 30.82 165.958 27.73C168.108 24.11 172.218 22.72 176.228 24.16C177.148 24.49 177.508 24.47 177.468 23.35C177.398 21.06 177.458 18.77 177.448 16.48C177.438 15.1 176.908 14.72 175.538 14.96C175.258 15.01 174.808 15.45 174.688 14.79C174.608 14.35 174.648 13.98 175.228 13.76C176.738 13.2 178.178 12.47 179.548 11.63C180.378 11.12 180.478 11.51 180.468 12.25C180.448 14.26 180.458 16.26 180.458 18.27C180.478 20.29 180.478 22.3 180.478 24.3ZM177.388 32.06C177.408 32.06 177.428 32.06 177.448 32.06C177.448 30.62 177.458 29.17 177.448 27.73C177.448 27.38 177.538 27.02 177.218 26.72C174.428 24.17 169.738 24.41 168.158 28.06C167.158 30.38 167.338 32.67 168.218 34.95C169.828 39.13 173.468 39.45 176.678 37.62C177.248 37.3 177.438 36.9 177.408 36.27C177.358 34.87 177.388 33.46 177.388 32.06Z" fill="#C8E357"/>
<path d="M75.3377 18C75.3377 18.64 75.3777 19.29 75.3277 19.93C75.2977 20.37 75.6877 21.01 74.7777 21.11C73.9277 21.2 73.9277 20.69 73.8477 20.09C73.2277 15.61 69.2877 14.75 66.4277 15.59C64.8177 16.06 63.6177 17.08 63.3177 18.78C62.9977 20.58 63.6077 22.11 65.1277 23.21C66.5677 24.25 68.2277 24.91 69.8177 25.67C71.3777 26.41 72.9477 27.14 74.1877 28.4C77.1377 31.41 76.6677 36.75 73.2177 39.2C70.8577 40.87 68.1977 41.26 65.3977 40.96C63.9977 40.81 62.6077 40.59 61.2477 40.23C60.6577 40.08 60.3677 39.84 60.3677 39.18C60.3677 37.74 60.2777 36.29 60.2377 34.85C60.2277 34.49 60.0277 34.02 60.6877 33.95C61.2577 33.89 61.4177 34.18 61.5677 34.67C62.7177 38.54 65.9677 40.33 69.7877 39.21C71.7177 38.64 73.0377 37.41 73.3077 35.36C73.5777 33.34 72.9377 31.64 71.1177 30.51C69.0877 29.26 66.8977 28.35 64.7777 27.3C62.7677 26.31 61.0577 24.99 60.4177 22.74C59.4077 19.2 61.6277 15.47 65.3477 14.27C67.8677 13.46 70.3577 13.89 72.8677 14.28C75.1877 14.64 75.1877 14.64 75.2777 16.91C75.2877 17.27 75.2777 17.63 75.2777 17.99C75.2877 18 75.3177 18 75.3377 18Z" fill="#C8E357"/>
<path d="M149.168 26.62C150.168 25.78 150.878 25.09 151.738 24.57C155.058 22.57 158.788 24.09 159.788 27.84C160.038 28.79 160.008 29.75 160.008 30.71C160.008 33.08 160.048 35.45 159.998 37.82C159.968 39.01 160.458 39.52 161.638 39.49C162.068 39.48 162.678 39.26 162.658 40.09C162.638 40.96 161.978 40.61 161.598 40.61C159.628 40.64 157.648 40.64 155.678 40.61C155.308 40.61 154.738 40.87 154.698 40.11C154.658 39.4 155.138 39.47 155.578 39.47C156.718 39.47 157.108 38.87 157.098 37.78C157.058 35.05 157.108 32.32 157.078 29.59C157.048 26.37 154.428 24.83 151.568 26.33C150.128 27.08 149.218 27.98 149.358 29.86C149.568 32.53 149.438 35.24 149.398 37.92C149.388 38.94 149.648 39.56 150.818 39.47C151.218 39.44 151.748 39.31 151.758 40.04C151.768 40.79 151.228 40.61 150.838 40.61C148.828 40.62 146.808 40.62 144.798 40.61C144.448 40.61 143.948 40.8 143.898 40.14C143.848 39.47 144.278 39.5 144.748 39.45C146.168 39.3 146.508 38.94 146.518 37.55C146.538 34.7 146.538 31.85 146.508 29C146.488 27.04 146.288 26.88 144.348 26.98C144.108 26.99 143.948 26.98 143.918 26.73C143.888 26.42 143.778 26.02 144.148 25.87C145.718 25.25 147.198 24.44 148.698 23.66C149.188 23.4 149.168 23.9 149.178 24.2C149.178 24.91 149.168 25.62 149.168 26.62Z" fill="#C8E357"/>
<path d="M95.5278 27.06C95.3778 26.41 95.3378 25.96 96.0278 25.72C97.3978 25.25 98.6777 24.56 99.9177 23.82C100.508 23.47 100.808 23.55 100.778 24.31C100.748 24.95 100.768 25.59 100.768 26.31C101.508 26.22 101.848 25.62 102.318 25.25C105.388 22.82 108.798 23.19 110.648 26.19C111.318 27.27 111.588 28.48 111.588 29.75C111.588 32.44 111.618 35.13 111.568 37.82C111.548 38.99 111.998 39.54 113.198 39.49C113.638 39.47 114.248 39.29 114.238 40.09C114.228 40.93 113.568 40.61 113.168 40.62C111.198 40.65 109.218 40.65 107.248 40.62C106.878 40.62 106.308 40.89 106.258 40.12C106.218 39.42 106.688 39.47 107.138 39.48C108.298 39.5 108.698 38.82 108.698 37.79C108.698 35.1 108.718 32.41 108.678 29.72C108.658 28.26 108.268 26.87 106.848 26.16C105.388 25.43 103.988 25.82 102.618 26.63C101.398 27.36 100.858 28.23 100.938 29.73C101.088 32.49 101.008 35.27 100.968 38.04C100.958 39.05 101.288 39.56 102.358 39.49C102.778 39.46 103.278 39.35 103.288 40.07C103.288 40.83 102.748 40.62 102.348 40.63C100.338 40.64 98.3177 40.65 96.3077 40.63C95.9577 40.63 95.4677 40.83 95.4277 40.15C95.3777 39.47 95.8078 39.51 96.2678 39.47C97.7078 39.33 98.0878 38.93 98.0878 37.48C98.0978 34.71 98.0878 31.94 98.0878 29.17C98.0878 29.09 98.0878 29.01 98.0878 28.93C98.0078 26.86 97.5378 26.51 95.5278 27.06Z" fill="#C8E357"/>
<path d="M91.6978 32.48C91.6978 33.89 91.6778 35.29 91.7078 36.7C91.7278 38.03 92.1878 38.36 93.4378 38.07C93.7278 38 94.1277 37.55 94.2977 38.17C94.4077 38.58 94.2878 38.94 93.8078 39.13C92.8078 39.54 91.7978 39.96 90.8278 40.44C89.9878 40.85 89.5278 40.61 89.3378 39.74C89.1678 38.92 88.8478 38.78 88.1478 39.34C86.7478 40.43 85.1278 40.78 83.3678 40.6C81.5878 40.42 80.2878 39.26 79.9478 37.54C79.5878 35.73 80.1778 34.41 81.8278 33.52C83.7778 32.46 85.8778 31.74 87.9578 30.98C88.6778 30.72 88.9877 30.35 88.9177 29.58C88.8377 28.74 88.8377 27.89 88.5377 27.09C87.8477 25.23 86.0178 24.58 84.3278 25.58C83.3778 26.14 82.9877 26.9 83.3477 28C83.5877 28.73 82.8577 29.49 81.6577 29.8C80.8077 30.03 80.8777 29.25 80.7377 28.85C80.4377 28.02 80.4277 27.12 81.1077 26.48C82.8977 24.79 84.8478 23.41 87.4978 23.68C90.0178 23.93 91.5878 25.61 91.6778 28.14C91.7278 29.59 91.6878 31.03 91.6978 32.48ZM88.9077 34.63C88.9077 33.95 88.8977 33.27 88.9077 32.59C88.9177 32.16 88.7378 31.98 88.3278 32.16C86.7978 32.85 85.1578 33.33 83.7578 34.28C82.7278 34.97 82.4978 36.14 83.0578 37.24C83.7078 38.51 84.9177 39.01 86.4177 38.66C88.0577 38.27 88.8978 37.32 88.8978 35.84C88.9078 35.43 88.9077 35.03 88.9077 34.63Z" fill="#C8E357"/>
<path d="M140.088 32.37C140.088 33.78 140.068 35.18 140.088 36.59C140.108 38.07 140.528 38.37 141.948 38.03C142.208 37.97 142.578 37.61 142.718 38.14C142.808 38.48 142.798 38.87 142.368 39.06C141.228 39.56 140.088 40.07 138.948 40.56C138.188 40.88 137.878 40.36 137.768 39.78C137.568 38.72 137.198 38.84 136.478 39.4C135.038 40.52 133.358 40.81 131.568 40.57C129.958 40.36 128.678 39.16 128.358 37.57C127.998 35.78 128.618 34.39 130.218 33.54C132.208 32.48 134.318 31.68 136.458 30.96C137.098 30.74 137.348 30.43 137.298 29.75C137.238 28.79 137.238 27.82 136.858 26.91C136.038 24.94 133.728 24.47 132.198 25.97C131.618 26.54 131.498 27.19 131.728 27.96C131.958 28.71 131.188 29.58 130.018 29.81C129.198 29.97 129.238 29.15 129.088 28.72C128.848 27.98 128.828 27.15 129.438 26.57C131.308 24.77 133.368 23.35 136.158 23.71C138.518 24.02 140.048 25.77 140.078 28.16C140.098 29.56 140.088 30.96 140.088 32.37ZM137.278 34.63C137.278 33.95 137.268 33.27 137.278 32.59C137.288 32.18 137.168 31.95 136.728 32.16C135.208 32.88 133.568 33.33 132.168 34.29C131.078 35.04 130.868 36.21 131.518 37.34C132.228 38.56 133.468 39.03 134.938 38.63C136.528 38.2 137.268 37.31 137.278 35.83C137.278 35.43 137.278 35.03 137.278 34.63Z" fill="#C8E357"/>
<path d="M193.678 30.89C191.988 30.89 190.298 30.91 188.598 30.88C187.928 30.87 187.668 31.04 187.748 31.76C187.928 33.24 188.098 34.72 188.878 36.03C190.628 38.96 193.858 39.9 197.558 38.56C197.898 38.44 198.218 38.27 198.558 38.14C198.818 38.04 199.128 37.63 199.348 38.04C199.538 38.4 199.398 38.8 198.978 39.06C195.128 41.47 189.528 41.47 186.568 37.7C183.488 33.77 184.138 28.34 187.958 25.33C190.638 23.23 193.528 23.17 196.468 24.56C198.808 25.66 199.438 27.89 199.718 30.24C199.798 30.94 199.328 30.89 198.868 30.89C197.138 30.88 195.408 30.89 193.678 30.89ZM192.138 29.47C193.348 29.47 194.548 29.42 195.758 29.49C196.668 29.54 196.738 29.15 196.598 28.42C196.188 26.24 194.498 24.97 192.038 25.05C189.848 25.12 188.038 26.73 187.798 28.77C187.738 29.29 187.858 29.49 188.408 29.48C189.638 29.45 190.888 29.47 192.138 29.47Z" fill="#C8E357"/>
<path d="M126.278 23.95C126.228 25.15 125.778 25.71 124.558 25.59C123.518 25.48 122.468 25.59 121.418 25.56C120.818 25.54 120.548 25.7 120.558 26.36C120.588 29.25 120.508 32.15 120.598 35.03C120.688 37.72 123.078 39.04 125.498 37.85C125.748 37.73 125.988 37.58 126.238 37.45C126.488 37.32 126.698 37.37 126.858 37.62C127.018 37.88 127.048 38.07 126.808 38.35C125.258 40.24 123.228 41.02 121.298 40.42C119.178 39.76 117.758 37.88 117.688 35.38C117.608 32.53 117.608 29.68 117.658 26.83C117.678 25.86 117.448 25.42 116.408 25.55C115.818 25.63 115.198 25.57 114.598 25.56C114.398 25.56 114.158 25.59 114.068 25.37C113.978 25.15 114.148 25 114.318 24.88C116.578 23.39 118.328 21.43 119.698 19.11C119.838 18.87 120.008 18.59 120.358 18.74C120.638 18.86 120.558 19.15 120.568 19.38C120.578 20.46 120.638 21.55 120.548 22.63C120.468 23.64 120.698 24.07 121.838 23.98C123.308 23.86 124.788 23.95 126.278 23.95Z" fill="#C8E357"/>
<path d="M206.578 27.26C207.368 26.17 207.958 25.38 208.678 24.7C209.938 23.51 211.368 23.41 212.938 23.92C213.308 24.04 213.468 24.22 213.458 24.6C213.448 25.4 213.458 26.2 213.448 27.01C213.448 27.21 213.448 27.42 213.208 27.51C213.018 27.58 212.898 27.45 212.818 27.32C211.938 25.87 210.588 26.01 209.288 26.42C207.908 26.85 207.008 27.98 206.938 29.36C206.778 32.44 206.848 35.53 206.838 38.62C206.838 39.5 207.508 39.46 208.128 39.49C208.528 39.51 209.058 39.3 209.088 40.04C209.118 40.89 208.488 40.63 208.078 40.63C206.108 40.65 204.138 40.65 202.158 40.63C201.818 40.63 201.318 40.84 201.278 40.15C201.238 39.47 201.648 39.52 202.118 39.47C203.498 39.32 203.888 38.93 203.898 37.56C203.918 34.75 203.928 31.94 203.898 29.14C203.878 27.29 203.668 27.14 201.838 27.27C201.618 27.29 201.408 27.34 201.378 27.07C201.328 26.72 201.228 26.32 201.678 26.14C203.208 25.52 204.678 24.8 205.978 23.75C206.438 23.37 206.578 23.78 206.578 24.21C206.578 25.1 206.578 26 206.578 27.26Z" fill="#C8E357"/>
</svg>
