<svg width="176" height="44" viewBox="0 0 176 44" fill="none" xmlns="http://www.w3.org/2000/svg">
<path d="M168.852 36.6889C169.542 32.1289 170.242 27.5989 170.922 23.0689C171.152 21.5189 171.272 19.8889 169.622 19.0489C168.042 18.2489 166.672 19.1089 165.492 20.1489C163.642 21.7689 163.632 24.0989 163.262 26.2589C162.742 29.3489 162.292 32.4589 161.902 35.5789C161.782 36.5589 161.382 36.8389 160.442 36.8589C157.252 36.9389 157.212 36.9589 157.642 33.8289C158.112 30.3489 158.672 26.8789 159.212 23.3989C159.562 21.1889 159.032 19.4689 157.782 18.9289C156.472 18.3689 154.562 19.1189 153.232 20.7489C151.682 22.6389 151.862 25.0289 151.472 27.2389C151.012 29.8489 150.702 32.4889 150.382 35.1189C150.212 36.4989 149.622 37.0189 148.142 36.8989C145.552 36.6889 145.522 36.7889 145.922 34.1389C146.762 28.6889 147.622 23.2389 148.482 17.7889C148.642 16.7789 151.252 14.5989 152.222 14.7089C152.982 14.7989 152.682 15.4189 152.682 15.8589C152.682 16.1889 152.122 16.5489 152.672 16.8189C153.052 17.0089 153.372 16.6489 153.682 16.4289C155.392 15.2189 157.262 14.6589 159.362 15.0289C160.772 15.2789 161.932 15.9989 162.672 17.1989C163.172 17.9989 163.432 17.8389 163.952 17.2689C165.982 15.0589 168.512 14.4989 171.382 15.1489C174.282 15.7989 175.862 17.8289 175.522 20.8289C175.052 24.9789 174.412 29.0989 173.802 33.2289C173.632 34.3889 173.882 36.1489 173.052 36.5389C171.912 37.0989 170.322 36.6889 168.852 36.6889Z" fill="#C8E357"/>
<path d="M130.662 18.1089C132.922 15.1689 136.102 14.1789 139.532 15.2989C141.722 16.0189 142.962 18.1489 142.802 20.6889C142.502 25.5689 141.522 30.3589 140.942 35.1989C140.782 36.5489 140.192 36.9989 138.802 36.8989C136.142 36.7089 136.202 36.7989 136.632 34.1589C137.262 30.3089 137.792 26.4389 138.332 22.5789C138.522 21.2389 138.432 19.8789 137.122 19.1189C135.772 18.3389 134.532 18.9289 133.352 19.7289C131.652 20.8789 131.212 22.6589 130.922 24.4889C130.332 28.1789 129.752 31.8689 129.282 35.5789C129.152 36.5989 128.782 36.8089 127.862 36.8189C124.722 36.8489 124.652 36.8789 125.032 33.8089C125.432 30.5889 125.972 27.3789 126.462 24.1689C126.602 23.2589 126.742 22.3489 126.672 21.4189C126.492 19.2589 124.922 18.2189 122.912 19.0289C120.942 19.8189 119.792 21.3589 119.462 23.4189C118.852 27.2189 118.292 31.0189 117.802 34.8289C117.612 36.2989 117.142 37.1689 115.462 36.8589C114.672 36.7089 113.842 36.9889 113.022 36.6889C113.972 30.3589 114.912 24.0389 115.852 17.7289C116.012 16.6889 118.422 14.7789 119.542 14.7989C119.992 14.8089 120.082 15.0589 120.082 15.4189C120.082 15.9589 120.082 16.5089 120.082 17.2089C121.752 15.7589 123.552 14.8889 125.722 14.9289C128.032 14.9589 129.542 16.2089 130.662 18.1089Z" fill="#C8E357"/>
<path d="M32.6024 14.8989C32.8924 14.9089 33.5523 14.8789 34.1923 14.9789C37.7923 15.5189 39.7424 17.4689 39.7224 20.4589C39.6924 24.5289 37.7923 26.9689 34.0623 27.6089C31.5523 28.0389 29.0223 28.3689 26.5223 28.7989C24.7223 29.1089 24.0723 30.8789 25.1423 32.4489C25.7323 33.3089 26.6023 33.7489 27.6223 33.8189C29.9123 33.9689 32.1623 33.8489 34.3623 33.0489C34.7923 32.8889 35.4623 31.9489 35.9123 33.0889C36.3023 34.0489 36.7323 35.0189 35.4123 35.6989C32.6323 37.1289 29.6924 37.6789 26.5924 37.2789C25.7324 37.1689 24.8723 36.9989 24.0523 36.7389C21.8523 36.0289 20.4823 34.5289 20.1523 32.2189C19.6523 28.6689 20.0623 25.1889 21.2523 21.8189C22.9023 17.1689 26.5624 14.8989 32.6024 14.8989ZM25.9823 25.4689C28.6623 24.9989 31.0423 24.8089 33.3123 24.0689C35.1023 23.4889 35.8023 22.3189 35.5323 20.4789C35.3423 19.1889 34.0723 18.2289 32.4423 18.1589C28.6723 17.9889 26.1123 20.1089 25.1723 24.1489C24.9623 25.1189 24.7823 26.0289 25.9823 25.4689Z" fill="#C8E357"/>
<path d="M91.3623 29.549C91.3423 27.309 91.7324 25.139 92.3224 22.989C94.2024 16.149 99.4124 14.299 105.302 15.049C109.422 15.569 111.172 17.639 111.212 21.829C111.242 25.139 110.622 28.379 109.272 31.459C107.202 36.169 103.202 37.659 98.5624 37.319C97.8024 37.259 97.0524 37.159 96.3124 36.999C92.7624 36.239 91.3623 34.099 91.3623 29.549ZM106.692 22.339C106.632 21.879 106.542 21.069 106.432 20.269C106.292 19.239 105.652 18.549 104.692 18.339C102.192 17.809 99.3423 18.079 97.9023 21.049C96.3423 24.259 96.1324 27.709 96.3124 31.189C96.3824 32.459 97.1624 33.399 98.4624 33.749C101.232 34.489 103.882 33.229 105.032 30.569C106.112 28.069 106.612 25.419 106.692 22.339Z" fill="#C8E357"/>
<path d="M51.2024 29.479C51.0624 27.009 51.5423 24.629 52.2823 22.299C53.8023 17.529 57.1424 15.179 62.5724 14.929C64.0024 14.869 65.4023 14.999 66.7823 15.299C69.8423 15.959 71.3823 18.759 70.6923 22.259C70.0223 25.659 67.9123 27.329 63.5523 27.949C61.4023 28.249 59.2723 28.669 57.1223 28.879C56.0123 28.989 55.7723 29.519 55.7623 30.459C55.7323 32.439 56.9623 33.709 59.1323 33.839C61.3123 33.969 63.4523 33.809 65.5223 32.989C65.9923 32.799 66.7823 32.029 67.1223 33.089C67.3923 33.919 68.0923 34.949 66.7423 35.619C63.9623 36.999 61.0423 37.669 57.9323 37.299C57.1823 37.209 56.4424 37.019 55.7124 36.829C52.7824 36.079 51.2523 34.139 51.1923 31.109C51.1923 30.559 51.2024 30.019 51.2024 29.479ZM63.1923 18.159C59.2723 18.029 56.7523 21.119 56.2323 24.889C56.1323 25.629 56.4923 25.499 56.9823 25.439C59.3423 25.169 61.6923 24.839 63.9923 24.249C66.0023 23.729 67.0723 22.279 66.7923 20.669C66.5023 18.999 65.2923 18.159 63.1923 18.159Z" fill="#C8E357"/>
<path d="M85.0023 14.8989C86.7523 14.8189 88.6624 15.4489 90.4424 16.6189C91.0624 17.0289 91.1624 17.3189 90.6824 17.8489C90.5324 18.0089 90.4324 18.199 90.3124 18.379C89.8424 19.039 89.5123 20.0189 88.8823 20.2789C88.0923 20.5989 87.9624 19.349 87.3524 18.939C85.3424 17.589 82.4623 18.0489 80.6423 20.1689C78.7423 22.3789 78.2223 25.0989 78.0323 27.8589C77.6723 33.1889 79.8224 34.8789 85.0424 33.4989C85.4624 33.3889 85.8523 33.1589 86.2723 33.1089C86.8223 33.0289 87.4724 31.8789 87.9324 33.1489C88.2624 34.0689 88.8024 35.0089 87.4224 35.7389C83.9624 37.5689 80.4223 37.9089 76.7523 36.5989C74.8623 35.9289 73.7523 34.499 73.4023 32.549C72.7023 28.729 73.0824 24.989 74.5624 21.409C76.3824 16.929 79.8623 14.9189 85.0023 14.8989Z" fill="#C8E357"/>
<path d="M7.46243 8.62894C6.11243 10.5289 5.00241 11.5689 3.81241 11.9989C4.78241 10.0989 3.63244 10.1489 2.34244 10.1689C-0.197561 10.2089 -0.197595 10.1789 0.182405 7.77894C0.462405 6.00894 0.70238 4.23893 1.03238 2.47893C1.36238 0.708933 2.16239 0.0189339 3.91239 0.0189339C12.0124 -0.00106609 20.1124 -0.0110661 28.2024 0.0189339C30.8824 0.0289339 31.5824 0.908929 31.1924 3.56893C30.8624 5.76893 30.5424 7.96894 30.1424 10.1589C30.0524 10.6389 30.3224 11.6089 29.4624 11.4889C28.6324 11.3789 28.0324 10.6689 28.1424 9.70893C28.2824 8.52893 28.5724 7.35893 28.6724 6.17893C28.8524 4.19893 28.4424 3.77893 26.4324 3.72893C25.1824 3.69893 23.9324 3.72894 22.6824 3.71894C21.5624 3.69894 20.4424 3.54893 19.8824 4.94893C19.6924 5.43893 19.0024 5.56894 18.4724 5.66894C17.6424 5.82894 16.8224 5.61893 16.6924 4.72893C16.5824 3.95893 17.3524 3.69893 18.0224 3.61893C18.6724 3.53893 19.3224 3.55894 19.9724 3.51894C20.3924 3.48894 20.4823 3.18893 20.4823 2.83893C20.4723 2.44893 20.1624 2.45893 19.9024 2.45893C16.1124 2.37893 12.3024 1.99894 8.56241 3.04894C6.03241 3.75894 4.33243 5.36894 3.21243 7.68894C2.89243 8.35894 3.00241 8.67894 3.81241 8.65894C5.01241 8.60894 6.19243 8.62894 7.46243 8.62894Z" fill="#C8E357"/>
<path d="M42.1223 42.5089C74.5523 41.7989 106.952 41.7189 139.352 42.5689C106.932 43.1589 74.5123 43.5089 42.1223 42.5089Z" fill="#C8E357"/>
<path d="M43.2724 36.7889C42.8924 36.7889 42.5024 36.7489 42.1324 36.7989C41.2524 36.9089 40.9725 36.5589 41.1025 35.6989C42.1325 29.0689 43.1424 22.4289 44.1624 15.7889C44.4424 13.9689 44.7524 12.1589 44.9924 10.3289C45.2424 8.37892 47.4324 6.21892 49.3624 6.08892C50.1824 6.02892 50.2424 6.53892 50.1424 7.13892C49.5824 10.7189 49.0024 14.2989 48.4524 17.8889C47.6124 23.3989 46.7625 28.8989 45.9725 34.4189C45.6325 36.7789 45.7124 36.7889 43.2724 36.7889Z" fill="#C8E357"/>
<path d="M9.1123 36.7889C9.9923 30.8989 10.8024 25.1789 11.7124 19.4789C12.0524 17.3289 12.8023 15.2789 14.0223 13.4589C16.5723 9.67893 22.8523 8.03893 27.0223 10.0089C27.1623 10.0689 27.3024 10.1189 27.2924 10.4989C26.5124 10.5789 25.7324 10.6089 24.9624 10.7489C19.8124 11.6689 17.0123 14.6189 16.2423 19.8289C15.4823 25.0189 14.6824 30.2089 13.9424 35.3989C13.7924 36.4189 13.4524 36.9389 12.3124 36.8189C11.3024 36.7089 10.2723 36.7889 9.1123 36.7889Z" fill="#C8E357"/>
</svg>
