<svg width="62" height="61" viewBox="0 0 62 61" fill="none" xmlns="http://www.w3.org/2000/svg">
<path d="M31.0894 61C30.0602 61 29.0373 61 28.0082 61C26.1917 60.954 24.458 60.2326 23.1472 58.9774C21.8365 57.7222 21.0433 56.0237 20.9234 54.2153C20.8188 51.8827 20.8188 49.5481 20.9234 47.2115C21.074 44.1258 23.8163 41.1778 26.9602 40.6959C27.409 40.6304 27.8621 40.599 28.3157 40.602H33.8881C35.5825 40.6278 37.2321 40.059 38.5489 38.9951C39.8656 37.9312 40.7658 36.4397 41.0921 34.7811C41.1856 34.3387 41.2318 33.8876 41.2302 33.4355C41.2302 31.4952 41.2302 29.5486 41.2302 27.6084C41.2303 25.789 40.5343 24.0381 39.2841 22.7133C38.0339 21.3884 36.3239 20.5894 34.5031 20.4794C32.4511 20.3479 30.3928 20.3918 28.3408 20.4356C26.5728 20.4545 24.8569 19.8393 23.5057 18.7019C22.1546 17.5645 21.2582 15.9807 20.9799 14.2392C20.909 13.7458 20.8754 13.2479 20.8795 12.7495C20.8795 10.778 20.8167 8.80638 20.9234 6.8348C21.032 5.1944 21.6907 3.63814 22.7937 2.41652C23.8967 1.1949 25.3798 0.379001 27.0041 0.100144C27.3603 0.0355223 27.7215 0.00201415 28.0835 0C30.1104 0 32.131 0 34.158 0C36.0611 0.0242183 37.8798 0.787773 39.2274 2.12837C40.575 3.46897 41.3453 5.2809 41.3745 7.17905C41.3745 9.05674 41.3745 10.9782 41.3745 12.8747C41.3174 14.6419 41.9178 16.3677 43.0602 17.7198C44.2026 19.0718 45.8061 19.9544 47.5619 20.1977C47.9195 20.2467 48.2804 20.2676 48.6413 20.2603H54.22C55.9906 20.2333 57.7122 20.8405 59.0721 21.9718C60.4319 23.103 61.3399 24.6833 61.6311 26.4254C61.6782 26.6773 61.7034 26.9328 61.7064 27.189C61.7064 29.7301 61.97 32.2901 61.5621 34.8124C61.2814 36.3255 60.5194 37.7081 59.3891 38.7554C58.2588 39.8027 56.8203 40.459 55.2868 40.627C53.0716 40.8523 50.8502 40.6771 48.6287 40.7084C47.9185 40.7132 47.2118 40.8099 46.5265 40.9963C45.0558 41.4407 43.7647 42.3398 42.8398 43.5639C41.9149 44.7879 41.4039 46.2735 41.3808 47.8061C41.3808 49.7964 41.3808 51.7805 41.3808 53.7709C41.3663 55.4281 40.7878 57.0312 39.7399 58.3174C38.6921 59.6036 37.2372 60.4965 35.6138 60.8498C35.1876 60.9467 34.752 60.9971 34.3148 61H31.0894Z" fill="#556BFF"/>
<path d="M0.794008 30.2093C0.849076 29.1654 0.708346 27.8605 0.87355 26.5683C1.0809 24.9182 1.82016 23.3902 2.97048 22.2339C4.1208 21.0777 5.61413 20.3616 7.20636 20.2028C9.62767 20.0054 12.0601 20.0054 14.4814 20.2028C16.0892 20.388 17.5867 21.1435 18.7221 22.3421C19.8576 23.5408 20.5617 25.1095 20.7163 26.7847C20.8877 29.3065 20.8877 31.8378 20.7163 34.3597C20.5334 35.9852 19.8369 37.5016 18.7362 38.6709C17.6354 39.8402 16.1927 40.5964 14.6344 40.8207C12.4378 41.0562 10.2229 40.878 8.01402 40.9162C7.08478 40.9199 6.16386 40.7339 5.30346 40.3687C3.99121 39.8185 2.86437 38.8773 2.06431 37.6634C1.26425 36.4494 0.826589 35.0166 0.806246 33.5449C0.78789 32.52 0.794008 31.4888 0.794008 30.2093Z" fill="#1E1349"/>
</svg>
