<svg width="77" height="50" viewBox="0 0 77 50" fill="none" xmlns="http://www.w3.org/2000/svg">
<path d="M56.44 34.2405C56.2 34.2405 56.01 34.4304 56.01 34.6704V49.3206C56.01 49.5606 56.2 49.7505 56.44 49.7505H58.85V44.1404C58.85 43.8104 59.12 43.5405 59.45 43.5405H76.71V40.8804C76.71 40.6404 76.52 40.4504 76.28 40.4504H59.45C59.12 40.4504 58.85 40.1806 58.85 39.8506V34.2405H56.44Z" fill="#556BFF"/>
<path d="M61.11 21.2405C60.28 22.1205 59.63 23.1405 59.16 24.2905C58.69 25.4405 58.46 26.6306 58.46 27.8706C58.46 29.1106 58.69 30.2904 59.16 31.4404C59.63 32.5904 60.28 33.6105 61.11 34.4905C61.94 35.3805 62.92 36.0706 64.04 36.5806C65.16 37.0906 66.34 37.3406 67.57 37.3406C68.8 37.3406 69.98 37.0906 71.1 36.5806C72.22 36.0706 73.21 35.3805 74.05 34.4905C74.9 33.6105 75.55 32.5904 76.02 31.4404C76.49 30.2904 76.72 29.1006 76.72 27.8706C76.72 25.9806 76.2 24.2504 75.16 22.6704C74.27 21.3204 73.15 20.2906 71.8 19.5706V23.1304C72.13 23.4304 72.45 23.7704 72.73 24.1604C73.21 24.8104 73.53 25.4506 73.71 26.1106C73.89 26.7606 73.98 27.3506 73.98 27.8706C73.98 29.3406 73.5 30.6505 72.54 31.8105C71.58 32.9705 70.38 33.7105 68.95 34.0305V18.5105C68.35 18.4305 67.9 18.3904 67.58 18.3904C66.35 18.3904 65.17 18.6404 64.05 19.1504C62.92 19.6604 61.94 20.3605 61.11 21.2405ZM66.2 34.0405C64.79 33.7205 63.61 32.9906 62.64 31.8406C61.68 30.6906 61.2 29.3704 61.2 27.8804C61.2 26.9704 61.38 26.1404 61.74 25.3904C62.1 24.6504 62.52 24.0205 63.02 23.5005C63.52 22.9805 64.05 22.5805 64.61 22.2905C65.17 22.0005 65.71 21.8004 66.2 21.6804V34.0405Z" fill="#556BFF"/>
<path d="M58.98 0.41029V2.97035H69.3C70.09 2.97035 70.87 3.17046 71.62 3.58046C72.37 3.99046 72.95 4.57045 73.36 5.32045C73.77 6.07045 73.97 6.85027 73.97 7.64027C73.97 8.43027 73.77 9.21034 73.36 9.96034C72.95 10.7103 72.37 11.2903 71.62 11.7003C70.87 12.1103 70.09 12.3104 69.3 12.3104H59.39C59.16 12.3104 58.98 12.5003 58.98 12.7203V15.2804H69.39C70.46 15.2804 71.45 15.0903 72.36 14.7003C73.27 14.3103 74.05 13.7705 74.7 13.0805C75.34 12.3905 75.84 11.5703 76.19 10.6303C76.54 9.69026 76.71 8.69027 76.71 7.64027C76.71 6.59027 76.54 5.59028 76.19 4.65028C75.84 3.71028 75.35 2.89033 74.7 2.20033C74.06 1.51033 73.28 0.970456 72.36 0.580456C71.45 0.190456 70.46 0.000377704 69.39 0.000377704H59.39C59.17 -0.0096223 58.98 0.18029 58.98 0.41029Z" fill="#556BFF"/>
<path d="M47.79 0.120605H34.89C33.83 0.120605 32.97 0.980527 32.97 2.04053L32.96 15.4604C32.96 16.2304 32.57 16.9504 31.93 17.3804L17.95 26.5806C17.03 27.1806 16.48 28.1905 16.48 29.2905V47.9204C16.48 48.9404 17.31 49.7705 18.33 49.7705H31.43C32.45 49.7705 33.28 48.9404 33.28 47.9204V18.4004C33.28 17.5604 33.96 16.8804 34.8 16.8804L47.79 16.8706C48.85 16.8706 49.71 16.0104 49.71 14.9504V2.05054C49.71 0.980537 48.85 0.120605 47.79 0.120605Z" fill="#556BFF"/>
<path d="M16.74 1.97046C16.74 0.880459 15.85 0.000488281 14.77 0.000488281H1.97003C0.880032 0.000488281 0 0.890459 0 1.97046V14.7605C0 15.8505 0.890032 16.7305 1.97003 16.7305H14.77C15.86 16.7305 16.74 15.8405 16.74 14.7605V1.97046Z" fill="#556BFF"/>
</svg>
