<svg width="180" height="44" viewBox="0 0 180 44" fill="none" xmlns="http://www.w3.org/2000/svg">
<path d="M156.248 43.07C155.878 42.95 155.478 42.89 155.118 42.72C154.138 42.24 153.778 41.65 153.868 40.57C154.038 38.61 154.228 36.66 154.408 34.7C154.548 33.12 154.698 31.53 154.828 29.95C154.868 29.48 155.088 29.15 155.478 28.93C156.378 28.43 157.288 28.44 158.178 28.97C158.558 29.2 158.748 29.56 158.788 30.01C158.988 32.34 159.198 34.67 159.408 36.99C159.528 38.32 159.668 39.64 159.748 40.97C159.788 41.65 159.378 42.12 158.838 42.49C158.398 42.8 157.878 42.89 157.378 43.05C156.998 43.07 156.618 43.07 156.248 43.07Z" fill="#CEE36D"/>
<path d="M23.1179 28.38C23.2579 27.56 23.3979 26.75 23.5479 25.93C24.2579 22.01 25.0879 18.11 25.9079 14.21C26.2479 12.61 26.5879 11.01 26.9179 9.41C26.9679 9.19 27.0378 9.13 27.2578 9.13C28.8378 9.14 30.4278 9.14 32.0078 9.13C32.2778 9.13 32.3078 9.19 32.2478 9.45C30.0878 17.58 27.9379 25.71 25.7879 33.85C25.7379 34.06 25.6479 34.15 25.4279 34.19C24.5579 34.35 23.6879 34.44 22.8079 34.33C21.1279 34.12 20.0679 33.15 19.5579 31.57C19.1479 30.32 18.9479 29.03 18.6579 27.75C18.0079 24.81 17.3378 21.87 16.7778 18.9C16.5578 17.69 16.3779 16.48 16.2279 15.22C16.0579 15.37 16.0979 15.56 16.0779 15.71C15.6279 18.49 14.9279 21.22 14.2479 23.96C13.4379 27.24 12.6279 30.52 11.8279 33.8C11.7679 34.06 11.6578 34.15 11.3978 34.2C10.3278 34.37 9.25788 34.49 8.18788 34.25C7.24788 34.03 6.53785 33.5 6.02785 32.69C5.48785 31.82 5.23794 30.85 4.99794 29.87C3.33794 23.08 1.68785 16.29 0.0278496 9.50999C-0.0521504 9.17999 0.0378984 9.14999 0.327898 9.14999C1.9679 9.15999 3.60794 9.15999 5.24794 9.14999C5.47794 9.14999 5.58783 9.19 5.63784 9.45C6.82784 15.64 8.10784 21.81 9.14784 28.02C9.17784 28.19 9.21788 28.35 9.30788 28.52C9.42788 27.86 9.52785 27.2 9.65785 26.55C10.4179 22.79 11.3079 19.06 12.1779 15.33C12.6379 13.37 13.0979 11.42 13.5479 9.46001C13.6079 9.22001 13.6979 9.14999 13.9379 9.14999C15.5879 9.15999 17.2478 9.15999 18.8978 9.14999C19.1278 9.14999 19.2178 9.21 19.2678 9.45C20.1878 13.82 21.1179 18.18 22.0379 22.55C22.4179 24.38 22.7579 26.22 22.9979 28.08C23.0079 28.18 23.0379 28.28 23.0579 28.39C23.0779 28.37 23.0979 28.37 23.1179 28.38Z" fill="#CEE36D"/>
<path d="M62.9578 17.87C63.3378 17.3 63.7378 16.76 64.2678 16.32C65.5978 15.19 67.1679 14.84 68.8579 14.95C71.0079 15.09 72.6078 16.1 73.5278 18.08C73.6678 18.38 73.7379 18.21 73.8379 18.07C74.6179 16.99 75.5579 16.07 76.7979 15.56C79.2279 14.56 81.5878 14.58 83.7078 16.32C84.9878 17.37 85.5579 18.85 85.8779 20.43C86.0579 21.32 86.1079 22.21 86.1079 23.12C86.1079 26.67 86.1079 30.21 86.1179 33.76C86.1179 34.05 86.0478 34.13 85.7478 34.13C84.2978 34.11 82.8379 34.11 81.3879 34.13C81.0579 34.13 81.0078 34.02 81.0078 33.73C81.0178 30.49 81.0178 27.24 81.0078 24C81.0078 23.12 80.958 22.24 80.688 21.4C80.208 19.87 79.2879 19.16 77.8479 19.17C76.4479 19.18 75.2379 20.11 74.8279 21.48C74.6679 22.01 74.6179 22.56 74.6179 23.11C74.6179 26.65 74.6179 30.18 74.6279 33.72C74.6279 34.02 74.5778 34.14 74.2378 34.13C72.7878 34.11 71.3279 34.11 69.8779 34.13C69.5879 34.13 69.5078 34.05 69.5078 33.76C69.5178 30.38 69.5178 26.99 69.5178 23.61C69.5178 22.75 69.4479 21.91 69.1479 21.09C68.3079 18.74 65.6979 18.73 64.3979 20.01C63.6079 20.79 63.1479 21.73 63.1479 22.85C63.1379 26.46 63.1379 30.06 63.1379 33.67C63.1379 34.12 63.138 34.12 62.688 34.12C61.238 34.12 59.7779 34.11 58.3279 34.13C58.0879 34.13 58.0178 34.07 58.0178 33.82C58.0278 27.76 58.0278 21.69 58.0178 15.63C58.0178 15.4 58.0779 15.33 58.3079 15.33C59.7379 15.34 61.1679 15.34 62.5979 15.33C62.8379 15.33 62.8879 15.41 62.8879 15.63C62.8779 16.36 62.8879 17.1 62.8879 17.83C62.9079 17.85 62.9378 17.86 62.9578 17.87Z" fill="#CEE36D"/>
<path d="M47.1978 26.74C47.2078 28.96 47.158 30.85 47.328 32.75C47.368 33.13 47.4179 33.52 47.4679 33.9C47.4879 34.03 47.4979 34.14 47.3079 34.18C46.4079 34.41 45.508 34.52 44.598 34.27C43.578 33.98 42.8879 33.32 42.5079 32.35C42.4079 32.11 42.3581 32.08 42.1781 32.28C40.6581 33.99 38.6979 34.61 36.4679 34.53C34.9679 34.48 33.6179 33.98 32.5279 32.92C29.9979 30.47 30.3278 26.12 33.1978 23.96C34.6078 22.9 36.2378 22.38 37.9478 22.07C39.1578 21.85 40.388 21.76 41.618 21.76C41.938 21.76 41.9779 21.64 41.9579 21.37C41.8479 19.74 40.828 18.77 39.098 18.63C37.098 18.47 35.2379 18.91 33.4879 19.85C33.2179 20 33.158 19.95 33.078 19.68C32.818 18.75 32.5479 17.81 32.2579 16.89C32.1879 16.66 32.2478 16.56 32.4478 16.46C33.8678 15.73 35.3779 15.3 36.9579 15.08C38.6179 14.85 40.2781 14.82 41.9181 15.22C44.7481 15.9 46.3879 17.71 46.9779 20.52C47.1279 21.23 47.1978 21.95 47.1978 22.68C47.1978 24.13 47.1978 25.59 47.1978 26.74ZM42.098 26.53C42.108 26.53 42.118 26.53 42.118 26.53C42.118 26.12 42.108 25.71 42.118 25.3C42.118 25.14 42.078 25.07 41.908 25.07C40.708 25.07 39.518 25.16 38.368 25.53C37.128 25.94 36.1779 26.63 36.0279 28.07C35.8879 29.4 36.608 30.48 37.858 30.75C38.288 30.84 38.718 30.83 39.148 30.78C40.648 30.58 41.908 29.37 42.088 27.9C42.148 27.45 42.098 26.99 42.098 26.53Z" fill="#CEE36D"/>
<path d="M104.208 27.18C104.218 28.78 104.168 30.66 104.328 32.54C104.368 32.99 104.418 33.45 104.478 33.9C104.498 34.05 104.468 34.13 104.308 34.17C103.448 34.39 102.578 34.5 101.708 34.27C100.658 34 99.9379 33.35 99.5379 32.34C99.4379 32.08 99.3781 32.06 99.1881 32.27C97.6881 33.95 95.758 34.57 93.578 34.51C92.048 34.47 90.6779 33.99 89.5579 32.91C87.0179 30.46 87.3378 26.13 90.1978 23.94C91.6078 22.86 93.2579 22.35 94.9779 22.04C96.2079 21.82 97.4481 21.74 98.6881 21.73C98.9281 21.73 98.9779 21.65 98.9779 21.43C98.9679 19.97 98.088 18.93 96.578 18.68C94.428 18.33 92.4179 18.82 90.5079 19.82C90.2179 19.97 90.168 19.92 90.088 19.64C89.838 18.72 89.5579 17.8 89.2779 16.88C89.2079 16.64 89.2579 16.54 89.4779 16.43C91.1679 15.57 92.978 15.12 94.858 14.96C96.328 14.83 97.7878 14.87 99.2178 15.27C101.878 16 103.408 17.79 103.978 20.44C104.158 21.29 104.218 22.15 104.218 23.02C104.198 24.32 104.208 25.61 104.208 27.18ZM99.118 26.6C99.118 26.26 99.118 25.92 99.118 25.58C99.118 25.07 99.118 25.07 98.598 25.08C97.328 25.1 96.078 25.23 94.888 25.72C93.408 26.33 92.738 27.65 93.138 29.15C93.328 29.86 93.7678 30.37 94.4678 30.63C96.5678 31.4 99.158 29.84 99.128 27.51C99.118 27.21 99.118 26.91 99.118 26.6Z" fill="#CEE36D"/>
<path d="M119.808 19.21C119.808 15.98 119.818 12.75 119.798 9.52C119.798 9.19 119.898 9.12 120.208 9.12C121.628 9.14 123.048 9.14 124.468 9.12C124.768 9.12 124.868 9.17 124.858 9.5C124.838 11.23 124.858 12.96 124.848 14.7C124.848 14.97 124.908 15.05 125.188 15.05C126.458 15.03 127.718 15.05 128.988 15.04C129.208 15.04 129.288 15.09 129.288 15.33C129.278 16.73 129.278 18.14 129.288 19.54C129.288 19.79 129.198 19.82 128.978 19.82C127.708 19.81 126.448 19.82 125.178 19.81C124.928 19.81 124.838 19.85 124.838 20.13C124.848 22.47 124.848 24.81 124.848 27.15C124.848 27.76 124.908 28.36 125.118 28.94C125.398 29.73 125.958 30.16 126.788 30.22C127.448 30.27 128.098 30.23 128.748 30.09C128.978 30.04 129.098 30.03 129.098 30.35C129.098 31.47 129.128 32.6 129.148 33.72C129.148 33.88 129.158 34.02 128.958 34.07C127.158 34.52 125.338 34.79 123.508 34.26C121.558 33.7 120.478 32.34 120.068 30.39C119.888 29.5 119.808 28.61 119.798 27.71C119.808 24.88 119.808 22.04 119.808 19.21Z" fill="#CEE36D"/>
<path d="M49.9778 21.61C49.9778 17.58 49.9778 13.56 49.9678 9.53C49.9678 9.22 50.0379 9.12001 50.3679 9.13001C51.8179 9.15001 53.2778 9.14001 54.7278 9.13001C54.9778 9.13001 55.0679 9.17 55.0679 9.45C55.0579 17.56 55.0579 25.67 55.0679 33.78C55.0679 34.03 55.0178 34.12 54.7478 34.12C53.2678 34.11 51.7979 34.1 50.3179 34.12C50.0179 34.12 49.9778 34.01 49.9778 33.76C49.9878 29.71 49.9778 25.66 49.9778 21.61Z" fill="#CEE36D"/>
<path d="M111.338 18.91C111.508 18.8 111.508 18.64 111.568 18.51C112.368 16.66 113.688 15.43 115.708 15.01C116.288 14.89 116.878 14.92 117.458 14.99C117.648 15.01 117.708 15.1 117.698 15.29C117.688 16.76 117.688 18.24 117.698 19.72C117.698 19.93 117.648 19.97 117.438 19.93C116.508 19.77 115.568 19.75 114.658 20.06C113.038 20.62 112.218 21.83 111.988 23.48C111.928 23.92 111.918 24.37 111.918 24.81C111.918 27.8 111.918 30.78 111.928 33.77C111.928 34.06 111.858 34.14 111.558 34.14C110.038 34.12 108.508 34.13 106.988 34.14C106.718 34.14 106.658 34.06 106.658 33.8C106.668 27.76 106.668 21.72 106.658 15.68C106.658 15.39 106.758 15.34 107.018 15.34C108.328 15.35 109.648 15.35 110.958 15.34C111.218 15.34 111.298 15.4 111.288 15.67C111.268 16.63 111.278 17.59 111.278 18.55C111.288 18.65 111.258 18.77 111.338 18.91Z" fill="#CEE36D"/>
<path d="M156.858 0C157.718 0.04 158.578 0.240004 159.248 0.910004C159.628 1.3 159.788 1.75 159.728 2.31C159.558 4.02 159.428 5.73 159.278 7.45C159.108 9.36 158.948 11.27 158.778 13.18C158.738 13.58 158.518 13.87 158.198 14.1C157.438 14.63 156.168 14.63 155.408 14.1C155.078 13.87 154.878 13.57 154.838 13.14C154.638 10.8 154.428 8.46 154.218 6.12C154.098 4.83 153.988 3.53001 153.868 2.24001C153.808 1.56001 154.098 1.07 154.618 0.669998C155.248 0.189998 156.008 0.02 156.858 0Z" fill="#CEE36D"/>
<path d="M176.028 12.64C176.028 13.53 175.668 14.15 174.808 14.54C171.598 16 168.408 17.49 165.218 18.99C164.638 19.27 164.128 19.2 163.638 18.84C162.878 18.28 162.498 17.52 162.558 16.57C162.588 16.17 162.758 15.86 163.088 15.63C166.098 13.54 169.108 11.44 172.108 9.33998C172.548 9.02998 173.028 8.97999 173.518 9.13999C174.868 9.56999 175.558 10.59 175.928 11.89C176.018 12.13 176.038 12.38 176.028 12.64Z" fill="#CEE36D"/>
<path d="M137.518 12.56C137.648 11.15 138.288 9.99999 139.598 9.28999C140.258 8.92999 140.928 8.95999 141.578 9.41999C144.498 11.48 147.428 13.52 150.358 15.55C150.948 15.96 151.118 16.49 150.988 17.16C150.838 17.91 150.468 18.51 149.818 18.92C149.408 19.18 148.988 19.26 148.518 19.05C145.188 17.5 141.858 15.96 138.518 14.41C137.748 14.05 137.578 13.37 137.518 12.56Z" fill="#CEE36D"/>
<path d="M137.528 30.59C137.558 29.57 137.898 28.94 138.758 28.55C141.998 27.08 145.218 25.57 148.438 24.07C148.878 23.86 149.288 23.87 149.708 24.09C150.618 24.56 151.208 25.79 150.978 26.72C150.908 27.02 150.748 27.25 150.498 27.43C147.478 29.53 144.468 31.63 141.448 33.74C140.838 34.17 140.198 34.12 139.588 33.79C138.278 33.08 137.648 31.92 137.528 30.59Z" fill="#CEE36D"/>
<path d="M176.028 30.27C176.018 32.03 174.888 33.6 173.528 33.96C173.008 34.1 172.518 34.04 172.058 33.72C169.088 31.63 166.108 29.55 163.128 27.48C162.748 27.22 162.558 26.87 162.558 26.42C162.548 25.42 162.978 24.66 163.818 24.14C164.188 23.91 164.588 23.84 165.018 24.04C168.358 25.59 171.708 27.14 175.048 28.69C175.838 29.04 176.018 29.72 176.028 30.27Z" fill="#CEE36D"/>
<path d="M177.138 32.71C177.138 32.01 177.698 31.45 178.418 31.44C179.128 31.44 179.718 32 179.718 32.69C179.718 33.4 179.128 33.99 178.408 33.98C177.698 33.96 177.138 33.41 177.138 32.71ZM179.048 33.38C179.098 33.42 179.128 33.39 179.168 33.36C179.468 33.03 179.478 32.47 179.208 32.09C178.928 31.71 178.438 31.59 178.018 31.79C177.588 32 177.368 32.51 177.508 33.01C177.628 33.42 178.068 33.76 178.488 33.7C178.708 33.68 178.978 33.69 179.048 33.38Z" fill="#CEE36D"/>
<path d="M179.048 33.37C178.978 33.68 178.708 33.67 178.488 33.7C178.068 33.75 177.618 33.42 177.508 33.01C177.368 32.51 177.578 32 178.018 31.79C178.438 31.59 178.928 31.71 179.208 32.09C179.488 32.47 179.468 33.03 179.168 33.36C179.128 33.39 179.088 33.42 179.048 33.37C179.018 33.26 179.008 33.14 178.958 33.04C178.868 32.85 178.758 32.71 178.948 32.49C179.048 32.37 178.938 32.18 178.758 32.11C178.578 32.04 178.388 32.05 178.208 32.06C178.018 32.07 177.908 32.14 177.928 32.36C177.948 32.6 177.928 32.85 177.938 33.09C177.938 33.19 177.888 33.34 178.078 33.35C178.258 33.36 178.238 33.23 178.248 33.11C178.258 33.01 178.208 32.88 178.368 32.86C178.518 32.84 178.618 32.91 178.628 33.07C178.648 33.37 178.838 33.37 179.048 33.37Z" fill="#CEE36D"/>
<path d="M179.048 33.37C178.838 33.37 178.648 33.36 178.628 33.08C178.618 32.92 178.518 32.85 178.368 32.87C178.208 32.89 178.258 33.02 178.248 33.12C178.238 33.24 178.248 33.37 178.078 33.36C177.888 33.35 177.948 33.2 177.938 33.1C177.928 32.86 177.948 32.61 177.928 32.37C177.908 32.15 178.018 32.08 178.208 32.07C178.398 32.06 178.578 32.05 178.758 32.12C178.938 32.19 179.058 32.38 178.948 32.5C178.758 32.72 178.868 32.86 178.958 33.05C179.008 33.14 179.018 33.27 179.048 33.37ZM178.638 32.45C178.618 32.3 178.498 32.27 178.378 32.27C178.248 32.27 178.248 32.38 178.248 32.47C178.248 32.57 178.258 32.67 178.398 32.65C178.518 32.63 178.638 32.61 178.638 32.45Z" fill="#CEE36D"/>
<path d="M178.638 32.45C178.638 32.61 178.518 32.63 178.398 32.65C178.268 32.67 178.248 32.57 178.248 32.47C178.248 32.38 178.248 32.27 178.378 32.27C178.508 32.27 178.618 32.31 178.638 32.45Z" fill="#CEE36D"/>
</svg>
